%TF.GenerationSoftware,KiCad,Pcbnew,9.0.3*%
%TF.CreationDate,2025-09-11T19:41:32-05:00*%
%TF.ProjectId,PiBoard,5069426f-6172-4642-9e6b-696361645f70,rev?*%
%TF.SameCoordinates,Original*%
%TF.FileFunction,Copper,L3,Inr*%
%TF.FilePolarity,Positive*%
%FSLAX46Y46*%
G04 Gerber Fmt 4.6, Leading zero omitted, Abs format (unit mm)*
G04 Created by KiCad (PCBNEW 9.0.3) date 2025-09-11 19:41:32*
%MOMM*%
%LPD*%
G01*
G04 APERTURE LIST*
G04 Aperture macros list*
%AMFreePoly0*
4,1,22,0.945671,0.830970,1.026777,0.776777,1.080970,0.695671,1.100000,0.600000,1.100000,-0.600000,1.080970,-0.695671,1.026777,-0.776777,0.945671,-0.830970,0.850000,-0.850000,-0.450000,-0.850000,-0.545671,-0.830970,-0.626777,-0.776777,-1.026777,-0.376777,-1.080970,-0.295671,-1.100000,-0.200000,-1.100000,0.600000,-1.080970,0.695671,-1.026777,0.776777,-0.945671,0.830970,-0.850000,0.850000,
0.850000,0.850000,0.945671,0.830970,0.945671,0.830970,$1*%
G04 Aperture macros list end*
%TA.AperFunction,HeatsinkPad*%
%ADD10O,2.100000X1.000000*%
%TD*%
%TA.AperFunction,HeatsinkPad*%
%ADD11O,1.800000X1.000000*%
%TD*%
%TA.AperFunction,ComponentPad*%
%ADD12R,1.700000X1.700000*%
%TD*%
%TA.AperFunction,ComponentPad*%
%ADD13O,1.700000X1.700000*%
%TD*%
%TA.AperFunction,ComponentPad*%
%ADD14C,1.066800*%
%TD*%
%TA.AperFunction,ComponentPad*%
%ADD15R,1.500000X1.500000*%
%TD*%
%TA.AperFunction,ComponentPad*%
%ADD16C,1.500000*%
%TD*%
%TA.AperFunction,ComponentPad*%
%ADD17C,4.185000*%
%TD*%
%TA.AperFunction,ComponentPad*%
%ADD18C,2.660000*%
%TD*%
%TA.AperFunction,ComponentPad*%
%ADD19C,4.455000*%
%TD*%
%TA.AperFunction,ComponentPad*%
%ADD20FreePoly0,90.000000*%
%TD*%
%TA.AperFunction,ComponentPad*%
%ADD21O,1.700000X2.200000*%
%TD*%
%TA.AperFunction,ComponentPad*%
%ADD22R,1.730000X2.030000*%
%TD*%
%TA.AperFunction,ComponentPad*%
%ADD23O,1.730000X2.030000*%
%TD*%
%TA.AperFunction,ViaPad*%
%ADD24C,1.000000*%
%TD*%
%TA.AperFunction,ViaPad*%
%ADD25C,0.600000*%
%TD*%
%TA.AperFunction,ViaPad*%
%ADD26C,0.450000*%
%TD*%
%TA.AperFunction,Conductor*%
%ADD27C,0.250000*%
%TD*%
%TA.AperFunction,Conductor*%
%ADD28C,0.150000*%
%TD*%
G04 APERTURE END LIST*
D10*
%TO.N,GNDPWR*%
%TO.C,J5*%
X184995000Y-83320000D03*
D11*
X189175000Y-83320000D03*
D10*
X184995000Y-74680000D03*
D11*
X189175000Y-74680000D03*
%TD*%
D12*
%TO.N,+3.3V*%
%TO.C,J3*%
X105464466Y-123994466D03*
D13*
%TO.N,+5V*%
X108004466Y-123994466D03*
%TO.N,/CM4 GPIO/GPIO2*%
X105464466Y-121454466D03*
%TO.N,+5V*%
X108004466Y-121454466D03*
%TO.N,/CM4 GPIO/GPIO3*%
X105464466Y-118914466D03*
%TO.N,GND*%
X108004466Y-118914466D03*
%TO.N,/CM4 GPIO/GPIO4*%
X105464466Y-116374466D03*
%TO.N,/CM4 GPIO/GPIO14*%
X108004466Y-116374466D03*
%TO.N,GND*%
X105464466Y-113834466D03*
%TO.N,/CM4 GPIO/GPIO15*%
X108004466Y-113834466D03*
%TO.N,/CM4 GPIO/GPIO17*%
X105464466Y-111294466D03*
%TO.N,/CM4 GPIO/GPIO18*%
X108004466Y-111294466D03*
%TO.N,/CM4 GPIO/GPIO27*%
X105464466Y-108754466D03*
%TO.N,GND*%
X108004466Y-108754466D03*
%TO.N,/CM4 GPIO/GPIO22*%
X105464466Y-106214466D03*
%TO.N,/CM4 GPIO/GPIO23*%
X108004466Y-106214466D03*
%TO.N,+3.3V*%
X105464466Y-103674466D03*
%TO.N,/CM4 GPIO/GPIO24*%
X108004466Y-103674466D03*
%TO.N,/CM4 GPIO/CAN_SPI_MOSI*%
X105464466Y-101134466D03*
%TO.N,GND*%
X108004466Y-101134466D03*
%TO.N,/CM4 GPIO/CAN_SPI_MISO*%
X105464466Y-98594466D03*
%TO.N,/CM4 GPIO/GPIO25*%
X108004466Y-98594466D03*
%TO.N,/CM4 GPIO/CAN_SPI_CLK*%
X105464466Y-96054466D03*
%TO.N,/CM4 GPIO/CAN_SPI_CS*%
X108004466Y-96054466D03*
%TO.N,GND*%
X105464466Y-93514466D03*
%TO.N,/CM4 GPIO/GPIO7*%
X108004466Y-93514466D03*
%TO.N,/CM4 GPIO/GPIO0*%
X105464466Y-90974466D03*
%TO.N,/CM4 GPIO/GPIO1*%
X108004466Y-90974466D03*
%TO.N,/CM4 GPIO/GPIO5*%
X105464466Y-88434466D03*
%TO.N,GND*%
X108004466Y-88434466D03*
%TO.N,/CM4 GPIO/GPIO6*%
X105464466Y-85894466D03*
%TO.N,/CM4 GPIO/CAN_INTR*%
X108004466Y-85894466D03*
%TO.N,/CM4 GPIO/GPIO13*%
X105464466Y-83354466D03*
%TO.N,GND*%
X108004466Y-83354466D03*
%TO.N,/CM4 GPIO/GPIO19*%
X105464466Y-80814466D03*
%TO.N,/CM4 GPIO/GPIO16*%
X108004466Y-80814466D03*
%TO.N,/CM4 GPIO/GPIO26*%
X105464466Y-78274466D03*
%TO.N,/CM4 GPIO/GPIO20*%
X108004466Y-78274466D03*
%TO.N,GND*%
X105464466Y-75734466D03*
%TO.N,/CM4 GPIO/GPIO21*%
X108004466Y-75734466D03*
%TD*%
D14*
%TO.N,/RTC and Fan/RED*%
%TO.C,J12*%
X176100000Y-63330000D03*
%TO.N,GND*%
X176100000Y-62080000D03*
%TD*%
D10*
%TO.N,GNDPWR*%
%TO.C,J4*%
X184985000Y-100020000D03*
D11*
X189165000Y-100020000D03*
D10*
X184985000Y-91380000D03*
D11*
X189165000Y-91380000D03*
%TD*%
D15*
%TO.N,/HDMI and High Speed/HDMI0_D2_PRT_P*%
%TO.C,J9*%
X162150000Y-111450000D03*
D16*
%TO.N,GND*%
X164150000Y-112575000D03*
%TO.N,/HDMI and High Speed/HDMI0_D2_PRT_N*%
X162150000Y-113700000D03*
%TO.N,/HDMI and High Speed/HDMI0_D1_PRT_P*%
X166150000Y-113700000D03*
%TO.N,GND*%
X164150000Y-114825000D03*
%TO.N,/HDMI and High Speed/HDMI0_D1_PRT_N*%
X166150000Y-115950000D03*
%TO.N,/HDMI and High Speed/HDMI0_D0_PRT_P*%
X162150000Y-115950000D03*
%TO.N,GND*%
X164150000Y-117075000D03*
%TO.N,/HDMI and High Speed/HDMI0_D0_PRT_N*%
X162150000Y-118200000D03*
%TO.N,/HDMI and High Speed/HDMI0_CK_PRT_P*%
X166150000Y-118200000D03*
%TO.N,GND*%
X164150000Y-119325000D03*
%TO.N,/HDMI and High Speed/HDMI0_CK_PRT_N*%
X166150000Y-120450000D03*
%TO.N,/HDMI and High Speed/HDMI0_CEC_PRT*%
X162150000Y-120450000D03*
%TO.N,unconnected-(J9-UTILITY-Pad14)*%
X164150000Y-121575000D03*
%TO.N,/HDMI and High Speed/HDMI0_SCL_PRT*%
X162150000Y-122700000D03*
%TO.N,/HDMI and High Speed/HDMI0_SDA_PRT*%
X166150000Y-122700000D03*
%TO.N,GND*%
X164150000Y-123825000D03*
%TO.N,/HDMI and High Speed/HDMI_5V*%
X166150000Y-124950000D03*
%TO.N,/HDMI and High Speed/HDMI0_HOTPLUG*%
X162150000Y-124950000D03*
D17*
%TO.N,N/C*%
X164150000Y-106750000D03*
X164150000Y-129650000D03*
D18*
X168150000Y-112575000D03*
X168150000Y-123825000D03*
D19*
X174350000Y-106750000D03*
X174350000Y-129650000D03*
D17*
X181350000Y-106750000D03*
X181350000Y-129650000D03*
%TD*%
D20*
%TO.N,Net-(IC1-CANH)*%
%TO.C,J6*%
X111500000Y-53700000D03*
D21*
%TO.N,Net-(IC1-CANL)*%
X114000000Y-53700000D03*
%TD*%
D22*
%TO.N,GND*%
%TO.C,J7*%
X174760000Y-54500000D03*
D23*
%TO.N,+24V*%
X177300000Y-54500000D03*
%TO.N,Net-(J7-Pin_3)*%
X179840000Y-54500000D03*
%TO.N,Net-(J7-Pin_4)*%
X182380000Y-54500000D03*
%TD*%
D20*
%TO.N,Net-(IC1-CANH)*%
%TO.C,J8*%
X120450000Y-53692500D03*
D21*
%TO.N,Net-(IC1-CANL)*%
X122950000Y-53692500D03*
%TD*%
D20*
%TO.N,+24V*%
%TO.C,J2*%
X166062500Y-53757500D03*
D21*
%TO.N,GND*%
X168562500Y-53757500D03*
%TD*%
D12*
%TO.N,Net-(IC1-CANH)*%
%TO.C,JP1*%
X109762500Y-69730000D03*
D13*
%TO.N,Net-(JP1-B)*%
X112302500Y-69730000D03*
%TD*%
D20*
%TO.N,/Power Distribution/LV+*%
%TO.C,J1*%
X158812500Y-53757500D03*
D21*
%TO.N,GND*%
X161312500Y-53757500D03*
%TD*%
D24*
%TO.N,+5V*%
X110500000Y-137600000D03*
D25*
%TO.N,GND*%
X182000000Y-85600000D03*
X147465000Y-68185000D03*
X142992500Y-54085000D03*
X183987500Y-89520000D03*
X111237500Y-66930000D03*
X147465000Y-61185000D03*
X149200000Y-139160000D03*
X147211531Y-107260355D03*
X114400000Y-92214466D03*
X131000000Y-64475000D03*
X150500000Y-131100000D03*
X138020000Y-139470000D03*
X128025000Y-139470000D03*
X143770000Y-139470000D03*
X165700000Y-65500000D03*
X173075000Y-98700000D03*
X169437500Y-67287500D03*
X151765000Y-62322500D03*
X131000000Y-61375000D03*
X153950000Y-129275000D03*
X138400000Y-69700000D03*
X115400000Y-129712500D03*
X114761907Y-111431982D03*
X190650000Y-101900000D03*
X177425000Y-87300000D03*
X165737500Y-102300000D03*
X160710000Y-134760000D03*
X146715000Y-56135000D03*
X184025000Y-85175000D03*
X184025000Y-72875000D03*
X125650000Y-56717500D03*
X164887500Y-60187500D03*
X178925000Y-82500000D03*
X147206885Y-96401213D03*
X158300000Y-130100000D03*
X189075000Y-85175000D03*
X184525000Y-101900000D03*
X154200000Y-134760000D03*
X114000000Y-103814466D03*
X131000000Y-56725000D03*
X117100000Y-132970000D03*
X133775000Y-139470000D03*
X180040000Y-68750000D03*
X108287500Y-64592500D03*
X169075000Y-99350000D03*
X151765000Y-65485000D03*
X118025000Y-139470000D03*
X172575000Y-87300000D03*
X145665000Y-67810000D03*
X148600000Y-101200000D03*
X158600000Y-87225000D03*
X127100000Y-132970000D03*
X149317500Y-67810000D03*
X150525000Y-127500000D03*
X190675000Y-89600000D03*
X121900000Y-67700000D03*
X154500000Y-125200000D03*
X187525000Y-101900000D03*
X162025000Y-60600000D03*
X174925000Y-90000000D03*
X168487500Y-63237500D03*
X175187500Y-80850000D03*
X163400000Y-66925000D03*
X123775000Y-139470000D03*
X127262500Y-56717500D03*
X114187500Y-61755000D03*
X157225000Y-69000000D03*
X140575000Y-54100000D03*
X160710000Y-139160000D03*
X178312500Y-61447500D03*
X137095000Y-132970000D03*
X182050000Y-99625000D03*
X177175000Y-99675000D03*
%TO.N,+3.3V*%
X160900000Y-84212500D03*
X128900000Y-80500000D03*
X170000000Y-77200000D03*
X173850000Y-100850000D03*
%TO.N,/CM4 GPIO/RUN_PG*%
X116800000Y-120800000D03*
X116800000Y-110888000D03*
X138645000Y-132970000D03*
X116800000Y-117100000D03*
%TO.N,/Board_En*%
X173325000Y-85500000D03*
X123115000Y-132985000D03*
X111300000Y-125400000D03*
X117191000Y-129909000D03*
X150475000Y-129275000D03*
%TO.N,/CM4 GPIO/GPIO3*%
X128650000Y-132970000D03*
D26*
X117574216Y-104267108D03*
D25*
%TO.N,Net-(D4-A)*%
X108287500Y-63017500D03*
X106287500Y-63055000D03*
%TO.N,Net-(IC1-CANH)*%
X110937500Y-58617500D03*
X110287500Y-64530000D03*
%TO.N,/CarCAN/Fault*%
X106287500Y-61405000D03*
X113587500Y-59930000D03*
X108287500Y-59855000D03*
%TO.N,Net-(IC1-CANL)*%
X112187500Y-64530000D03*
X112262500Y-58617500D03*
X114187500Y-65130000D03*
%TO.N,Net-(IC3-GATE)*%
X166300000Y-63000000D03*
X156725000Y-66025000D03*
X156000000Y-61600000D03*
%TO.N,/Power Distribution/LV+*%
X157975000Y-60600000D03*
X170087500Y-61687500D03*
X169637500Y-60187500D03*
D26*
%TO.N,/CM4 GPIO/GPIO14*%
X110950000Y-104850000D03*
%TO.N,/CM4 GPIO/GPIO18*%
X109825000Y-103732108D03*
%TO.N,/CM4 GPIO/CAN_INTR*%
X110925000Y-96525000D03*
D25*
X127750000Y-73350000D03*
X117500000Y-81300000D03*
D26*
%TO.N,/CM4 GPIO/GPIO6*%
X117600000Y-96950586D03*
%TO.N,/CM4 GPIO/GPIO20*%
X113675000Y-96750000D03*
%TO.N,/CM4 GPIO/GPIO0*%
X117596538Y-98455327D03*
%TO.N,/CM4 GPIO/GPIO24*%
X110935534Y-101014466D03*
%TO.N,/CM4 GPIO/GPIO7*%
X109825000Y-97616086D03*
%TO.N,/CM4 GPIO/GPIO25*%
X110939466Y-100214466D03*
D25*
%TO.N,/CM4 GPIO/CAN_SPI_MOSI*%
X128800000Y-74000000D03*
D26*
X117600000Y-100514466D03*
%TO.N,/CM4 GPIO/GPIO16*%
X110950000Y-95080000D03*
%TO.N,/CM4 GPIO/GPIO4*%
X117590000Y-103450000D03*
%TO.N,/CM4 GPIO/GPIO22*%
X117612500Y-101187500D03*
D25*
%TO.N,/CM4 GPIO/CAN_SPI_CS*%
X129750000Y-66900000D03*
X112900000Y-84700000D03*
D26*
X109810470Y-98378362D03*
D25*
X116400000Y-80300000D03*
D26*
%TO.N,/CM4 GPIO/GPIO27*%
X117625000Y-101975000D03*
%TO.N,/CM4 GPIO/GPIO13*%
X117600001Y-96205106D03*
D25*
%TO.N,/CM4 GPIO/CAN_SPI_CLK*%
X111849000Y-84700000D03*
X124400000Y-64000000D03*
X115750000Y-79750000D03*
D26*
X117607952Y-99149156D03*
%TO.N,/CM4 GPIO/GPIO21*%
X110950000Y-93875000D03*
%TO.N,/CM4 GPIO/GPIO19*%
X117600000Y-95500000D03*
%TO.N,/CM4 GPIO/GPIO23*%
X109812500Y-103037500D03*
D25*
%TO.N,/CM4 GPIO/CAN_SPI_MISO*%
X124400000Y-61900000D03*
D26*
X117607052Y-99834321D03*
%TO.N,/CM4 GPIO/GPIO26*%
X117596446Y-94796446D03*
%TO.N,/CM4 GPIO/GPIO1*%
X110375000Y-97075000D03*
%TO.N,/CM4 GPIO/GPIO15*%
X110350000Y-104325000D03*
%TO.N,/CM4 GPIO/GPIO17*%
X117590000Y-102720000D03*
%TO.N,/CM4 GPIO/GPIO5*%
X117600770Y-97742123D03*
%TO.N,/CM4 GPIO/GPIO2*%
X117575000Y-104975000D03*
D25*
%TO.N,Net-(J5-CC1)*%
X181975000Y-82625000D03*
X185500000Y-80500000D03*
%TO.N,Net-(J4-CC1)*%
X182875000Y-101900000D03*
X186600000Y-96950000D03*
%TO.N,Net-(J4-CC2)*%
X186600000Y-94300000D03*
X185637500Y-89520000D03*
%TO.N,Net-(JP1-B)*%
X114187500Y-66780000D03*
%TO.N,/CM4 GPIO/WiFi_Disable*%
X120700000Y-114300000D03*
X163210000Y-134760000D03*
X147600000Y-130700000D03*
%TO.N,/CM4 GPIO/SDA0*%
X120500000Y-107700000D03*
X117025000Y-109075000D03*
X179015000Y-63245000D03*
X182200000Y-59600000D03*
%TO.N,/CM4 GPIO/BT_Disable*%
X163210000Y-139160000D03*
X147600000Y-131700000D03*
X120700000Y-115100000D03*
%TO.N,Net-(Module1A-PI_nLED_Activity)*%
X112000000Y-129675000D03*
X114300000Y-95400000D03*
%TO.N,/CM4 GPIO/nRPIBOOT*%
X146800000Y-132100000D03*
X120700000Y-116000000D03*
X151700000Y-134760000D03*
%TO.N,/CM4 GPIO/SCL0*%
X181900000Y-60400000D03*
X179015000Y-64515000D03*
X117037500Y-107075000D03*
X119900000Y-104200000D03*
%TO.N,/CM4 GPIO/EEPROM_nWP*%
X120900000Y-95000000D03*
X151700000Y-139160000D03*
X145600000Y-130572000D03*
%TO.N,/HDMI and High Speed/USBOTG_ID*%
X158600000Y-85575000D03*
%TD*%
D27*
%TO.N,+3.3V*%
X165500000Y-88812500D02*
X160900000Y-84212500D01*
X128900000Y-80500000D02*
X156800000Y-80500000D01*
X173850000Y-100850000D02*
X167850000Y-100850000D01*
X161187500Y-84212500D02*
X160900000Y-84212500D01*
X156800000Y-80500000D02*
X160512500Y-84212500D01*
X165500000Y-98500000D02*
X165500000Y-88812500D01*
X160512500Y-84212500D02*
X160900000Y-84212500D01*
X168200000Y-77200000D02*
X161187500Y-84212500D01*
X170000000Y-77200000D02*
X168200000Y-77200000D01*
X167850000Y-100850000D02*
X165500000Y-98500000D01*
D28*
%TO.N,/CM4 GPIO/RUN_PG*%
X137909588Y-132970000D02*
X138645000Y-132970000D01*
X137139588Y-132200000D02*
X137909588Y-132970000D01*
X116800000Y-120800000D02*
X117800000Y-121800000D01*
X116800000Y-110888000D02*
X116800000Y-117100000D01*
X117800000Y-130300000D02*
X119700000Y-132200000D01*
X119700000Y-132200000D02*
X137139588Y-132200000D01*
X117800000Y-121800000D02*
X117800000Y-130300000D01*
%TO.N,/Board_En*%
X150475000Y-128364588D02*
X150475000Y-129275000D01*
X152239588Y-126600000D02*
X150475000Y-128364588D01*
X173859516Y-103700000D02*
X170900000Y-106659516D01*
X123676000Y-133546000D02*
X123115000Y-132985000D01*
X173325000Y-85500000D02*
X176500000Y-88675000D01*
X168200000Y-126600000D02*
X152239588Y-126600000D01*
X175700000Y-103700000D02*
X173859516Y-103700000D01*
X116281000Y-128999000D02*
X117191000Y-129909000D01*
D27*
X123100000Y-132970000D02*
X123115000Y-132985000D01*
D28*
X170900000Y-106659516D02*
X170900000Y-123900000D01*
X176500000Y-88675000D02*
X176500000Y-102900000D01*
X114899000Y-128999000D02*
X116281000Y-128999000D01*
X150475000Y-129275000D02*
X150475000Y-129950000D01*
X176500000Y-102900000D02*
X175700000Y-103700000D01*
X150475000Y-129950000D02*
X146879000Y-133546000D01*
X111300000Y-125400000D02*
X114899000Y-128999000D01*
X146879000Y-133546000D02*
X123676000Y-133546000D01*
X170900000Y-123900000D02*
X168200000Y-126600000D01*
%TO.N,Net-(D4-A)*%
X108250000Y-63055000D02*
X108287500Y-63017500D01*
X106287500Y-63055000D02*
X108250000Y-63055000D01*
%TO.N,Net-(IC1-CANH)*%
X109762500Y-69730000D02*
X109762500Y-66965000D01*
X119081500Y-52324000D02*
X120450000Y-53692500D01*
X112876000Y-52324000D02*
X119081500Y-52324000D01*
X110287500Y-61240000D02*
X110287500Y-64530000D01*
X110937500Y-58617500D02*
X110937500Y-60590000D01*
X110287500Y-66440000D02*
X110287500Y-64530000D01*
X109762500Y-66965000D02*
X110287500Y-66440000D01*
X111500000Y-53700000D02*
X112876000Y-52324000D01*
X110937500Y-60590000D02*
X110287500Y-61240000D01*
%TO.N,/CarCAN/Fault*%
X110130912Y-57637000D02*
X112891088Y-57637000D01*
X108587500Y-59180412D02*
X108587500Y-59555000D01*
X107837500Y-59855000D02*
X106287500Y-61405000D01*
X113587500Y-58333412D02*
X113587500Y-59930000D01*
X108587500Y-59555000D02*
X108287500Y-59855000D01*
X108287500Y-59855000D02*
X107837500Y-59855000D01*
X112891088Y-57637000D02*
X113587500Y-58333412D01*
X108587500Y-59180412D02*
X110130912Y-57637000D01*
%TO.N,Net-(IC1-CANL)*%
X112262500Y-58617500D02*
X112187500Y-58692500D01*
X112787500Y-65130000D02*
X114187500Y-65130000D01*
X116308500Y-56008500D02*
X122104272Y-56008500D01*
X112187500Y-64530000D02*
X112787500Y-65130000D01*
X114000000Y-53700000D02*
X116308500Y-56008500D01*
X122104272Y-56008500D02*
X122950000Y-55162772D01*
X112187500Y-58692500D02*
X112187500Y-64530000D01*
X122950000Y-55162772D02*
X122950000Y-53692500D01*
%TO.N,/CM4 GPIO/CAN_INTR*%
X127750000Y-73350000D02*
X127200000Y-73900000D01*
X124900000Y-73900000D02*
X117500000Y-81300000D01*
X127200000Y-73900000D02*
X124900000Y-73900000D01*
%TO.N,/CM4 GPIO/GPIO0*%
X104833900Y-73999000D02*
X108866100Y-73999000D01*
X103700000Y-87237100D02*
X103699000Y-87236100D01*
X109701000Y-74833900D02*
X109701000Y-76901000D01*
X103699000Y-87236100D02*
X103699000Y-75133900D01*
X118498000Y-97553865D02*
X117596538Y-98455327D01*
X109701000Y-76901000D02*
X118498000Y-85698000D01*
X105464466Y-90974466D02*
X103700000Y-89210000D01*
X103699000Y-75133900D02*
X104833900Y-73999000D01*
X118498000Y-85698000D02*
X118498000Y-97553865D01*
X103700000Y-89210000D02*
X103700000Y-87237100D01*
X108866100Y-73999000D02*
X109701000Y-74833900D01*
%TO.N,/CM4 GPIO/CAN_SPI_MOSI*%
X118900000Y-101697551D02*
X118900000Y-116900000D01*
X110051000Y-121945388D02*
X110051000Y-124849000D01*
X103398000Y-125298000D02*
X103398000Y-103200932D01*
X117635428Y-100514466D02*
X117600000Y-100514466D01*
X118900000Y-116900000D02*
X116098000Y-119702000D01*
X128800000Y-76000000D02*
X119600000Y-85200000D01*
X110051000Y-124849000D02*
X108849000Y-126051000D01*
X119600000Y-85200000D02*
X119600000Y-98549894D01*
X117600000Y-100514466D02*
X117716915Y-100514466D01*
X103398000Y-103200932D02*
X105464466Y-101134466D01*
X116098000Y-119702000D02*
X112294388Y-119702000D01*
X112294388Y-119702000D02*
X110051000Y-121945388D01*
X128800000Y-74000000D02*
X128800000Y-76000000D01*
X104151000Y-126051000D02*
X103398000Y-125298000D01*
X108849000Y-126051000D02*
X104151000Y-126051000D01*
X117716915Y-100514466D02*
X118900000Y-101697551D01*
X119600000Y-98549894D02*
X117635428Y-100514466D01*
%TO.N,/CM4 GPIO/GPIO22*%
X117612500Y-101187500D02*
X118549000Y-102124000D01*
X109700000Y-121800000D02*
X109700000Y-124700000D01*
X109700000Y-124700000D02*
X108700000Y-125700000D01*
X103749000Y-107929932D02*
X105464466Y-106214466D01*
X108700000Y-125700000D02*
X104300000Y-125700000D01*
X103749000Y-125149000D02*
X103749000Y-107929932D01*
X115945389Y-119351000D02*
X112149000Y-119351000D01*
X104300000Y-125700000D02*
X103749000Y-125149000D01*
X117600000Y-117696388D02*
X115945389Y-119351000D01*
X118549000Y-116754612D02*
X117607224Y-117696388D01*
X112149000Y-119351000D02*
X109700000Y-121800000D01*
X117607224Y-117696388D02*
X117600000Y-117696388D01*
X118549000Y-102124000D02*
X118549000Y-116754612D01*
%TO.N,/CM4 GPIO/CAN_SPI_CS*%
X128100000Y-72100000D02*
X124600000Y-72100000D01*
X124600000Y-72100000D02*
X116400000Y-80300000D01*
X129750000Y-66900000D02*
X129750000Y-70450000D01*
X112900000Y-84700000D02*
X112900000Y-91158932D01*
X112900000Y-91158932D02*
X108004466Y-96054466D01*
X129750000Y-70450000D02*
X128100000Y-72100000D01*
%TO.N,/CM4 GPIO/GPIO27*%
X118198000Y-116602000D02*
X115800000Y-119000000D01*
X118198000Y-102548000D02*
X118198000Y-116602000D01*
X104100000Y-110118932D02*
X105464466Y-108754466D01*
X104100000Y-125000000D02*
X104100000Y-110118932D01*
X112000000Y-119000000D02*
X109300000Y-121700000D01*
X104400000Y-125300000D02*
X104100000Y-125000000D01*
X115800000Y-119000000D02*
X112000000Y-119000000D01*
X108600000Y-125300000D02*
X104400000Y-125300000D01*
X109300000Y-124600000D02*
X108600000Y-125300000D01*
X109300000Y-121700000D02*
X109300000Y-124600000D01*
X117625000Y-101975000D02*
X118198000Y-102548000D01*
%TO.N,/CM4 GPIO/CAN_SPI_CLK*%
X115750000Y-79750000D02*
X124400000Y-71100000D01*
X105454466Y-96054466D02*
X105464466Y-96054466D01*
X117611506Y-99145602D02*
X117614785Y-99145602D01*
X106590466Y-94928466D02*
X105464466Y-96054466D01*
X111849000Y-91600000D02*
X108520534Y-94928466D01*
X103298000Y-74967800D02*
X103298000Y-93898000D01*
X109032200Y-73598000D02*
X104667800Y-73598000D01*
X118849000Y-85449000D02*
X110102000Y-76702000D01*
X111849000Y-84700000D02*
X111849000Y-91600000D01*
X117607952Y-99149156D02*
X117611506Y-99145602D01*
X104667800Y-73598000D02*
X103298000Y-74967800D01*
X117614785Y-99145602D02*
X118849000Y-97911387D01*
X103298000Y-93898000D02*
X105454466Y-96054466D01*
X118849000Y-97911387D02*
X118849000Y-85449000D01*
X110102000Y-74667800D02*
X109032200Y-73598000D01*
X108520534Y-94928466D02*
X106590466Y-94928466D01*
X110102000Y-76702000D02*
X110102000Y-74667800D01*
X124400000Y-71100000D02*
X124400000Y-64000000D01*
%TO.N,/CM4 GPIO/CAN_SPI_MISO*%
X119200000Y-85197000D02*
X110503000Y-76500000D01*
X122803612Y-72200000D02*
X112804700Y-72200000D01*
X104501700Y-73197000D02*
X102900000Y-74798700D01*
X124400000Y-61900000D02*
X123824000Y-62476000D01*
X102900000Y-74798700D02*
X102900000Y-96030000D01*
X112804700Y-72200000D02*
X110503000Y-74501700D01*
X109198300Y-73197000D02*
X104501700Y-73197000D01*
X110503000Y-76500000D02*
X110503000Y-74501700D01*
X117609825Y-99831548D02*
X117635946Y-99831548D01*
X123824000Y-71179612D02*
X122803612Y-72200000D01*
X119200000Y-98267494D02*
X119200000Y-85197000D01*
X110503000Y-74501700D02*
X109198300Y-73197000D01*
X102900000Y-96030000D02*
X105464466Y-98594466D01*
X117607052Y-99834321D02*
X117609825Y-99831548D01*
X117635946Y-99831548D02*
X119200000Y-98267494D01*
X123824000Y-62476000D02*
X123824000Y-71179612D01*
%TO.N,/CM4 GPIO/GPIO5*%
X118100000Y-97242893D02*
X117600770Y-97742123D01*
X105000000Y-74400000D02*
X104100000Y-75300000D01*
X104100000Y-87070000D02*
X105464466Y-88434466D01*
X108700000Y-74400000D02*
X105000000Y-74400000D01*
X118100000Y-97242893D02*
X118100000Y-85900000D01*
X118100000Y-85900000D02*
X109300000Y-77100000D01*
X109300000Y-75000000D02*
X108700000Y-74400000D01*
X104100000Y-75300000D02*
X104100000Y-87070000D01*
X109300000Y-77100000D02*
X109300000Y-75000000D01*
%TO.N,Net-(J5-CC1)*%
X181975000Y-82625000D02*
X183375000Y-82625000D01*
X183375000Y-82625000D02*
X185500000Y-80500000D01*
%TO.N,Net-(J4-CC1)*%
X185856430Y-100796000D02*
X183979000Y-100796000D01*
X186600000Y-96950000D02*
X186775000Y-96950000D01*
X187300000Y-97475000D02*
X187300000Y-99352430D01*
X186775000Y-96950000D02*
X187300000Y-97475000D01*
X183979000Y-100796000D02*
X182875000Y-101900000D01*
X187300000Y-99352430D02*
X185856430Y-100796000D01*
%TO.N,Net-(J4-CC2)*%
X187300000Y-93900000D02*
X187300000Y-91000000D01*
X187300000Y-91000000D02*
X185820000Y-89520000D01*
X186600000Y-94300000D02*
X186900000Y-94300000D01*
X185820000Y-89520000D02*
X185637500Y-89520000D01*
X186900000Y-94300000D02*
X187300000Y-93900000D01*
%TO.N,Net-(JP1-B)*%
X114187500Y-66780000D02*
X114187500Y-67845000D01*
X114187500Y-67845000D02*
X112302500Y-69730000D01*
%TO.N,/CM4 GPIO/WiFi_Disable*%
X147600000Y-130700000D02*
X147153000Y-131147000D01*
X147600000Y-130700000D02*
X147750000Y-130550000D01*
X122343388Y-131147000D02*
X122051000Y-130854612D01*
X147153000Y-131147000D02*
X122343388Y-131147000D01*
X122051000Y-130854612D02*
X122051000Y-115636412D01*
X120714588Y-114300000D02*
X120700000Y-114300000D01*
X122051000Y-115636412D02*
X120714588Y-114300000D01*
%TO.N,/CM4 GPIO/SDA0*%
X133221388Y-72075000D02*
X133279612Y-72075000D01*
X170536000Y-71724000D02*
X169900000Y-71724000D01*
X133279612Y-72075000D02*
X133630612Y-71724000D01*
X120500000Y-106900000D02*
X119251000Y-105651000D01*
X169900000Y-71724000D02*
X149876000Y-71724000D01*
X179015000Y-63245000D02*
X170536000Y-71724000D01*
X133630612Y-71724000D02*
X149929612Y-71724000D01*
X119251000Y-101842939D02*
X119951000Y-101142939D01*
X119251000Y-105651000D02*
X119251000Y-101842939D01*
X119951000Y-85345388D02*
X133221388Y-72075000D01*
X119951000Y-101142939D02*
X119951000Y-85345388D01*
X120500000Y-107700000D02*
X120500000Y-106900000D01*
%TO.N,/CM4 GPIO/BT_Disable*%
X122198000Y-131498000D02*
X126900000Y-131498000D01*
X121700000Y-126300000D02*
X121700000Y-131000000D01*
X120700000Y-115100000D02*
X121700000Y-116100000D01*
X126900000Y-131498000D02*
X147398000Y-131498000D01*
X147398000Y-131498000D02*
X147600000Y-131700000D01*
X121700000Y-116100000D02*
X121700000Y-126300000D01*
X121700000Y-131000000D02*
X122198000Y-131498000D01*
%TO.N,/CM4 GPIO/nRPIBOOT*%
X120700000Y-116000000D02*
X121300000Y-116600000D01*
X121300000Y-116600000D02*
X121300000Y-131300000D01*
X121300000Y-131300000D02*
X121849000Y-131849000D01*
X146549000Y-131849000D02*
X146800000Y-132100000D01*
X121849000Y-131849000D02*
X122100000Y-131849000D01*
X122100000Y-131849000D02*
X146549000Y-131849000D01*
%TO.N,/CM4 GPIO/SCL0*%
X179015000Y-64515000D02*
X171455000Y-72075000D01*
X181900000Y-60400000D02*
X181900000Y-61630000D01*
X133776000Y-72075000D02*
X150075000Y-72075000D01*
X120302000Y-103798000D02*
X120302000Y-85549000D01*
X120302000Y-85549000D02*
X133776000Y-72075000D01*
X171455000Y-72075000D02*
X150075000Y-72075000D01*
X119900000Y-104200000D02*
X120302000Y-103798000D01*
X181900000Y-61630000D02*
X179015000Y-64515000D01*
%TO.N,/CM4 GPIO/EEPROM_nWP*%
X123300000Y-130200000D02*
X122446388Y-129346388D01*
X122446388Y-129346388D02*
X122446388Y-96546388D01*
X122446388Y-96546388D02*
X120900000Y-95000000D01*
X145600000Y-130572000D02*
X145228000Y-130200000D01*
X145228000Y-130200000D02*
X123300000Y-130200000D01*
%TD*%
%TA.AperFunction,Conductor*%
%TO.N,/Power Distribution/LV+*%
G36*
X171243039Y-58819685D02*
G01*
X171288794Y-58872489D01*
X171300000Y-58924000D01*
X171300000Y-62476000D01*
X171280315Y-62543039D01*
X171227511Y-62588794D01*
X171176000Y-62600000D01*
X166641406Y-62600000D01*
X166579406Y-62583387D01*
X166493188Y-62533609D01*
X166493187Y-62533608D01*
X166493186Y-62533608D01*
X166365892Y-62499500D01*
X166234108Y-62499500D01*
X166106814Y-62533608D01*
X166106813Y-62533608D01*
X166106811Y-62533609D01*
X166106810Y-62533609D01*
X166020594Y-62583387D01*
X165958594Y-62600000D01*
X154824000Y-62600000D01*
X154756961Y-62580315D01*
X154711206Y-62527511D01*
X154700000Y-62476000D01*
X154700000Y-61534108D01*
X155499500Y-61534108D01*
X155499500Y-61665891D01*
X155533608Y-61793187D01*
X155566554Y-61850250D01*
X155599500Y-61907314D01*
X155692686Y-62000500D01*
X155806814Y-62066392D01*
X155934108Y-62100500D01*
X155934110Y-62100500D01*
X156065890Y-62100500D01*
X156065892Y-62100500D01*
X156193186Y-62066392D01*
X156307314Y-62000500D01*
X156400500Y-61907314D01*
X156466392Y-61793186D01*
X156500500Y-61665892D01*
X156500500Y-61534108D01*
X156466392Y-61406814D01*
X156400500Y-61292686D01*
X156307314Y-61199500D01*
X156250250Y-61166554D01*
X156193187Y-61133608D01*
X156129539Y-61116554D01*
X156065892Y-61099500D01*
X155934108Y-61099500D01*
X155806812Y-61133608D01*
X155692686Y-61199500D01*
X155692683Y-61199502D01*
X155599502Y-61292683D01*
X155599500Y-61292686D01*
X155533608Y-61406812D01*
X155499500Y-61534108D01*
X154700000Y-61534108D01*
X154700000Y-60534108D01*
X161524500Y-60534108D01*
X161524500Y-60665892D01*
X161530424Y-60688000D01*
X161558608Y-60793187D01*
X161591554Y-60850250D01*
X161624500Y-60907314D01*
X161717686Y-61000500D01*
X161831814Y-61066392D01*
X161959108Y-61100500D01*
X161959110Y-61100500D01*
X162090890Y-61100500D01*
X162090892Y-61100500D01*
X162218186Y-61066392D01*
X162332314Y-61000500D01*
X162425500Y-60907314D01*
X162491392Y-60793186D01*
X162525500Y-60665892D01*
X162525500Y-60534108D01*
X162491392Y-60406814D01*
X162425500Y-60292686D01*
X162332314Y-60199500D01*
X162275250Y-60166554D01*
X162218187Y-60133608D01*
X162173401Y-60121608D01*
X164387000Y-60121608D01*
X164387000Y-60253391D01*
X164421108Y-60380687D01*
X164436192Y-60406812D01*
X164487000Y-60494814D01*
X164580186Y-60588000D01*
X164694314Y-60653892D01*
X164821608Y-60688000D01*
X164821610Y-60688000D01*
X164953390Y-60688000D01*
X164953392Y-60688000D01*
X165080686Y-60653892D01*
X165194814Y-60588000D01*
X165288000Y-60494814D01*
X165353892Y-60380686D01*
X165388000Y-60253392D01*
X165388000Y-60121608D01*
X165353892Y-59994314D01*
X165288000Y-59880186D01*
X165194814Y-59787000D01*
X165137750Y-59754054D01*
X165080687Y-59721108D01*
X165017039Y-59704054D01*
X164953392Y-59687000D01*
X164821608Y-59687000D01*
X164694312Y-59721108D01*
X164580186Y-59787000D01*
X164580183Y-59787002D01*
X164487002Y-59880183D01*
X164487000Y-59880186D01*
X164421108Y-59994312D01*
X164387000Y-60121608D01*
X162173401Y-60121608D01*
X162154539Y-60116554D01*
X162090892Y-60099500D01*
X161959108Y-60099500D01*
X161831812Y-60133608D01*
X161717686Y-60199500D01*
X161717683Y-60199502D01*
X161624502Y-60292683D01*
X161624500Y-60292686D01*
X161558608Y-60406812D01*
X161535029Y-60494813D01*
X161524500Y-60534108D01*
X154700000Y-60534108D01*
X154700000Y-58924000D01*
X154719685Y-58856961D01*
X154772489Y-58811206D01*
X154824000Y-58800000D01*
X171176000Y-58800000D01*
X171243039Y-58819685D01*
G37*
%TD.AperFunction*%
%TD*%
M02*
