%TF.GenerationSoftware,KiCad,Pcbnew,9.0.3*%
%TF.CreationDate,2025-09-11T19:41:32-05:00*%
%TF.ProjectId,PiBoard,5069426f-6172-4642-9e6b-696361645f70,rev?*%
%TF.SameCoordinates,Original*%
%TF.FileFunction,Soldermask,Top*%
%TF.FilePolarity,Negative*%
%FSLAX46Y46*%
G04 Gerber Fmt 4.6, Leading zero omitted, Abs format (unit mm)*
G04 Created by KiCad (PCBNEW 9.0.3) date 2025-09-11 19:41:32*
%MOMM*%
%LPD*%
G01*
G04 APERTURE LIST*
G04 Aperture macros list*
%AMRoundRect*
0 Rectangle with rounded corners*
0 $1 Rounding radius*
0 $2 $3 $4 $5 $6 $7 $8 $9 X,Y pos of 4 corners*
0 Add a 4 corners polygon primitive as box body*
4,1,4,$2,$3,$4,$5,$6,$7,$8,$9,$2,$3,0*
0 Add four circle primitives for the rounded corners*
1,1,$1+$1,$2,$3*
1,1,$1+$1,$4,$5*
1,1,$1+$1,$6,$7*
1,1,$1+$1,$8,$9*
0 Add four rect primitives between the rounded corners*
20,1,$1+$1,$2,$3,$4,$5,0*
20,1,$1+$1,$4,$5,$6,$7,0*
20,1,$1+$1,$6,$7,$8,$9,0*
20,1,$1+$1,$8,$9,$2,$3,0*%
%AMFreePoly0*
4,1,22,0.945671,0.830970,1.026777,0.776777,1.080970,0.695671,1.100000,0.600000,1.100000,-0.600000,1.080970,-0.695671,1.026777,-0.776777,0.945671,-0.830970,0.850000,-0.850000,-0.450000,-0.850000,-0.545671,-0.830970,-0.626777,-0.776777,-1.026777,-0.376777,-1.080970,-0.295671,-1.100000,-0.200000,-1.100000,0.600000,-1.080970,0.695671,-1.026777,0.776777,-0.945671,0.830970,-0.850000,0.850000,
0.850000,0.850000,0.945671,0.830970,0.945671,0.830970,$1*%
G04 Aperture macros list end*
%ADD10R,2.000000X2.000000*%
%ADD11RoundRect,0.200000X0.200000X0.275000X-0.200000X0.275000X-0.200000X-0.275000X0.200000X-0.275000X0*%
%ADD12RoundRect,0.225000X-0.250000X0.225000X-0.250000X-0.225000X0.250000X-0.225000X0.250000X0.225000X0*%
%ADD13C,0.650000*%
%ADD14RoundRect,0.150000X0.425000X-0.150000X0.425000X0.150000X-0.425000X0.150000X-0.425000X-0.150000X0*%
%ADD15RoundRect,0.075000X0.500000X-0.075000X0.500000X0.075000X-0.500000X0.075000X-0.500000X-0.075000X0*%
%ADD16O,2.100000X1.000000*%
%ADD17O,1.800000X1.000000*%
%ADD18RoundRect,0.218750X0.256250X-0.218750X0.256250X0.218750X-0.256250X0.218750X-0.256250X-0.218750X0*%
%ADD19R,1.700000X1.700000*%
%ADD20O,1.700000X1.700000*%
%ADD21C,6.100000*%
%ADD22R,0.700000X0.200000*%
%ADD23RoundRect,0.200000X0.275000X-0.200000X0.275000X0.200000X-0.275000X0.200000X-0.275000X-0.200000X0*%
%ADD24RoundRect,0.225000X-0.225000X-0.250000X0.225000X-0.250000X0.225000X0.250000X-0.225000X0.250000X0*%
%ADD25RoundRect,0.200000X-0.200000X-0.275000X0.200000X-0.275000X0.200000X0.275000X-0.200000X0.275000X0*%
%ADD26R,2.750000X1.000000*%
%ADD27R,1.200000X1.400000*%
%ADD28R,2.400000X1.900000*%
%ADD29R,0.450000X1.200000*%
%ADD30RoundRect,0.087500X-0.725000X-0.087500X0.725000X-0.087500X0.725000X0.087500X-0.725000X0.087500X0*%
%ADD31RoundRect,0.225000X0.250000X-0.225000X0.250000X0.225000X-0.250000X0.225000X-0.250000X-0.225000X0*%
%ADD32RoundRect,0.225000X0.225000X0.250000X-0.225000X0.250000X-0.225000X-0.250000X0.225000X-0.250000X0*%
%ADD33RoundRect,0.200000X-0.275000X0.200000X-0.275000X-0.200000X0.275000X-0.200000X0.275000X0.200000X0*%
%ADD34C,1.066800*%
%ADD35RoundRect,0.175000X-0.175000X0.325000X-0.175000X-0.325000X0.175000X-0.325000X0.175000X0.325000X0*%
%ADD36RoundRect,0.250000X0.250000X0.475000X-0.250000X0.475000X-0.250000X-0.475000X0.250000X-0.475000X0*%
%ADD37C,2.300000*%
%ADD38R,1.500000X1.500000*%
%ADD39C,1.500000*%
%ADD40C,4.185000*%
%ADD41C,2.660000*%
%ADD42C,4.455000*%
%ADD43C,3.000000*%
%ADD44RoundRect,0.250000X0.700000X-0.275000X0.700000X0.275000X-0.700000X0.275000X-0.700000X-0.275000X0*%
%ADD45R,0.565000X0.200000*%
%ADD46R,0.565000X0.400000*%
%ADD47RoundRect,0.150000X-0.587500X-0.150000X0.587500X-0.150000X0.587500X0.150000X-0.587500X0.150000X0*%
%ADD48RoundRect,0.250000X0.262500X0.450000X-0.262500X0.450000X-0.262500X-0.450000X0.262500X-0.450000X0*%
%ADD49R,0.650000X1.500000*%
%ADD50R,3.350000X2.710000*%
%ADD51C,1.300000*%
%ADD52FreePoly0,90.000000*%
%ADD53O,1.700000X2.200000*%
%ADD54R,1.200000X0.600000*%
%ADD55RoundRect,0.250000X-0.450000X0.262500X-0.450000X-0.262500X0.450000X-0.262500X0.450000X0.262500X0*%
%ADD56R,0.600000X1.200000*%
%ADD57RoundRect,0.100000X-0.637500X-0.100000X0.637500X-0.100000X0.637500X0.100000X-0.637500X0.100000X0*%
%ADD58RoundRect,0.218750X-0.218750X-0.256250X0.218750X-0.256250X0.218750X0.256250X-0.218750X0.256250X0*%
%ADD59C,1.100000*%
%ADD60R,1.730000X2.030000*%
%ADD61O,1.730000X2.030000*%
%ADD62RoundRect,0.218750X-0.256250X0.218750X-0.256250X-0.218750X0.256250X-0.218750X0.256250X0.218750X0*%
%ADD63R,0.400000X1.000000*%
%ADD64R,3.350000X4.700000*%
%ADD65R,1.970000X1.670000*%
%ADD66R,0.550000X0.300000*%
%ADD67R,0.550000X0.400000*%
%ADD68RoundRect,0.250000X-0.475000X0.250000X-0.475000X-0.250000X0.475000X-0.250000X0.475000X0.250000X0*%
%ADD69RoundRect,0.218750X0.218750X0.256250X-0.218750X0.256250X-0.218750X-0.256250X0.218750X-0.256250X0*%
%ADD70RoundRect,0.100000X-0.712500X-0.100000X0.712500X-0.100000X0.712500X0.100000X-0.712500X0.100000X0*%
%ADD71R,0.830000X0.400000*%
%ADD72R,0.620000X0.400000*%
%ADD73R,1.850000X2.250000*%
%ADD74R,0.130000X0.050000*%
%ADD75R,1.000000X0.500000*%
%ADD76RoundRect,0.150000X0.825000X0.150000X-0.825000X0.150000X-0.825000X-0.150000X0.825000X-0.150000X0*%
%ADD77R,0.600000X0.350000*%
%ADD78R,1.100000X1.700000*%
G04 APERTURE END LIST*
D10*
%TO.C,TP2*%
X105000000Y-132200000D03*
%TD*%
D11*
%TO.C,R100*%
X170087500Y-61687500D03*
X168437500Y-61687500D03*
%TD*%
D12*
%TO.C,C9*%
X131000000Y-59825000D03*
X131000000Y-61375000D03*
%TD*%
%TO.C,C4*%
X182000000Y-84050000D03*
X182000000Y-85600000D03*
%TD*%
D11*
%TO.C,R44*%
X162025000Y-69000000D03*
X160375000Y-69000000D03*
%TD*%
D13*
%TO.C,J5*%
X185495000Y-81890000D03*
X185495000Y-76110000D03*
D14*
X184420000Y-82200000D03*
X184420000Y-81400000D03*
D15*
X184420000Y-80250000D03*
X184420000Y-79250000D03*
X184420000Y-78750000D03*
X184420000Y-77750000D03*
D14*
X184420000Y-76600000D03*
X184420000Y-75800000D03*
X184420000Y-75800000D03*
X184420000Y-76600000D03*
D15*
X184420000Y-77250000D03*
X184420000Y-78250000D03*
X184420000Y-79750000D03*
X184420000Y-80750000D03*
D14*
X184420000Y-81400000D03*
X184420000Y-82200000D03*
D16*
X184995000Y-83320000D03*
D17*
X189175000Y-83320000D03*
D16*
X184995000Y-74680000D03*
D17*
X189175000Y-74680000D03*
%TD*%
D18*
%TO.C,D2*%
X110250000Y-134565000D03*
X110250000Y-132990000D03*
%TD*%
D12*
%TO.C,C6*%
X145665000Y-66260000D03*
X145665000Y-67810000D03*
%TD*%
D19*
%TO.C,J3*%
X105464466Y-123994466D03*
D20*
X108004466Y-123994466D03*
X105464466Y-121454466D03*
X108004466Y-121454466D03*
X105464466Y-118914466D03*
X108004466Y-118914466D03*
X105464466Y-116374466D03*
X108004466Y-116374466D03*
X105464466Y-113834466D03*
X108004466Y-113834466D03*
X105464466Y-111294466D03*
X108004466Y-111294466D03*
X105464466Y-108754466D03*
X108004466Y-108754466D03*
X105464466Y-106214466D03*
X108004466Y-106214466D03*
X105464466Y-103674466D03*
X108004466Y-103674466D03*
X105464466Y-101134466D03*
X108004466Y-101134466D03*
X105464466Y-98594466D03*
X108004466Y-98594466D03*
X105464466Y-96054466D03*
X108004466Y-96054466D03*
X105464466Y-93514466D03*
X108004466Y-93514466D03*
X105464466Y-90974466D03*
X108004466Y-90974466D03*
X105464466Y-88434466D03*
X108004466Y-88434466D03*
X105464466Y-85894466D03*
X108004466Y-85894466D03*
X105464466Y-83354466D03*
X108004466Y-83354466D03*
X105464466Y-80814466D03*
X108004466Y-80814466D03*
X105464466Y-78274466D03*
X108004466Y-78274466D03*
X105464466Y-75734466D03*
X108004466Y-75734466D03*
%TD*%
D21*
%TO.C,Module1*%
X114444466Y-75514466D03*
X114444466Y-123514466D03*
X147444466Y-75514466D03*
X147444466Y-123514466D03*
D22*
X112444466Y-92214466D03*
X115524466Y-92214466D03*
X112444466Y-92614466D03*
X115524466Y-92614466D03*
X112444466Y-93014466D03*
X115524466Y-93014466D03*
X112444466Y-93414466D03*
X115524466Y-93414466D03*
X112444466Y-93814466D03*
X115524466Y-93814466D03*
X112444466Y-94214466D03*
X115524466Y-94214466D03*
X112444466Y-94614466D03*
X115524466Y-94614466D03*
X112444466Y-95014466D03*
X115524466Y-95014466D03*
X112444466Y-95414466D03*
X115524466Y-95414466D03*
X112444466Y-95814466D03*
X115524466Y-95814466D03*
X112444466Y-96214466D03*
X115524466Y-96214466D03*
X112444466Y-96614466D03*
X115524466Y-96614466D03*
X112444466Y-97014466D03*
X115524466Y-97014466D03*
X112444466Y-97414466D03*
X115524466Y-97414466D03*
X112444466Y-97814466D03*
X115524466Y-97814466D03*
X112444466Y-98214466D03*
X115524466Y-98214466D03*
X112444466Y-98614466D03*
X115524466Y-98614466D03*
X112444466Y-99014466D03*
X115524466Y-99014466D03*
X112444466Y-99414466D03*
X115524466Y-99414466D03*
X112444466Y-99814466D03*
X115524466Y-99814466D03*
X112444466Y-100214466D03*
X115524466Y-100214466D03*
X112444466Y-100614466D03*
X115524466Y-100614466D03*
X112444466Y-101014466D03*
X115524466Y-101014466D03*
X112444466Y-101414466D03*
X115524466Y-101414466D03*
X112444466Y-101814466D03*
X115524466Y-101814466D03*
X112444466Y-102214466D03*
X115524466Y-102214466D03*
X112444466Y-102614466D03*
X115524466Y-102614466D03*
X112444466Y-103014466D03*
X115524466Y-103014466D03*
X112444466Y-103414466D03*
X115524466Y-103414466D03*
X112444466Y-103814466D03*
X115524466Y-103814466D03*
X112444466Y-104214466D03*
X115524466Y-104214466D03*
X112444466Y-104614466D03*
X115524466Y-104614466D03*
X112444466Y-105014466D03*
X115524466Y-105014466D03*
X112444466Y-105414466D03*
X115524466Y-105414466D03*
X112444466Y-105814466D03*
X115524466Y-105814466D03*
X112444466Y-106214466D03*
X115524466Y-106214466D03*
X112444466Y-106614466D03*
X115524466Y-106614466D03*
X112444466Y-107014466D03*
X115524466Y-107014466D03*
X112444466Y-107414466D03*
X115524466Y-107414466D03*
X112444466Y-107814466D03*
X115524466Y-107814466D03*
X112444466Y-108214466D03*
X115524466Y-108214466D03*
X112444466Y-108614466D03*
X115524466Y-108614466D03*
X112444466Y-109014466D03*
X115524466Y-109014466D03*
X112444466Y-109414466D03*
X115524466Y-109414466D03*
X112444466Y-109814466D03*
X115524466Y-109814466D03*
X112444466Y-110214466D03*
X115524466Y-110214466D03*
X112444466Y-110614466D03*
X115524466Y-110614466D03*
X112444466Y-111014466D03*
X115524466Y-111014466D03*
X112444466Y-111414466D03*
X115524466Y-111414466D03*
X112444466Y-111814466D03*
X115524466Y-111814466D03*
X146364466Y-92214466D03*
X149444466Y-92214466D03*
X146364466Y-92614466D03*
X149444466Y-92614466D03*
X146364466Y-93014466D03*
X149444466Y-93014466D03*
X146364466Y-93414466D03*
X149444466Y-93414466D03*
X146364466Y-93814466D03*
X149444466Y-93814466D03*
X146364466Y-94214466D03*
X149444466Y-94214466D03*
X146364466Y-94614466D03*
X149444466Y-94614466D03*
X146364466Y-95014466D03*
X149444466Y-95014466D03*
X146364466Y-95414466D03*
X149444466Y-95414466D03*
X146364466Y-95814466D03*
X149444466Y-95814466D03*
X146364466Y-96214466D03*
X149444466Y-96214466D03*
X146364466Y-96614466D03*
X149444466Y-96614466D03*
X146364466Y-97014466D03*
X149444466Y-97014466D03*
X146364466Y-97414466D03*
X149444466Y-97414466D03*
X146364466Y-97814466D03*
X149444466Y-97814466D03*
X146364466Y-98214466D03*
X149444466Y-98214466D03*
X146364466Y-98614466D03*
X149444466Y-98614466D03*
X146364466Y-99014466D03*
X149444466Y-99014466D03*
X146364466Y-99414466D03*
X149444466Y-99414466D03*
X146364466Y-99814466D03*
X149444466Y-99814466D03*
X146364466Y-100214466D03*
X149444466Y-100214466D03*
X146364466Y-100614466D03*
X149444466Y-100614466D03*
X146364466Y-101014466D03*
X149444466Y-101014466D03*
X146364466Y-101414466D03*
X149444466Y-101414466D03*
X146364466Y-101814466D03*
X149444466Y-101814466D03*
X146364466Y-102214466D03*
X149444466Y-102214466D03*
X146364466Y-102614466D03*
X149444466Y-102614466D03*
X146364466Y-103014466D03*
X149444466Y-103014466D03*
X146364466Y-103414466D03*
X149444466Y-103414466D03*
X146364466Y-103814466D03*
X149444466Y-103814466D03*
X146364466Y-104214466D03*
X149444466Y-104214466D03*
X146364466Y-104614466D03*
X149444466Y-104614466D03*
X146364466Y-105014466D03*
X149444466Y-105014466D03*
X146364466Y-105414466D03*
X149444466Y-105414466D03*
X146364466Y-105814466D03*
X149444466Y-105814466D03*
X146364466Y-106214466D03*
X149444466Y-106214466D03*
X146364466Y-106614466D03*
X149444466Y-106614466D03*
X146364466Y-107014466D03*
X149444466Y-107014466D03*
X146364466Y-107414466D03*
X149444466Y-107414466D03*
X146364466Y-107814466D03*
X149444466Y-107814466D03*
X146364466Y-108214466D03*
X149444466Y-108214466D03*
X146364466Y-108614466D03*
X149444466Y-108614466D03*
X146364466Y-109014466D03*
X149444466Y-109014466D03*
X146364466Y-109414466D03*
X149444466Y-109414466D03*
X146364466Y-109814466D03*
X149444466Y-109814466D03*
X146364466Y-110214466D03*
X149444466Y-110214466D03*
X146364466Y-110614466D03*
X149444466Y-110614466D03*
X146364466Y-111014466D03*
X149444466Y-111014466D03*
X146364466Y-111414466D03*
X149444466Y-111414466D03*
X146364466Y-111814466D03*
X149444466Y-111814466D03*
%TD*%
D23*
%TO.C,R1*%
X112000000Y-131325000D03*
X112000000Y-129675000D03*
%TD*%
D24*
%TO.C,C28*%
X172350000Y-96450000D03*
X173900000Y-96450000D03*
%TD*%
D25*
%TO.C,R45*%
X135850000Y-54100000D03*
X137500000Y-54100000D03*
%TD*%
D26*
%TO.C,SW1*%
X143770000Y-139470000D03*
X138020000Y-139470000D03*
X143770000Y-135470000D03*
X138020000Y-135470000D03*
%TD*%
D27*
%TO.C,S2*%
X149200000Y-139160000D03*
X151700000Y-139160000D03*
X154200000Y-139160000D03*
X149200000Y-134760000D03*
X151700000Y-134760000D03*
X154200000Y-134760000D03*
%TD*%
D28*
%TO.C,Y4*%
X117662500Y-62542500D03*
X117662500Y-66642500D03*
%TD*%
D29*
%TO.C,IC3*%
X165012500Y-64337500D03*
X165662500Y-64337500D03*
X166312500Y-64337500D03*
X166962500Y-64337500D03*
X166962500Y-61837500D03*
X166312500Y-61837500D03*
X165662500Y-61837500D03*
X165012500Y-61837500D03*
%TD*%
D11*
%TO.C,R23*%
X134755000Y-132970000D03*
X133105000Y-132970000D03*
%TD*%
D30*
%TO.C,U3*%
X160587500Y-85400000D03*
X160587500Y-85900000D03*
X160587500Y-86400000D03*
X160587500Y-86900000D03*
X160587500Y-87400000D03*
X164812500Y-87400000D03*
X164812500Y-86900000D03*
X164812500Y-86400000D03*
X164812500Y-85900000D03*
X164812500Y-85400000D03*
%TD*%
D31*
%TO.C,C26*%
X156000000Y-61600000D03*
X156000000Y-60050000D03*
%TD*%
D11*
%TO.C,R26*%
X118687500Y-107075000D03*
X117037500Y-107075000D03*
%TD*%
D31*
%TO.C,C36*%
X127262500Y-58267500D03*
X127262500Y-56717500D03*
%TD*%
D23*
%TO.C,R34*%
X128862500Y-60217500D03*
X128862500Y-58567500D03*
%TD*%
D32*
%TO.C,C19*%
X170037500Y-64787500D03*
X168487500Y-64787500D03*
%TD*%
D10*
%TO.C,TP4*%
X125400000Y-128500000D03*
%TD*%
D33*
%TO.C,R10*%
X181975000Y-75150000D03*
X181975000Y-76800000D03*
%TD*%
D11*
%TO.C,R8*%
X170550000Y-102300000D03*
X168900000Y-102300000D03*
%TD*%
D32*
%TO.C,C16*%
X185575000Y-72875000D03*
X184025000Y-72875000D03*
%TD*%
D33*
%TO.C,R3*%
X158600000Y-85575000D03*
X158600000Y-87225000D03*
%TD*%
D34*
%TO.C,J12*%
X176100000Y-63330000D03*
X176100000Y-62080000D03*
%TD*%
D32*
%TO.C,C23*%
X118650000Y-132970000D03*
X117100000Y-132970000D03*
%TD*%
D25*
%TO.C,R33*%
X172200000Y-100850000D03*
X173850000Y-100850000D03*
%TD*%
D35*
%TO.C,U13*%
X112187500Y-64530000D03*
X110287500Y-64530000D03*
X111237500Y-66930000D03*
%TD*%
D36*
%TO.C,C29*%
X156400000Y-125200000D03*
X154500000Y-125200000D03*
%TD*%
D32*
%TO.C,C5*%
X143075000Y-66800000D03*
X141525000Y-66800000D03*
%TD*%
D23*
%TO.C,R5*%
X173325000Y-85500000D03*
X173325000Y-83850000D03*
%TD*%
D32*
%TO.C,C24*%
X122637500Y-66892500D03*
X121087500Y-66892500D03*
%TD*%
D13*
%TO.C,J4*%
X185485000Y-98590000D03*
X185485000Y-92810000D03*
D14*
X184410000Y-98900000D03*
X184410000Y-98100000D03*
D15*
X184410000Y-96950000D03*
X184410000Y-95950000D03*
X184410000Y-95450000D03*
X184410000Y-94450000D03*
D14*
X184410000Y-93300000D03*
X184410000Y-92500000D03*
X184410000Y-92500000D03*
X184410000Y-93300000D03*
D15*
X184410000Y-93950000D03*
X184410000Y-94950000D03*
X184410000Y-96450000D03*
X184410000Y-97450000D03*
D14*
X184410000Y-98100000D03*
X184410000Y-98900000D03*
D16*
X184985000Y-100020000D03*
D17*
X189165000Y-100020000D03*
D16*
X184985000Y-91380000D03*
D17*
X189165000Y-91380000D03*
%TD*%
D31*
%TO.C,C37*%
X125650000Y-58267500D03*
X125650000Y-56717500D03*
%TD*%
D11*
%TO.C,R13*%
X166537500Y-60187500D03*
X164887500Y-60187500D03*
%TD*%
D32*
%TO.C,C59*%
X144542500Y-54085000D03*
X142992500Y-54085000D03*
%TD*%
D12*
%TO.C,C12*%
X182050000Y-98075000D03*
X182050000Y-99625000D03*
%TD*%
%TO.C,C56*%
X151765000Y-63935000D03*
X151765000Y-65485000D03*
%TD*%
D11*
%TO.C,R18*%
X144745000Y-132970000D03*
X143095000Y-132970000D03*
%TD*%
D32*
%TO.C,C60*%
X148265000Y-56135000D03*
X146715000Y-56135000D03*
%TD*%
D37*
%TO.C,J9*%
X181700000Y-124200000D03*
X181700000Y-112200000D03*
D38*
X162150000Y-111450000D03*
D39*
X164150000Y-112575000D03*
X162150000Y-113700000D03*
X166150000Y-113700000D03*
X164150000Y-114825000D03*
X166150000Y-115950000D03*
X162150000Y-115950000D03*
X164150000Y-117075000D03*
X162150000Y-118200000D03*
X166150000Y-118200000D03*
X164150000Y-119325000D03*
X166150000Y-120450000D03*
X162150000Y-120450000D03*
X164150000Y-121575000D03*
X162150000Y-122700000D03*
X166150000Y-122700000D03*
X164150000Y-123825000D03*
X166150000Y-124950000D03*
X162150000Y-124950000D03*
D40*
X164150000Y-106750000D03*
X164150000Y-129650000D03*
D41*
X168150000Y-112575000D03*
X168150000Y-123825000D03*
D42*
X174350000Y-106750000D03*
X174350000Y-129650000D03*
D40*
X181350000Y-106750000D03*
X181350000Y-129650000D03*
%TD*%
D43*
%TO.C,H4*%
X187600000Y-139100000D03*
%TD*%
D32*
%TO.C,C25*%
X122637500Y-68492500D03*
X121087500Y-68492500D03*
%TD*%
D44*
%TO.C,FB1*%
X179650000Y-87225000D03*
X179650000Y-84075000D03*
%TD*%
D45*
%TO.C,D8*%
X155483000Y-110600000D03*
X155483000Y-111100000D03*
D46*
X155483000Y-111600000D03*
D45*
X155483000Y-112100000D03*
X155483000Y-112600000D03*
X156317000Y-112600000D03*
X156317000Y-112100000D03*
D46*
X156317000Y-111600000D03*
D45*
X156317000Y-111100000D03*
X156317000Y-110600000D03*
%TD*%
D25*
%TO.C,R19*%
X120075000Y-132970000D03*
X121725000Y-132970000D03*
%TD*%
%TO.C,R38*%
X183987500Y-89520000D03*
X185637500Y-89520000D03*
%TD*%
D11*
%TO.C,R37*%
X184525000Y-101900000D03*
X182875000Y-101900000D03*
%TD*%
D25*
%TO.C,R22*%
X130075000Y-132970000D03*
X131725000Y-132970000D03*
%TD*%
D47*
%TO.C,D6*%
X174815000Y-66100000D03*
X174815000Y-68000000D03*
X176690000Y-67050000D03*
%TD*%
D32*
%TO.C,C51*%
X128650000Y-132970000D03*
X127100000Y-132970000D03*
%TD*%
D33*
%TO.C,R9*%
X181975000Y-80975000D03*
X181975000Y-82625000D03*
%TD*%
D48*
%TO.C,R30*%
X148377500Y-54035000D03*
X146552500Y-54035000D03*
%TD*%
D49*
%TO.C,IC4*%
X145560000Y-63885000D03*
X146830000Y-63885000D03*
X148100000Y-63885000D03*
X149370000Y-63885000D03*
X149370000Y-58485000D03*
X148100000Y-58485000D03*
X146830000Y-58485000D03*
X145560000Y-58485000D03*
D50*
X147465000Y-61185000D03*
%TD*%
D33*
%TO.C,R25*%
X113700000Y-129675000D03*
X113700000Y-131325000D03*
%TD*%
D23*
%TO.C,R28*%
X158300000Y-130100000D03*
X158300000Y-128450000D03*
%TD*%
D45*
%TO.C,D10*%
X156334000Y-117300000D03*
X156334000Y-116800000D03*
D46*
X156334000Y-116300000D03*
D45*
X156334000Y-115800000D03*
X156334000Y-115300000D03*
X155500000Y-115300000D03*
X155500000Y-115800000D03*
D46*
X155500000Y-116300000D03*
D45*
X155500000Y-116800000D03*
X155500000Y-117300000D03*
%TD*%
D51*
%TO.C,J6*%
X112750000Y-55040000D03*
D52*
X111500000Y-53700000D03*
D53*
X114000000Y-53700000D03*
%TD*%
D32*
%TO.C,C17*%
X185575000Y-85175000D03*
X184025000Y-85175000D03*
%TD*%
D11*
%TO.C,R14*%
X169637500Y-60187500D03*
X167987500Y-60187500D03*
%TD*%
D45*
%TO.C,D18*%
X179066000Y-78300000D03*
X179066000Y-78800000D03*
D46*
X179066000Y-79300000D03*
D45*
X179066000Y-79800000D03*
X179066000Y-80300000D03*
X179900000Y-80300000D03*
X179900000Y-79800000D03*
D46*
X179900000Y-79300000D03*
D45*
X179900000Y-78800000D03*
X179900000Y-78300000D03*
%TD*%
D12*
%TO.C,C7*%
X149317500Y-66260000D03*
X149317500Y-67810000D03*
%TD*%
D29*
%TO.C,IC1*%
X110287500Y-62505000D03*
X110937500Y-62505000D03*
X111587500Y-62505000D03*
X112237500Y-62505000D03*
X112237500Y-60005000D03*
X111587500Y-60005000D03*
X110937500Y-60005000D03*
X110287500Y-60005000D03*
%TD*%
D25*
%TO.C,R12*%
X189075000Y-85175000D03*
X190725000Y-85175000D03*
%TD*%
D33*
%TO.C,R2*%
X106287500Y-61405000D03*
X106287500Y-63055000D03*
%TD*%
D32*
%TO.C,C2*%
X176737500Y-80850000D03*
X175187500Y-80850000D03*
%TD*%
D11*
%TO.C,R4*%
X108700000Y-134600000D03*
X107050000Y-134600000D03*
%TD*%
D31*
%TO.C,C11*%
X114187500Y-63305000D03*
X114187500Y-61755000D03*
%TD*%
D11*
%TO.C,R6*%
X177425000Y-87300000D03*
X175775000Y-87300000D03*
%TD*%
D18*
%TO.C,D4*%
X108287500Y-64592500D03*
X108287500Y-63017500D03*
%TD*%
D54*
%TO.C,IC6*%
X153950000Y-128325000D03*
X153950000Y-129275000D03*
X153950000Y-130225000D03*
X156450000Y-130225000D03*
X156450000Y-129275000D03*
X156450000Y-128325000D03*
%TD*%
D43*
%TO.C,H2*%
X187400000Y-55500000D03*
%TD*%
D24*
%TO.C,C20*%
X178490000Y-68750000D03*
X180040000Y-68750000D03*
%TD*%
D55*
%TO.C,R32*%
X151765000Y-60497500D03*
X151765000Y-62322500D03*
%TD*%
D56*
%TO.C,IC2*%
X177225000Y-82800000D03*
X176275000Y-82800000D03*
X175325000Y-82800000D03*
X175325000Y-85300000D03*
X176275000Y-85300000D03*
X177225000Y-85300000D03*
%TD*%
D57*
%TO.C,U14*%
X121287500Y-59667500D03*
X121287500Y-60317500D03*
X121287500Y-60967500D03*
X121287500Y-61617500D03*
X121287500Y-62267500D03*
X121287500Y-62917500D03*
X121287500Y-63567500D03*
X121287500Y-64217500D03*
X121287500Y-64867500D03*
X121287500Y-65517500D03*
X127012500Y-65517500D03*
X127012500Y-64867500D03*
X127012500Y-64217500D03*
X127012500Y-63567500D03*
X127012500Y-62917500D03*
X127012500Y-62267500D03*
X127012500Y-61617500D03*
X127012500Y-60967500D03*
X127012500Y-60317500D03*
X127012500Y-59667500D03*
%TD*%
D58*
%TO.C,D11*%
X165737500Y-102300000D03*
X167312500Y-102300000D03*
%TD*%
D44*
%TO.C,FB2*%
X179700000Y-101250000D03*
X179700000Y-98100000D03*
%TD*%
D11*
%TO.C,R29*%
X118675000Y-109075000D03*
X117025000Y-109075000D03*
%TD*%
%TO.C,R7*%
X179837500Y-90000000D03*
X178187500Y-90000000D03*
%TD*%
D59*
%TO.C,J7*%
X179840000Y-52340000D03*
D60*
X174760000Y-54500000D03*
D61*
X177300000Y-54500000D03*
X179840000Y-54500000D03*
X182380000Y-54500000D03*
%TD*%
D32*
%TO.C,C1*%
X174125000Y-87300000D03*
X172575000Y-87300000D03*
%TD*%
D10*
%TO.C,TP1*%
X112700000Y-133600000D03*
%TD*%
D12*
%TO.C,C14*%
X177175000Y-98125000D03*
X177175000Y-99675000D03*
%TD*%
D31*
%TO.C,C61*%
X131000000Y-58275000D03*
X131000000Y-56725000D03*
%TD*%
D25*
%TO.C,R27*%
X150475000Y-129275000D03*
X152125000Y-129275000D03*
%TD*%
D11*
%TO.C,R11*%
X190650000Y-101900000D03*
X189000000Y-101900000D03*
%TD*%
D43*
%TO.C,H1*%
X106000000Y-55600000D03*
%TD*%
D32*
%TO.C,C43*%
X152075000Y-127500000D03*
X150525000Y-127500000D03*
%TD*%
%TO.C,C22*%
X138645000Y-132970000D03*
X137095000Y-132970000D03*
%TD*%
D62*
%TO.C,D5*%
X115400000Y-129712500D03*
X115400000Y-131287500D03*
%TD*%
D63*
%TO.C,IC5*%
X108650000Y-130990000D03*
X108000000Y-130990000D03*
X107350000Y-130990000D03*
X107350000Y-132990000D03*
X108650000Y-132990000D03*
%TD*%
D64*
%TO.C,L2*%
X142650000Y-60500000D03*
X133750000Y-60500000D03*
%TD*%
D27*
%TO.C,S1*%
X160710000Y-139160000D03*
X163210000Y-139160000D03*
X165710000Y-139160000D03*
X160710000Y-134760000D03*
X163210000Y-134760000D03*
X165710000Y-134760000D03*
%TD*%
D65*
%TO.C,Z2*%
X157975000Y-60600000D03*
X162025000Y-60600000D03*
%TD*%
D66*
%TO.C,D12*%
X155500000Y-120300000D03*
X155500000Y-120800000D03*
D67*
X155500000Y-121300000D03*
D66*
X155500000Y-121800000D03*
X155500000Y-122300000D03*
X156270000Y-122300000D03*
X156270000Y-121800000D03*
D67*
X156270000Y-121300000D03*
D66*
X156270000Y-120800000D03*
X156270000Y-120300000D03*
%TD*%
D12*
%TO.C,C27*%
X163400000Y-65375000D03*
X163400000Y-66925000D03*
%TD*%
D68*
%TO.C,C58*%
X147465000Y-66285000D03*
X147465000Y-68185000D03*
%TD*%
D23*
%TO.C,R24*%
X114187500Y-66780000D03*
X114187500Y-65130000D03*
%TD*%
D18*
%TO.C,D1*%
X110300000Y-131287500D03*
X110300000Y-129712500D03*
%TD*%
D69*
%TO.C,D7*%
X140575000Y-54100000D03*
X139000000Y-54100000D03*
%TD*%
D58*
%TO.C,D9*%
X157225000Y-69000000D03*
X158800000Y-69000000D03*
%TD*%
D65*
%TO.C,Z1*%
X165387500Y-67287500D03*
X169437500Y-67287500D03*
%TD*%
D11*
%TO.C,R16*%
X187875000Y-60730000D03*
X186225000Y-60730000D03*
%TD*%
D24*
%TO.C,C13*%
X189125000Y-89600000D03*
X190675000Y-89600000D03*
%TD*%
D58*
%TO.C,D3*%
X174925000Y-90000000D03*
X176500000Y-90000000D03*
%TD*%
D32*
%TO.C,C10*%
X180475000Y-82500000D03*
X178925000Y-82500000D03*
%TD*%
D43*
%TO.C,H3*%
X106000000Y-139700000D03*
%TD*%
D10*
%TO.C,TP3*%
X138400000Y-69700000D03*
%TD*%
D25*
%TO.C,R17*%
X140070000Y-132970000D03*
X141720000Y-132970000D03*
%TD*%
D70*
%TO.C,U10*%
X180200000Y-59397500D03*
X180200000Y-60047500D03*
X180200000Y-60697500D03*
X180200000Y-61347500D03*
X184425000Y-61347500D03*
X184425000Y-60697500D03*
X184425000Y-60047500D03*
X184425000Y-59397500D03*
%TD*%
D51*
%TO.C,J8*%
X121700000Y-55032500D03*
D52*
X120450000Y-53692500D03*
D53*
X122950000Y-53692500D03*
%TD*%
D23*
%TO.C,R20*%
X175575000Y-99725000D03*
X175575000Y-98075000D03*
%TD*%
D45*
%TO.C,D15*%
X180316000Y-93650000D03*
X180316000Y-94150000D03*
D46*
X180316000Y-94650000D03*
D45*
X180316000Y-95150000D03*
X180316000Y-95650000D03*
X181150000Y-95650000D03*
X181150000Y-95150000D03*
D46*
X181150000Y-94650000D03*
D45*
X181150000Y-94150000D03*
X181150000Y-93650000D03*
%TD*%
D32*
%TO.C,C3*%
X152050000Y-131100000D03*
X150500000Y-131100000D03*
%TD*%
D26*
%TO.C,SW2*%
X123775000Y-139470000D03*
X118025000Y-139470000D03*
X123775000Y-135470000D03*
X118025000Y-135470000D03*
%TD*%
%TO.C,SW3*%
X133775000Y-139470000D03*
X128025000Y-139470000D03*
X133775000Y-135470000D03*
X128025000Y-135470000D03*
%TD*%
D51*
%TO.C,J2*%
X167312500Y-55097500D03*
D52*
X166062500Y-53757500D03*
D53*
X168562500Y-53757500D03*
%TD*%
D12*
%TO.C,C21*%
X178312500Y-59897500D03*
X178312500Y-61447500D03*
%TD*%
D19*
%TO.C,JP1*%
X109762500Y-69730000D03*
D20*
X112302500Y-69730000D03*
%TD*%
D71*
%TO.C,Q1*%
X158100000Y-64075000D03*
X158100000Y-64725000D03*
X158100000Y-65375000D03*
X158100000Y-66025000D03*
D72*
X161275000Y-66025000D03*
X161275000Y-65375000D03*
X161275000Y-64725000D03*
X161275000Y-64075000D03*
D73*
X160040000Y-65050000D03*
D74*
X160900000Y-66200000D03*
X160900000Y-63900000D03*
%TD*%
D75*
%TO.C,Y6*%
X186740000Y-66950000D03*
X186740000Y-65850000D03*
%TD*%
D23*
%TO.C,R35*%
X108287500Y-61505000D03*
X108287500Y-59855000D03*
%TD*%
D76*
%TO.C,U1*%
X183965000Y-67055000D03*
X183965000Y-65785000D03*
X183965000Y-64515000D03*
X183965000Y-63245000D03*
X179015000Y-63245000D03*
X179015000Y-64515000D03*
X179015000Y-65785000D03*
X179015000Y-67055000D03*
%TD*%
D24*
%TO.C,C18*%
X168487500Y-63237500D03*
X170037500Y-63237500D03*
%TD*%
D77*
%TO.C,IC8*%
X172025000Y-98050000D03*
X172025000Y-98700000D03*
X172025000Y-99350000D03*
X174125000Y-99350000D03*
X174125000Y-98700000D03*
X174125000Y-98050000D03*
D78*
X173075000Y-98700000D03*
%TD*%
D55*
%TO.C,R31*%
X151765000Y-56997500D03*
X151765000Y-58822500D03*
%TD*%
D12*
%TO.C,C8*%
X131000000Y-62925000D03*
X131000000Y-64475000D03*
%TD*%
D11*
%TO.C,R21*%
X124750000Y-132970000D03*
X123100000Y-132970000D03*
%TD*%
D51*
%TO.C,J1*%
X160062500Y-55097500D03*
D52*
X158812500Y-53757500D03*
D53*
X161312500Y-53757500D03*
%TD*%
D25*
%TO.C,R15*%
X169075000Y-99350000D03*
X170725000Y-99350000D03*
%TD*%
D24*
%TO.C,C15*%
X185975000Y-101900000D03*
X187525000Y-101900000D03*
%TD*%
M02*
