%TF.GenerationSoftware,KiCad,Pcbnew,9.0.3*%
%TF.CreationDate,2025-12-05T18:13:58-06:00*%
%TF.ProjectId,PiBoard,5069426f-6172-4642-9e6b-696361645f70,rev?*%
%TF.SameCoordinates,Original*%
%TF.FileFunction,Profile,NP*%
%FSLAX46Y46*%
G04 Gerber Fmt 4.6, Leading zero omitted, Abs format (unit mm)*
G04 Created by KiCad (PCBNEW 9.0.3) date 2025-12-05 18:13:58*
%MOMM*%
%LPD*%
G01*
G04 APERTURE LIST*
%TA.AperFunction,Profile*%
%ADD10C,0.050000*%
%TD*%
%ADD11C,0.050000*%
G04 APERTURE END LIST*
D10*
X124850000Y-157875000D02*
X132875000Y-151150000D01*
D11*
X134100000Y-148675000D02*
X134099960Y-148689337D01*
X134099840Y-148703680D01*
X134099641Y-148718029D01*
X134099361Y-148732384D01*
X134099002Y-148746744D01*
X134098562Y-148761111D01*
X134098043Y-148775484D01*
X134097443Y-148789863D01*
X134096763Y-148804249D01*
X134096003Y-148818641D01*
X134095163Y-148833040D01*
X134094242Y-148847446D01*
X134093241Y-148861858D01*
X134092159Y-148876277D01*
X134090997Y-148890704D01*
X134089754Y-148905137D01*
X134088431Y-148919578D01*
X134087026Y-148934026D01*
X134085541Y-148948482D01*
X134083974Y-148962945D01*
X134082327Y-148977416D01*
X134080598Y-148991894D01*
X134078788Y-149006380D01*
X134076897Y-149020874D01*
X134074924Y-149035376D01*
X134072870Y-149049886D01*
X134070733Y-149064404D01*
X134068515Y-149078930D01*
X134066215Y-149093464D01*
X134063833Y-149108006D01*
X134061368Y-149122557D01*
X134058822Y-149137116D01*
X134056192Y-149151684D01*
X134053480Y-149166260D01*
X134050686Y-149180844D01*
X134047808Y-149195437D01*
X134044847Y-149210039D01*
X134041803Y-149224650D01*
X134038676Y-149239269D01*
X134035466Y-149253896D01*
X134032172Y-149268533D01*
X134028794Y-149283178D01*
X134025332Y-149297833D01*
X134021786Y-149312495D01*
X134018156Y-149327167D01*
X134014441Y-149341848D01*
X134010642Y-149356537D01*
X134006758Y-149371235D01*
X134002789Y-149385942D01*
X133998736Y-149400658D01*
X133994597Y-149415383D01*
X133990373Y-149430116D01*
X133986063Y-149444859D01*
X133981668Y-149459609D01*
X133977187Y-149474369D01*
X133972620Y-149489137D01*
X133967966Y-149503914D01*
X133963227Y-149518700D01*
X133958401Y-149533493D01*
X133953488Y-149548296D01*
X133948488Y-149563107D01*
X133943402Y-149577926D01*
X133938228Y-149592753D01*
X133932967Y-149607588D01*
X133927619Y-149622431D01*
X133922183Y-149637283D01*
X133916659Y-149652142D01*
X133911047Y-149667009D01*
X133905347Y-149681883D01*
X133899559Y-149696765D01*
X133893682Y-149711654D01*
X133887717Y-149726550D01*
X133881664Y-149741453D01*
X133875521Y-149756364D01*
X133869289Y-149771280D01*
X133862969Y-149786204D01*
X133856559Y-149801133D01*
X133850059Y-149816069D01*
X133843471Y-149831011D01*
X133836792Y-149845958D01*
X133830024Y-149860911D01*
X133823166Y-149875869D01*
X133816218Y-149890832D01*
X133809180Y-149905800D01*
X133802052Y-149920772D01*
X133794834Y-149935748D01*
X133787525Y-149950728D01*
X133780126Y-149965712D01*
X133772637Y-149980699D01*
X133765057Y-149995688D01*
X133757386Y-150010680D01*
X133749625Y-150025675D01*
X133741773Y-150040671D01*
X133733831Y-150055669D01*
X133725798Y-150070667D01*
X133717675Y-150085666D01*
X133709460Y-150100665D01*
X133701156Y-150115664D01*
X133692760Y-150130662D01*
X133684274Y-150145659D01*
X133675698Y-150160654D01*
X133667032Y-150175646D01*
X133658275Y-150190636D01*
X133649428Y-150205622D01*
X133640491Y-150220603D01*
X133631464Y-150235580D01*
X133622348Y-150250552D01*
X133613142Y-150265518D01*
X133603847Y-150280476D01*
X133594463Y-150295427D01*
X133584991Y-150310370D01*
X133575430Y-150325304D01*
X133565781Y-150340228D01*
X133556044Y-150355141D01*
X133546220Y-150370042D01*
X133536309Y-150384931D01*
X133526311Y-150399807D01*
X133516228Y-150414667D01*
X133506059Y-150429512D01*
X133495805Y-150444341D01*
X133485467Y-150459152D01*
X133475045Y-150473943D01*
X133464541Y-150488715D01*
X133453954Y-150503465D01*
X133443286Y-150518192D01*
X133432537Y-150532895D01*
X133421709Y-150547573D01*
X133410803Y-150562223D01*
X133399819Y-150576844D01*
X133388758Y-150591435D01*
X133377623Y-150605994D01*
X133366413Y-150620519D01*
X133355132Y-150635008D01*
X133343779Y-150649459D01*
X133332357Y-150663870D01*
X133320868Y-150678239D01*
X133309312Y-150692563D01*
X133297693Y-150706841D01*
X133286012Y-150721069D01*
X133274272Y-150735245D01*
X133262474Y-150749366D01*
X133250623Y-150763428D01*
X133238719Y-150777430D01*
X133226767Y-150791367D01*
X133214769Y-150805235D01*
X133202729Y-150819032D01*
X133190651Y-150832753D01*
X133178539Y-150846393D01*
X133166397Y-150859949D01*
X133154229Y-150873415D01*
X133142042Y-150886785D01*
X133129840Y-150900055D01*
X133117630Y-150913218D01*
X133105418Y-150926267D01*
X133093212Y-150939195D01*
X133081020Y-150951995D01*
X133068850Y-150964658D01*
X133056712Y-150977175D01*
X133044618Y-150989535D01*
X133032580Y-151001727D01*
X133020611Y-151013739D01*
X133008726Y-151025555D01*
X132996944Y-151037161D01*
X132985285Y-151048537D01*
X132973772Y-151059663D01*
X132962434Y-151070515D01*
X132951302Y-151081064D01*
X132940417Y-151091274D01*
X132929827Y-151101105D01*
X132919594Y-151110503D01*
X132909799Y-151119399D01*
X132900553Y-151127700D01*
X132892016Y-151135271D01*
X132884446Y-151141897D01*
X132878334Y-151147169D01*
X132875000Y-151150000D01*
X121875000Y-159200000D02*
X121888328Y-159199960D01*
X121901715Y-159199840D01*
X121915160Y-159199640D01*
X121928663Y-159199359D01*
X121942226Y-159198996D01*
X121955848Y-159198552D01*
X121969529Y-159198027D01*
X121983271Y-159197419D01*
X121997072Y-159196728D01*
X122010934Y-159195955D01*
X122024857Y-159195098D01*
X122038841Y-159194157D01*
X122052886Y-159193132D01*
X122066994Y-159192023D01*
X122081163Y-159190828D01*
X122095394Y-159189548D01*
X122109688Y-159188182D01*
X122124045Y-159186730D01*
X122138466Y-159185192D01*
X122152949Y-159183566D01*
X122167497Y-159181853D01*
X122182108Y-159180051D01*
X122196784Y-159178162D01*
X122211525Y-159176183D01*
X122226330Y-159174115D01*
X122241200Y-159171958D01*
X122256136Y-159169710D01*
X122271138Y-159167372D01*
X122286205Y-159164942D01*
X122301339Y-159162421D01*
X122316539Y-159159808D01*
X122331806Y-159157102D01*
X122347139Y-159154304D01*
X122362540Y-159151412D01*
X122378008Y-159148426D01*
X122393544Y-159145346D01*
X122409148Y-159142170D01*
X122424820Y-159138900D01*
X122440560Y-159135534D01*
X122456369Y-159132071D01*
X122472247Y-159128512D01*
X122488193Y-159124855D01*
X122504209Y-159121101D01*
X122520294Y-159117248D01*
X122536448Y-159113296D01*
X122552672Y-159109246D01*
X122568967Y-159105095D01*
X122585331Y-159100845D01*
X122601765Y-159096493D01*
X122618270Y-159092041D01*
X122634845Y-159087486D01*
X122651491Y-159082830D01*
X122668208Y-159078071D01*
X122684996Y-159073209D01*
X122701855Y-159068243D01*
X122718784Y-159063172D01*
X122735786Y-159057998D01*
X122752858Y-159052718D01*
X122770002Y-159047332D01*
X122787218Y-159041840D01*
X122804505Y-159036242D01*
X122821864Y-159030537D01*
X122839295Y-159024724D01*
X122856797Y-159018803D01*
X122874371Y-159012773D01*
X122892017Y-159006635D01*
X122909734Y-159000387D01*
X122927524Y-158994029D01*
X122945385Y-158987561D01*
X122963318Y-158980982D01*
X122981322Y-158974292D01*
X122999399Y-158967490D01*
X123017546Y-158960576D01*
X123035765Y-158953550D01*
X123054056Y-158946410D01*
X123072418Y-158939157D01*
X123090850Y-158931791D01*
X123109354Y-158924310D01*
X123127929Y-158916714D01*
X123146574Y-158909004D01*
X123165289Y-158901178D01*
X123184075Y-158893236D01*
X123202930Y-158885178D01*
X123221855Y-158877004D01*
X123240850Y-158868713D01*
X123259913Y-158860305D01*
X123279045Y-158851780D01*
X123298245Y-158843137D01*
X123317514Y-158834376D01*
X123336849Y-158825497D01*
X123356252Y-158816499D01*
X123375722Y-158807383D01*
X123395257Y-158798148D01*
X123414858Y-158788794D01*
X123434524Y-158779320D01*
X123454255Y-158769727D01*
X123474049Y-158760014D01*
X123493906Y-158750182D01*
X123513826Y-158740230D01*
X123533807Y-158730159D01*
X123553849Y-158719967D01*
X123573952Y-158709656D01*
X123594113Y-158699225D01*
X123614332Y-158688674D01*
X123634609Y-158678004D01*
X123654942Y-158667214D01*
X123675330Y-158656305D01*
X123695772Y-158645277D01*
X123716267Y-158634130D01*
X123736814Y-158622865D01*
X123757410Y-158611481D01*
X123778055Y-158599980D01*
X123798748Y-158588361D01*
X123819486Y-158576626D01*
X123840268Y-158564774D01*
X123861093Y-158552807D01*
X123881958Y-158540724D01*
X123902862Y-158528528D01*
X123923803Y-158516218D01*
X123944778Y-158503796D01*
X123965785Y-158491263D01*
X123986822Y-158478620D01*
X124007886Y-158465867D01*
X124028975Y-158453007D01*
X124050086Y-158440041D01*
X124071216Y-158426970D01*
X124092362Y-158413796D01*
X124113520Y-158400521D01*
X124134688Y-158387147D01*
X124155861Y-158373676D01*
X124177035Y-158360110D01*
X124198206Y-158346451D01*
X124219371Y-158332704D01*
X124240523Y-158318870D01*
X124261659Y-158304952D01*
X124282772Y-158290955D01*
X124303858Y-158276881D01*
X124324909Y-158262735D01*
X124345920Y-158248522D01*
X124366883Y-158234245D01*
X124387791Y-158219911D01*
X124408635Y-158205525D01*
X124429408Y-158191093D01*
X124450098Y-158176623D01*
X124470697Y-158162121D01*
X124491193Y-158147595D01*
X124511573Y-158133055D01*
X124531824Y-158118511D01*
X124551932Y-158103974D01*
X124571881Y-158089456D01*
X124591651Y-158074971D01*
X124611224Y-158060535D01*
X124630576Y-158046164D01*
X124649683Y-158031880D01*
X124668514Y-158017705D01*
X124687038Y-158003665D01*
X124705216Y-157989791D01*
X124723002Y-157976120D01*
X124740342Y-157962696D01*
X124757172Y-157949572D01*
X124773409Y-157936815D01*
X124788952Y-157924511D01*
X124803661Y-157912773D01*
X124817345Y-157901762D01*
X124829716Y-157891720D01*
X124840280Y-157883064D01*
X124847982Y-157876687D01*
X124850000Y-157875000D01*
D10*
X61764533Y-154225772D02*
X61750639Y-67149970D01*
X61750639Y-67149937D02*
G75*
G02*
X66725000Y-62150005I5000031J-33D01*
G01*
X66764470Y-159200133D02*
G75*
G02*
X61764533Y-154225772I30J5000033D01*
G01*
X129100063Y-62150000D02*
G75*
G02*
X134100034Y-67124361I37J-5000000D01*
G01*
X66725972Y-62150000D02*
X129100063Y-62150000D01*
X134100000Y-67124361D02*
X134100000Y-148675000D01*
X121875000Y-159200000D02*
X66764470Y-159200133D01*
M02*
