%TF.GenerationSoftware,KiCad,Pcbnew,9.0.3*%
%TF.CreationDate,2026-01-31T15:24:33-06:00*%
%TF.ProjectId,PiBoard,5069426f-6172-4642-9e6b-696361645f70,rev?*%
%TF.SameCoordinates,Original*%
%TF.FileFunction,Copper,L2,Inr*%
%TF.FilePolarity,Positive*%
%FSLAX46Y46*%
G04 Gerber Fmt 4.6, Leading zero omitted, Abs format (unit mm)*
G04 Created by KiCad (PCBNEW 9.0.3) date 2026-01-31 15:24:33*
%MOMM*%
%LPD*%
G01*
G04 APERTURE LIST*
G04 Aperture macros list*
%AMRoundRect*
0 Rectangle with rounded corners*
0 $1 Rounding radius*
0 $2 $3 $4 $5 $6 $7 $8 $9 X,Y pos of 4 corners*
0 Add a 4 corners polygon primitive as box body*
4,1,4,$2,$3,$4,$5,$6,$7,$8,$9,$2,$3,0*
0 Add four circle primitives for the rounded corners*
1,1,$1+$1,$2,$3*
1,1,$1+$1,$4,$5*
1,1,$1+$1,$6,$7*
1,1,$1+$1,$8,$9*
0 Add four rect primitives between the rounded corners*
20,1,$1+$1,$2,$3,$4,$5,0*
20,1,$1+$1,$4,$5,$6,$7,0*
20,1,$1+$1,$6,$7,$8,$9,0*
20,1,$1+$1,$8,$9,$2,$3,0*%
%AMFreePoly0*
4,1,22,0.945671,0.830970,1.026777,0.776777,1.080970,0.695671,1.100000,0.600000,1.100000,-0.600000,1.080970,-0.695671,1.026777,-0.776777,0.945671,-0.830970,0.850000,-0.850000,-0.450000,-0.850000,-0.545671,-0.830970,-0.626777,-0.776777,-1.026777,-0.376777,-1.080970,-0.295671,-1.100000,-0.200000,-1.100000,0.600000,-1.080970,0.695671,-1.026777,0.776777,-0.945671,0.830970,-0.850000,0.850000,
0.850000,0.850000,0.945671,0.830970,0.945671,0.830970,$1*%
G04 Aperture macros list end*
%TA.AperFunction,ComponentPad*%
%ADD10RoundRect,0.250000X0.600000X0.600000X-0.600000X0.600000X-0.600000X-0.600000X0.600000X-0.600000X0*%
%TD*%
%TA.AperFunction,ComponentPad*%
%ADD11O,1.700000X1.700000*%
%TD*%
%TA.AperFunction,ComponentPad*%
%ADD12R,1.700000X1.700000*%
%TD*%
%TA.AperFunction,HeatsinkPad*%
%ADD13O,2.100000X1.000000*%
%TD*%
%TA.AperFunction,HeatsinkPad*%
%ADD14O,1.800000X1.000000*%
%TD*%
%TA.AperFunction,ComponentPad*%
%ADD15C,1.700000*%
%TD*%
%TA.AperFunction,ComponentPad*%
%ADD16C,1.066800*%
%TD*%
%TA.AperFunction,ComponentPad*%
%ADD17C,2.400000*%
%TD*%
%TA.AperFunction,ComponentPad*%
%ADD18FreePoly0,90.000000*%
%TD*%
%TA.AperFunction,ComponentPad*%
%ADD19O,1.700000X2.200000*%
%TD*%
%TA.AperFunction,ComponentPad*%
%ADD20O,3.300000X1.500000*%
%TD*%
%TA.AperFunction,ComponentPad*%
%ADD21O,2.300000X1.500000*%
%TD*%
%TA.AperFunction,ComponentPad*%
%ADD22C,1.092200*%
%TD*%
%TA.AperFunction,ComponentPad*%
%ADD23C,2.692400*%
%TD*%
%TA.AperFunction,ViaPad*%
%ADD24C,0.600000*%
%TD*%
%TA.AperFunction,ViaPad*%
%ADD25C,0.450000*%
%TD*%
%TA.AperFunction,ViaPad*%
%ADD26C,0.500000*%
%TD*%
%TA.AperFunction,Conductor*%
%ADD27C,0.500000*%
%TD*%
%TA.AperFunction,Conductor*%
%ADD28C,0.250000*%
%TD*%
%TA.AperFunction,Conductor*%
%ADD29C,0.150000*%
%TD*%
G04 APERTURE END LIST*
D10*
%TO.N,+3.3V*%
%TO.C,J3*%
X65021966Y-145231966D03*
%TO.N,+5V*%
X67561966Y-145231966D03*
D11*
%TO.N,/CM5 GPIO/GPIO2*%
X65021966Y-142691966D03*
D10*
%TO.N,+5V*%
X67561966Y-142691966D03*
D11*
%TO.N,/CM5 GPIO/GPIO3*%
X65021966Y-140151966D03*
D12*
%TO.N,GND*%
X67561966Y-140151966D03*
D11*
%TO.N,/CM5 GPIO/GPIO4*%
X65021966Y-137611966D03*
%TO.N,/CM5 GPIO/GPIO14*%
X67561966Y-137611966D03*
D12*
%TO.N,GND*%
X65021966Y-135071966D03*
D11*
%TO.N,/CM5 GPIO/GPIO15*%
X67561966Y-135071966D03*
%TO.N,/CM5 GPIO/GPIO17*%
X65021966Y-132531966D03*
%TO.N,/CM5 GPIO/GPIO18*%
X67561966Y-132531966D03*
%TO.N,/CM5 GPIO/GPIO27*%
X65021966Y-129991966D03*
D12*
%TO.N,GND*%
X67561966Y-129991966D03*
D11*
%TO.N,/CM5 GPIO/GPIO22*%
X65021966Y-127451966D03*
%TO.N,/CM5 GPIO/GPIO23*%
X67561966Y-127451966D03*
D10*
%TO.N,+3.3V*%
X65021966Y-124911966D03*
D11*
%TO.N,/CM5 GPIO/GPIO24*%
X67561966Y-124911966D03*
%TO.N,/CM5 GPIO/CAN_SPI_MOSI*%
X65021966Y-122371966D03*
D12*
%TO.N,GND*%
X67561966Y-122371966D03*
D11*
%TO.N,/CM5 GPIO/CAN_SPI_MISO*%
X65021966Y-119831966D03*
%TO.N,/CM5 GPIO/GPIO25*%
X67561966Y-119831966D03*
%TO.N,/CM5 GPIO/CAN_SPI_CLK*%
X65021966Y-117291966D03*
%TO.N,/CM5 GPIO/CAN_SPI_CS*%
X67561966Y-117291966D03*
D12*
%TO.N,GND*%
X65021966Y-114751966D03*
D11*
%TO.N,/CM5 GPIO/GPIO7*%
X67561966Y-114751966D03*
%TO.N,/CM5 GPIO/GPIO0*%
X65021966Y-112211966D03*
%TO.N,/CM5 GPIO/GPIO1*%
X67561966Y-112211966D03*
%TO.N,/CM5 GPIO/GPIO5*%
X65021966Y-109671966D03*
D12*
%TO.N,GND*%
X67561966Y-109671966D03*
D11*
%TO.N,/CM5 GPIO/GPIO6*%
X65021966Y-107131966D03*
%TO.N,/CM5 GPIO/CAN_INTR*%
X67561966Y-107131966D03*
%TO.N,/CM5 GPIO/GPIO13*%
X65021966Y-104591966D03*
D12*
%TO.N,GND*%
X67561966Y-104591966D03*
D11*
%TO.N,/CM5 GPIO/GPIO19*%
X65021966Y-102051966D03*
%TO.N,/CM5 GPIO/GPIO16*%
X67561966Y-102051966D03*
%TO.N,/CM5 GPIO/GPIO26*%
X65021966Y-99511966D03*
%TO.N,/CM5 GPIO/GPIO20*%
X67561966Y-99511966D03*
D12*
%TO.N,GND*%
X65021966Y-96971966D03*
D11*
%TO.N,/CM5 GPIO/GPIO21*%
X67561966Y-96971966D03*
%TD*%
D13*
%TO.N,Net-(J5-SHIELD)*%
%TO.C,J5*%
X127690000Y-103730000D03*
D14*
X131870000Y-103730000D03*
D13*
X127690000Y-95090000D03*
D14*
X131870000Y-95090000D03*
%TD*%
D12*
%TO.N,GND*%
%TO.C,JP4*%
X93725000Y-155615000D03*
D15*
%TO.N,/CM5 GPIO/nRPIBOOT*%
X93725000Y-153075000D03*
%TD*%
D16*
%TO.N,/CM5 GPIO/RTC_Batt*%
%TO.C,J11*%
X66950000Y-148575000D03*
%TO.N,GND*%
X65700000Y-148575000D03*
%TD*%
D17*
%TO.N,Net-(J2-+24V)*%
%TO.C,F1*%
X94338500Y-74093500D03*
%TO.N,+24V*%
X94338500Y-84013500D03*
%TO.N,Net-(J2-+24V)*%
X90938500Y-74093500D03*
%TO.N,+24V*%
X90938500Y-84013500D03*
%TD*%
D18*
%TO.N,/CarCAN/CAN_H*%
%TO.C,J6*%
X127071000Y-73053500D03*
D19*
%TO.N,/CarCAN/CAN_L*%
X129571000Y-73053500D03*
%TD*%
D20*
%TO.N,Net-(J7-CKS)*%
%TO.C,J7*%
X123755000Y-129750000D03*
X123755000Y-144250000D03*
D21*
X129715000Y-129750000D03*
X129715000Y-144250000D03*
%TD*%
D12*
%TO.N,GND*%
%TO.C,JP3*%
X98075000Y-155625000D03*
D15*
%TO.N,/CM5 GPIO/BT_Disable*%
X98075000Y-153085000D03*
%TD*%
D12*
%TO.N,+5V*%
%TO.C,JP6*%
X117735000Y-97160000D03*
D15*
%TO.N,/High Speed/USB-C/VBUS_DBG*%
X120275000Y-97160000D03*
%TD*%
D12*
%TO.N,GND*%
%TO.C,JP2*%
X102300000Y-155625000D03*
D15*
%TO.N,/CM5 GPIO/WiFi_Disable*%
X102300000Y-153085000D03*
%TD*%
D22*
%TO.N,Net-(J9-VBUS)*%
%TO.C,J9*%
X119990001Y-118600000D03*
%TO.N,/High Speed/USB_HUB_D-*%
X119990001Y-116099999D03*
%TO.N,/High Speed/USB_HUB_D+*%
X119990001Y-114110002D03*
%TO.N,GND*%
X119990001Y-111610001D03*
%TO.N,/High Speed/USB_HUB_RX1-*%
X118490000Y-111100001D03*
%TO.N,/High Speed/USB_HUB_RX1+*%
X118490000Y-113100001D03*
%TO.N,Net-(J9-DRAIN)*%
X118490000Y-115100002D03*
%TO.N,/High Speed/USB_HUB_TX1-*%
X118490000Y-117099999D03*
%TO.N,/High Speed/USB_HUB_TX1+*%
X118490000Y-119100000D03*
D23*
%TO.N,Net-(J9-DRAIN)*%
X121990059Y-121805000D03*
X121990059Y-108405001D03*
%TD*%
D18*
%TO.N,/CarCAN/CAN_H*%
%TO.C,J8*%
X119271000Y-73053500D03*
D19*
%TO.N,/CarCAN/CAN_L*%
X121771000Y-73053500D03*
%TD*%
D18*
%TO.N,Net-(J2-+24V)*%
%TO.C,J2*%
X98550000Y-73033500D03*
D19*
%TO.N,GND*%
X101050000Y-73033500D03*
%TD*%
D12*
%TO.N,/CarCAN/CAN_H*%
%TO.C,JP1*%
X127108500Y-80133500D03*
D11*
%TO.N,Net-(JP1-B)*%
X129648500Y-80133500D03*
%TD*%
D12*
%TO.N,GND*%
%TO.C,JP5*%
X106550000Y-155615000D03*
D15*
%TO.N,/CM5 GPIO/EEPROM_nWP*%
X106550000Y-153075000D03*
%TD*%
D18*
%TO.N,/Power Distribution/LV+*%
%TO.C,J1*%
X109100000Y-73033500D03*
D19*
%TO.N,GND*%
X111600000Y-73033500D03*
%TD*%
D24*
%TO.N,+5V*%
X102900000Y-98500000D03*
D25*
%TO.N,GND*%
X101500000Y-136850000D03*
X102500000Y-131850000D03*
D24*
X128600000Y-152631000D03*
D25*
X102500000Y-119850000D03*
D24*
X99991000Y-89850000D03*
D25*
X117755000Y-138250000D03*
X103500000Y-133850000D03*
X103500000Y-110950000D03*
X101500000Y-122850000D03*
X103500000Y-113850000D03*
X102500000Y-132850000D03*
X101500000Y-120850000D03*
X101500000Y-137800000D03*
X117960000Y-132010000D03*
X102500000Y-117850000D03*
X106800000Y-130100000D03*
X103500000Y-125850000D03*
X106925000Y-125300000D03*
D24*
X126067500Y-149242500D03*
D25*
X102500000Y-121850000D03*
X77165146Y-87685146D03*
D24*
X73500000Y-123550000D03*
D25*
X108200000Y-114675966D03*
X103500000Y-116850000D03*
X103500000Y-136850000D03*
D24*
X81650000Y-80600000D03*
D25*
X103500000Y-124850000D03*
D24*
X75050000Y-134000000D03*
D25*
X103500000Y-119850000D03*
X101500000Y-130850000D03*
X112425000Y-120050000D03*
X102500000Y-114850000D03*
X112700000Y-117575000D03*
D24*
X119880000Y-143087500D03*
D25*
X101500000Y-109950000D03*
X112700000Y-118875000D03*
X102500000Y-136850000D03*
X102500000Y-113850000D03*
X103500000Y-122850000D03*
X101500000Y-129850000D03*
D24*
X73475000Y-115800000D03*
D25*
X111850000Y-126600000D03*
D24*
X117062500Y-150270750D03*
D25*
X103500000Y-120850000D03*
X103500000Y-109950000D03*
X102500000Y-124850000D03*
X116608457Y-137781543D03*
X112920000Y-126990000D03*
X108200000Y-119475966D03*
X108100000Y-130100000D03*
X120630000Y-133750000D03*
X101500000Y-118850000D03*
X117780000Y-136750000D03*
X108200000Y-120627966D03*
X102500000Y-123850000D03*
D24*
X125275000Y-83550000D03*
D25*
X102500000Y-110950000D03*
X113960000Y-128010000D03*
D24*
X73500000Y-125000000D03*
D25*
X110975000Y-119150000D03*
X101500000Y-133850000D03*
D24*
X130500000Y-92300000D03*
X73475000Y-113450000D03*
D25*
X101500000Y-126850000D03*
D24*
X116675000Y-85725000D03*
D25*
X101500000Y-111900000D03*
X111550000Y-113950000D03*
X111200000Y-112250000D03*
X118030000Y-139875000D03*
X111375000Y-117975000D03*
D24*
X79709750Y-74422250D03*
X127400000Y-84100000D03*
D25*
X110000000Y-117600000D03*
X106800000Y-131300000D03*
X101500000Y-112900000D03*
X106800000Y-127700000D03*
X113000000Y-111400000D03*
X103500000Y-131850000D03*
X106925000Y-126400000D03*
X102500000Y-122850000D03*
X103500000Y-130850000D03*
X110000000Y-115550000D03*
X114960000Y-129010000D03*
D24*
X82650000Y-79950000D03*
D25*
X116960000Y-131010000D03*
X102500000Y-127850000D03*
X124479975Y-100160000D03*
X102500000Y-120850000D03*
X101500000Y-114850000D03*
D26*
X126025000Y-105700000D03*
D25*
X102500000Y-129850000D03*
X111400000Y-115425000D03*
X102500000Y-135850000D03*
D24*
X75700000Y-155262500D03*
D25*
X123900000Y-96800000D03*
X106800000Y-114675966D03*
X108100000Y-132500000D03*
X112450000Y-113000000D03*
X101500000Y-131850000D03*
D24*
X73550000Y-119700000D03*
X112787500Y-152756250D03*
D25*
X117755000Y-135300000D03*
X106800000Y-132500000D03*
X102500000Y-130850000D03*
X114608457Y-135781543D03*
X113650000Y-121400000D03*
X115170750Y-146870750D03*
X102500000Y-134850000D03*
X106800000Y-128900000D03*
D24*
X73475000Y-114650000D03*
D25*
X102500000Y-115850000D03*
X103500000Y-128850000D03*
D24*
X112800000Y-151943750D03*
D25*
X103500000Y-129850000D03*
D24*
X87006000Y-73253500D03*
X125475000Y-90675000D03*
D25*
X102500000Y-128850000D03*
X111490000Y-132530000D03*
X101500000Y-115850000D03*
X120605000Y-138200000D03*
D24*
X112800000Y-153543750D03*
D25*
X101500000Y-119850000D03*
X101500000Y-117850000D03*
D24*
X120980000Y-140650000D03*
X83700000Y-79250000D03*
D25*
X101500000Y-135850000D03*
X106800000Y-120627966D03*
X101500000Y-124850000D03*
X103500000Y-126850000D03*
D24*
X130275000Y-149530000D03*
D25*
X102500000Y-126850000D03*
X108100000Y-127800000D03*
X110000000Y-113650000D03*
X103500000Y-139400000D03*
X102500000Y-109950000D03*
D24*
X124980000Y-140200000D03*
X89938500Y-87350000D03*
D25*
X103500000Y-127850000D03*
X108100000Y-125300000D03*
X103500000Y-111900000D03*
X120580000Y-136750000D03*
X117780000Y-133750000D03*
X101500000Y-121850000D03*
X103500000Y-138600000D03*
X101500000Y-116850000D03*
X101500000Y-134850000D03*
X102500000Y-116850000D03*
X102500000Y-112900000D03*
D24*
X109500000Y-90500000D03*
D25*
X116150000Y-118855001D03*
D24*
X126195000Y-95300000D03*
D25*
X102500000Y-137800000D03*
X108100000Y-129000000D03*
X106800000Y-117027966D03*
X103500000Y-123850000D03*
X103500000Y-118850000D03*
D24*
X126095000Y-102585000D03*
D25*
X112608457Y-133781543D03*
D24*
X82950000Y-88300000D03*
X81650000Y-79250000D03*
X83700000Y-80600000D03*
D25*
X108200000Y-117075966D03*
X101500000Y-128850000D03*
D24*
X128280000Y-143150000D03*
X86400000Y-155300000D03*
X124975000Y-92400000D03*
X73500000Y-126250000D03*
X73500000Y-121600000D03*
D25*
X120605000Y-135225000D03*
X102500000Y-111900000D03*
X81000000Y-155025001D03*
X110490000Y-126570000D03*
D24*
X115450000Y-107042501D03*
D25*
X103500000Y-112900000D03*
D24*
X126055000Y-149955000D03*
X67525000Y-77000000D03*
D25*
X103500000Y-137800000D03*
X101500000Y-123850000D03*
X103500000Y-121850000D03*
X103500000Y-114850000D03*
X102500000Y-133850000D03*
X111300000Y-121950000D03*
X115927500Y-112830001D03*
D24*
X114700000Y-84500000D03*
D25*
X103500000Y-134850000D03*
X110520000Y-131660000D03*
X115608457Y-136781543D03*
X101500000Y-127850000D03*
D24*
X113460000Y-97850000D03*
D25*
X102500000Y-138600000D03*
X103500000Y-135850000D03*
X111375000Y-116700000D03*
X115960000Y-130010000D03*
D24*
X75449497Y-89335355D03*
D25*
X102500000Y-125850000D03*
X101500000Y-110950000D03*
X101500000Y-125850000D03*
X106800000Y-119427966D03*
X108100000Y-126500000D03*
D24*
X67525000Y-81165000D03*
D25*
X103500000Y-115850000D03*
X113608457Y-134781543D03*
X103500000Y-132850000D03*
X101500000Y-113850000D03*
D24*
X126055000Y-148455000D03*
D25*
X103500000Y-117850000D03*
D24*
X73500000Y-127700000D03*
D25*
X102500000Y-118850000D03*
D26*
X132224999Y-105690707D03*
D25*
X101500000Y-132850000D03*
D24*
%TO.N,+3.3V*%
X112910000Y-91360000D03*
X76200000Y-129450000D03*
X80441000Y-68036000D03*
X108875000Y-102225000D03*
X74208912Y-128792743D03*
X67125000Y-85025000D03*
X115400000Y-73200000D03*
X82070000Y-126270000D03*
X126400000Y-92450000D03*
X74200000Y-130050000D03*
%TO.N,/CM5 GPIO/PWR_BUTT*%
X76357500Y-142037500D03*
X76357500Y-131800000D03*
X81800000Y-150287500D03*
X76357500Y-138337500D03*
%TO.N,Net-(IC3-SRC)*%
X105200000Y-84100000D03*
X104410375Y-85910375D03*
%TO.N,/CM5 GPIO/GLOBAL_EN*%
X77687500Y-149400000D03*
D25*
X124650000Y-150837500D03*
X72000000Y-133750000D03*
X70857500Y-146600000D03*
X110650000Y-153743750D03*
%TO.N,/High Speed/USB_DBG_D-*%
X128005000Y-99160000D03*
X128005000Y-100160000D03*
%TO.N,/High Speed/HDMI0_CEC*%
X107400000Y-124400000D03*
X110050000Y-132500000D03*
%TO.N,/CM5 GPIO/GPIO14*%
X70507500Y-126087500D03*
%TO.N,/CM5 GPIO/GPIO18*%
X69382500Y-124969608D03*
%TO.N,/CM5 GPIO/CAN_INTR*%
X70432500Y-117787963D03*
D24*
X119825000Y-92800000D03*
X76475142Y-102147461D03*
D25*
%TO.N,/CM5 GPIO/GPIO6*%
X77157500Y-118188086D03*
%TO.N,/CM5 GPIO/GPIO20*%
X72950000Y-118900000D03*
%TO.N,/CM5 GPIO/GPIO0*%
X77154038Y-119692827D03*
%TO.N,/CM5 GPIO/GPIO24*%
X70493034Y-122251966D03*
%TO.N,/CM5 GPIO/GPIO7*%
X69382500Y-118853586D03*
%TO.N,/CM5 GPIO/GPIO25*%
X70496966Y-121451966D03*
D24*
%TO.N,/CM5 GPIO/CAN_SPI_MOSI*%
X121725000Y-93473455D03*
D25*
X77157500Y-121751966D03*
%TO.N,/CM5 GPIO/GPIO16*%
X70507500Y-116317500D03*
%TO.N,/CM5 GPIO/GPIO4*%
X77147500Y-124687500D03*
%TO.N,/CM5 GPIO/GPIO22*%
X77170000Y-122425000D03*
D24*
%TO.N,/CM5 GPIO/CAN_SPI_CS*%
X72457500Y-105937500D03*
X122700000Y-89875000D03*
D25*
X69367970Y-119615862D03*
D24*
X75957500Y-101537500D03*
D25*
%TO.N,/CM5 GPIO/GPIO27*%
X77182500Y-123212500D03*
%TO.N,/CM5 GPIO/GPIO13*%
X77157501Y-117442606D03*
D24*
X76657500Y-107337500D03*
X80434500Y-107337500D03*
X71800000Y-70325000D03*
D25*
%TO.N,/CM5 GPIO/GPIO3*%
X77131716Y-125504608D03*
D24*
%TO.N,/CM5 GPIO/CAN_SPI_CLK*%
X76000000Y-103640000D03*
X75307500Y-100987500D03*
X119825000Y-89900000D03*
D25*
X77165452Y-120386656D03*
%TO.N,/CM5 GPIO/GPIO21*%
X70507500Y-115112500D03*
D24*
%TO.N,/CM5 GPIO/GPIO19*%
X80434500Y-108737500D03*
X85000000Y-71400000D03*
X75557500Y-108737500D03*
D25*
X77157500Y-116737500D03*
%TO.N,/CM5 GPIO/GPIO23*%
X69370000Y-124275000D03*
D24*
%TO.N,/CM5 GPIO/CAN_SPI_MISO*%
X122400000Y-92900000D03*
D25*
X77164552Y-121071821D03*
%TO.N,/CM5 GPIO/GPIO26*%
X77153946Y-116033946D03*
D24*
X74457500Y-110037500D03*
X93100000Y-70200000D03*
X80434500Y-110037500D03*
D25*
%TO.N,/CM5 GPIO/GPIO1*%
X69932500Y-118312500D03*
%TO.N,/CM5 GPIO/GPIO15*%
X69907500Y-125562500D03*
%TO.N,/CM5 GPIO/GPIO17*%
X77147500Y-123957500D03*
%TO.N,/CM5 GPIO/GPIO5*%
X77158270Y-118979623D03*
%TO.N,/CM5 GPIO/GPIO2*%
X77132500Y-126212500D03*
%TO.N,/CM5 GPIO/CC2*%
X125895000Y-97685000D03*
X107300000Y-104500000D03*
X82100000Y-132500000D03*
%TO.N,/CM5 GPIO/CC1*%
X128295000Y-100785000D03*
X81575000Y-131900000D03*
D24*
%TO.N,/CM5 GPIO/RTC_Batt*%
X76540000Y-128030000D03*
%TO.N,/CM5 GPIO/FAN_TACHO*%
X109700000Y-100900000D03*
X81475000Y-114300000D03*
%TO.N,/CM5 GPIO/FAN_PWM*%
X112185000Y-94000000D03*
X80240325Y-114898544D03*
X77075000Y-114925000D03*
X113650000Y-96750000D03*
D25*
X73500000Y-117000000D03*
D24*
%TO.N,/CM5 GPIO/BT_Disable*%
X79607500Y-136693240D03*
%TO.N,/CM5 GPIO/EEPROM_nWP*%
X80255000Y-116035000D03*
%TO.N,/CM5 GPIO/WiFi_Disable*%
X80172801Y-136127168D03*
D25*
%TO.N,/CM5 GPIO/nPWR_LED*%
X70220000Y-100890000D03*
X71660000Y-109595000D03*
X71025000Y-132550000D03*
D24*
%TO.N,/CM5 GPIO/nRPIBOOT*%
X79032500Y-137250000D03*
D25*
%TO.N,/CM5 GPIO/LED_nACT*%
X73399999Y-117642264D03*
X72535000Y-102960000D03*
D24*
%TO.N,Net-(J7-+5V)*%
X125480000Y-141100000D03*
X127080000Y-145300000D03*
%TO.N,Net-(J9-VBUS)*%
X117100000Y-154500000D03*
D26*
%TO.N,/Power Distribution/RPP_EN*%
X101900000Y-85900000D03*
X103400000Y-77600000D03*
%TD*%
D27*
%TO.N,+3.3V*%
X112910000Y-96140000D02*
X112910000Y-91360000D01*
X115400000Y-73200000D02*
X115400000Y-79500000D01*
D28*
X108425000Y-102225000D02*
X107675000Y-101475000D01*
X108875000Y-102225000D02*
X108425000Y-102225000D01*
D27*
X107575000Y-101475000D02*
X112910000Y-96140000D01*
X82780000Y-126270000D02*
X107575000Y-101475000D01*
X114300000Y-94750000D02*
X125450000Y-94750000D01*
X125450000Y-94750000D02*
X126400000Y-93800000D01*
X82070000Y-126270000D02*
X82780000Y-126270000D01*
D28*
X107675000Y-101475000D02*
X107575000Y-101475000D01*
D27*
X115400000Y-79500000D02*
X112910000Y-81990000D01*
X112910000Y-81990000D02*
X112910000Y-91360000D01*
X126400000Y-93800000D02*
X126400000Y-92450000D01*
X112910000Y-96140000D02*
X114300000Y-94750000D01*
D29*
%TO.N,/CM5 GPIO/GLOBAL_EN*%
X98200000Y-149400000D02*
X77687500Y-149400000D01*
X99850000Y-151050000D02*
X98200000Y-149400000D01*
X116100000Y-154100000D02*
X119362500Y-150837500D01*
X106750000Y-151050000D02*
X99850000Y-151050000D01*
X110600000Y-154100000D02*
X116100000Y-154100000D01*
X110200000Y-153700000D02*
X110600000Y-154100000D01*
X110606250Y-153700000D02*
X110200000Y-153700000D01*
X109400000Y-153700000D02*
X106750000Y-151050000D01*
X110650000Y-153743750D02*
X110606250Y-153700000D01*
X110200000Y-153700000D02*
X109400000Y-153700000D01*
X119362500Y-150837500D02*
X124650000Y-150837500D01*
%TO.N,/CM5 GPIO/GPIO14*%
X70507500Y-134666432D02*
X70507500Y-126087500D01*
X67561966Y-137611966D02*
X70507500Y-134666432D01*
%TO.N,/CM5 GPIO/GPIO18*%
X69382500Y-130711432D02*
X67561966Y-132531966D01*
X69382500Y-124969608D02*
X69382500Y-130711432D01*
%TO.N,/CM5 GPIO/CAN_INTR*%
X70432500Y-117787963D02*
X70430000Y-117785463D01*
X69382500Y-116237500D02*
X69382500Y-108952500D01*
X69382500Y-108952500D02*
X67561966Y-107131966D01*
X70430000Y-117785463D02*
X70430000Y-117285000D01*
X70430000Y-117285000D02*
X69382500Y-116237500D01*
%TO.N,/CM5 GPIO/GPIO6*%
X70058500Y-95737200D02*
X70058500Y-97737500D01*
X63765500Y-94434500D02*
X68755800Y-94434500D01*
X77507500Y-111191112D02*
X78757500Y-112441111D01*
X75258000Y-103938000D02*
X77507500Y-106187500D01*
X70058500Y-97737500D02*
X75258000Y-102937000D01*
X62454500Y-95745500D02*
X63765500Y-94434500D01*
X68755800Y-94434500D02*
X70058500Y-95737200D01*
X62454500Y-104564500D02*
X62454500Y-95745500D01*
X65021966Y-107131966D02*
X62454500Y-104564500D01*
X78757500Y-112441111D02*
X78757500Y-116588086D01*
X75258000Y-102937000D02*
X75258000Y-103938000D01*
X77507500Y-106187500D02*
X77507500Y-111191112D01*
X78757500Y-116588086D02*
X77157500Y-118188086D01*
%TO.N,/CM5 GPIO/GPIO20*%
X72900000Y-106309588D02*
X73033500Y-106176088D01*
X72950000Y-118900000D02*
X73150000Y-118700000D01*
X73033500Y-106176088D02*
X73033500Y-105698912D01*
X72900000Y-118050000D02*
X72900000Y-106309588D01*
X72900000Y-104850000D02*
X67561966Y-99511966D01*
X73150000Y-118700000D02*
X73150000Y-118300000D01*
X72900000Y-105565412D02*
X72900000Y-104850000D01*
X73033500Y-105698912D02*
X72900000Y-105565412D01*
X73150000Y-118300000D02*
X72900000Y-118050000D01*
%TO.N,/CM5 GPIO/GPIO24*%
X67833034Y-124911966D02*
X67561966Y-124911966D01*
X70493034Y-122251966D02*
X67833034Y-124911966D01*
%TO.N,/CM5 GPIO/GPIO7*%
X69357500Y-117262500D02*
X67561966Y-115466966D01*
X69357500Y-118828586D02*
X69357500Y-117262500D01*
X67561966Y-115466966D02*
X67561966Y-114751966D01*
X69382500Y-118853586D02*
X69357500Y-118828586D01*
%TO.N,/CM5 GPIO/GPIO25*%
X70496966Y-121451966D02*
X68876966Y-119831966D01*
X68876966Y-119831966D02*
X67561966Y-119831966D01*
%TO.N,/CM5 GPIO/GPIO16*%
X69733500Y-115553500D02*
X70497500Y-116317500D01*
X69732500Y-108806112D02*
X69732500Y-104222500D01*
X70497500Y-116317500D02*
X70507500Y-116317500D01*
X69733500Y-115553500D02*
X69733500Y-108807111D01*
X69732500Y-104222500D02*
X67561966Y-102051966D01*
X69733500Y-108807111D02*
X69732500Y-108806112D01*
%TO.N,/CM5 GPIO/GPIO4*%
X68650466Y-147288500D02*
X63715724Y-147288500D01*
X71848276Y-140939500D02*
X69625744Y-143162032D01*
X77157500Y-124687500D02*
X78106500Y-125636500D01*
X77147500Y-124687500D02*
X77159500Y-124687500D01*
X62955500Y-146528277D02*
X62955500Y-139678432D01*
X78106500Y-138481278D02*
X75648278Y-140939500D01*
X77147500Y-124687500D02*
X77157500Y-124687500D01*
X78106500Y-125636500D02*
X78106500Y-138481278D01*
X69625744Y-143162032D02*
X69625744Y-146313222D01*
X62955500Y-139678432D02*
X65021966Y-137611966D01*
X75648278Y-140939500D02*
X71848276Y-140939500D01*
X69625744Y-146313222D02*
X68650466Y-147288500D01*
X63715724Y-147288500D02*
X62955500Y-146528277D01*
%TO.N,/CM5 GPIO/CAN_SPI_CS*%
X68882500Y-119130392D02*
X68882500Y-117687500D01*
X68882500Y-117687500D02*
X68486966Y-117291966D01*
X69367970Y-119615862D02*
X68882500Y-119130392D01*
X68486966Y-117291966D02*
X67561966Y-117291966D01*
%TO.N,/CM5 GPIO/GPIO13*%
X76657500Y-111037500D02*
X76657500Y-107337500D01*
X78406500Y-116231978D02*
X78406500Y-112586500D01*
X69657500Y-95903300D02*
X68589700Y-94835500D01*
X80562500Y-107337500D02*
X80434500Y-107337500D01*
X71800000Y-88400000D02*
X81000000Y-97600000D01*
X76657500Y-107337500D02*
X76657500Y-106337500D01*
X77057500Y-111237500D02*
X76857500Y-111237500D01*
X62855500Y-102425500D02*
X65021966Y-104591966D01*
X81000000Y-106900000D02*
X80562500Y-107337500D01*
X63964500Y-94835500D02*
X62855500Y-95944500D01*
X69657500Y-97937500D02*
X69657500Y-95903300D01*
X71800000Y-70325000D02*
X71800000Y-88400000D01*
X76657500Y-106337500D02*
X74757500Y-104437500D01*
X68589700Y-94835500D02*
X63964500Y-94835500D01*
X62855500Y-95944500D02*
X62855500Y-102425500D01*
X74757500Y-104437500D02*
X74757500Y-103037500D01*
X76857500Y-111237500D02*
X76657500Y-111037500D01*
X77157501Y-117442606D02*
X77195872Y-117442606D01*
X78406500Y-112586500D02*
X77057500Y-111237500D01*
X81000000Y-97600000D02*
X81000000Y-106900000D01*
X77195872Y-117442606D02*
X78406500Y-116231978D01*
X74757500Y-103037500D02*
X69657500Y-97937500D01*
%TO.N,/CM5 GPIO/GPIO3*%
X71702887Y-140588500D02*
X75502888Y-140588500D01*
X69274744Y-146125256D02*
X69274744Y-143016644D01*
X63306500Y-146382888D02*
X63861112Y-146937500D01*
X65021966Y-140151966D02*
X63306500Y-141867432D01*
X68462500Y-146937500D02*
X69274744Y-146125256D01*
X63306500Y-141867432D02*
X63306500Y-146382888D01*
X77755500Y-138335889D02*
X77755500Y-126128392D01*
X63861112Y-146937500D02*
X68462500Y-146937500D01*
X75502888Y-140588500D02*
X77755500Y-138335889D01*
X77755500Y-126128392D02*
X77131716Y-125504608D01*
X69274744Y-143016644D02*
X71702887Y-140588500D01*
%TO.N,/CM5 GPIO/CAN_SPI_CLK*%
X75307500Y-102257500D02*
X75307500Y-100987500D01*
X75924142Y-103564142D02*
X75924142Y-102874142D01*
X75924142Y-102874142D02*
X75307500Y-102257500D01*
X76000000Y-103640000D02*
X75924142Y-103564142D01*
%TO.N,/CM5 GPIO/GPIO21*%
X67561966Y-96971966D02*
X66282500Y-98251432D01*
X67007500Y-100787500D02*
X68182500Y-100787500D01*
X66282500Y-100062500D02*
X67007500Y-100787500D01*
X68182500Y-100787500D02*
X70507500Y-103112500D01*
X66282500Y-98251432D02*
X66282500Y-100062500D01*
X70507500Y-103112500D02*
X70507500Y-115112500D01*
%TO.N,/CM5 GPIO/GPIO19*%
X63256500Y-96043500D02*
X63256500Y-100286500D01*
X77157500Y-116737500D02*
X78055500Y-115839500D01*
X80434500Y-108737500D02*
X85000000Y-104172000D01*
X63256500Y-100286500D02*
X65021966Y-102051966D01*
X77004500Y-111686500D02*
X76406500Y-111686500D01*
X75557500Y-108737500D02*
X75557500Y-106237500D01*
X76406500Y-111686500D02*
X75557500Y-110837500D01*
X85000000Y-104172000D02*
X85000000Y-71400000D01*
X75557500Y-106237500D02*
X74308500Y-104988500D01*
X74308500Y-104988500D02*
X74308500Y-103188500D01*
X74308500Y-103188500D02*
X69257500Y-98137500D01*
X69257500Y-98137500D02*
X69257500Y-98104600D01*
X78055500Y-115839500D02*
X78055500Y-112737500D01*
X68423600Y-95236500D02*
X64063500Y-95236500D01*
X69256500Y-98103600D02*
X69256500Y-96069400D01*
X69256500Y-96069400D02*
X68423600Y-95236500D01*
X64063500Y-95236500D02*
X63256500Y-96043500D01*
X78055500Y-112737500D02*
X77004500Y-111686500D01*
X75557500Y-110837500D02*
X75557500Y-108737500D01*
X69257500Y-98104600D02*
X69256500Y-98103600D01*
%TO.N,/CM5 GPIO/GPIO23*%
X68882500Y-124762500D02*
X68882500Y-126131432D01*
X68882500Y-126131432D02*
X67561966Y-127451966D01*
X69370000Y-124275000D02*
X68882500Y-124762500D01*
%TO.N,/CM5 GPIO/GPIO26*%
X77153946Y-116033946D02*
X77153946Y-116025091D01*
X73957500Y-103437500D02*
X68857500Y-98337500D01*
X92414500Y-98057500D02*
X92414500Y-70885500D01*
X80434500Y-110037500D02*
X92414500Y-98057500D01*
X68257500Y-95637500D02*
X64262500Y-95637500D01*
X63657500Y-98147500D02*
X65021966Y-99511966D01*
X73957500Y-105937500D02*
X73957500Y-103437500D01*
X68855500Y-96235500D02*
X68257500Y-95637500D01*
X68856500Y-98270700D02*
X68855500Y-98269700D01*
X64262500Y-95637500D02*
X63657500Y-96242500D01*
X77153946Y-116025091D02*
X77657500Y-115521537D01*
X68855500Y-98269700D02*
X68855500Y-96235500D01*
X74457500Y-106437500D02*
X73957500Y-105937500D01*
X75257500Y-112037500D02*
X74457500Y-111237500D01*
X92414500Y-70885500D02*
X93100000Y-70200000D01*
X77657500Y-112837500D02*
X76857500Y-112037500D01*
X68856500Y-98303600D02*
X68856500Y-98270700D01*
X68857500Y-98304600D02*
X68856500Y-98303600D01*
X74457500Y-111237500D02*
X74457500Y-110037500D01*
X76857500Y-112037500D02*
X75257500Y-112037500D01*
X63657500Y-96242500D02*
X63657500Y-98147500D01*
X77657500Y-115521537D02*
X77657500Y-112837500D01*
X74457500Y-110037500D02*
X74457500Y-106437500D01*
X68857500Y-98337500D02*
X68857500Y-98304600D01*
%TO.N,/CM5 GPIO/GPIO1*%
X69932500Y-118312500D02*
X69932500Y-117341112D01*
X68907500Y-116316112D02*
X68907500Y-113557500D01*
X69932500Y-117341112D02*
X68907500Y-116316112D01*
X68907500Y-113557500D02*
X67561966Y-112211966D01*
%TO.N,/CM5 GPIO/GPIO15*%
X69907500Y-125562500D02*
X69907500Y-132726432D01*
X69907500Y-132726432D02*
X67561966Y-135071966D01*
%TO.N,/CM5 GPIO/GPIO17*%
X70057500Y-146342500D02*
X68760500Y-147639500D01*
X77147500Y-123957500D02*
X78457500Y-125267500D01*
X71993664Y-141290500D02*
X70057500Y-143226664D01*
X62604500Y-146673666D02*
X62604500Y-134949432D01*
X63570335Y-147639500D02*
X62604500Y-146673666D01*
X70057500Y-143226664D02*
X70057500Y-146342500D01*
X78457500Y-138626666D02*
X75793665Y-141290501D01*
X68760500Y-147639500D02*
X63570335Y-147639500D01*
X75793665Y-141290501D02*
X71993664Y-141290500D01*
X78457500Y-125267500D02*
X78457500Y-138626666D01*
X62604500Y-134949432D02*
X65021966Y-132531966D01*
%TO.N,/CM5 GPIO/GPIO2*%
X71557498Y-140237500D02*
X75357500Y-140237500D01*
X68362500Y-146537500D02*
X68857500Y-146042500D01*
X68857500Y-142937500D02*
X71557498Y-140237500D01*
X77404500Y-138190500D02*
X77404500Y-126484500D01*
X65021966Y-142691966D02*
X63657500Y-144056432D01*
X63657500Y-144056432D02*
X63657500Y-146237500D01*
X68857500Y-146042500D02*
X68857500Y-142937500D01*
X75357500Y-140237500D02*
X77404500Y-138190500D01*
X77404500Y-126484500D02*
X77132500Y-126212500D01*
X63657500Y-146237500D02*
X63957500Y-146537500D01*
X63957500Y-146537500D02*
X68362500Y-146537500D01*
%TO.N,/CM5 GPIO/CC2*%
X118965000Y-98135000D02*
X118965000Y-96765000D01*
X125600000Y-97700000D02*
X125880000Y-97700000D01*
X112600000Y-100700000D02*
X115030000Y-100700000D01*
X123730000Y-95830000D02*
X125600000Y-97700000D01*
X117415000Y-98315000D02*
X118785000Y-98315000D01*
X118965000Y-96765000D02*
X119900000Y-95830000D01*
X119900000Y-95830000D02*
X123730000Y-95830000D01*
X115030000Y-100700000D02*
X117415000Y-98315000D01*
X108800000Y-104500000D02*
X112600000Y-100700000D01*
X125880000Y-97700000D02*
X125895000Y-97685000D01*
X118785000Y-98315000D02*
X118965000Y-98135000D01*
X107300000Y-104500000D02*
X108800000Y-104500000D01*
%TO.N,/CM5 GPIO/nPWR_LED*%
X71025000Y-132550000D02*
X71660000Y-131915000D01*
X71660000Y-131915000D02*
X71660000Y-109595000D01*
%TD*%
%TA.AperFunction,Conductor*%
%TO.N,GND*%
G36*
X104404198Y-142283026D02*
G01*
X104394965Y-142280315D01*
X104367048Y-142255746D01*
X104361310Y-142248914D01*
X100654044Y-137834583D01*
X100638891Y-137800000D01*
X104400000Y-137800000D01*
X104404198Y-142283026D01*
G37*
%TD.AperFunction*%
%TD*%
%TA.AperFunction,Conductor*%
%TO.N,GND*%
G36*
X121500000Y-142176000D02*
G01*
X121480315Y-142243039D01*
X121427511Y-142288794D01*
X121376000Y-142300000D01*
X108861309Y-142300000D01*
X108794270Y-142280315D01*
X108784006Y-142272955D01*
X108765518Y-142258211D01*
X108765515Y-142258209D01*
X108765510Y-142258205D01*
X108475407Y-142075922D01*
X108166716Y-141927264D01*
X107843318Y-141814103D01*
X107843316Y-141814102D01*
X107585524Y-141755262D01*
X107509283Y-141737861D01*
X107509280Y-141737860D01*
X107509268Y-141737858D01*
X107168818Y-141699500D01*
X107168812Y-141699500D01*
X106826188Y-141699500D01*
X106826181Y-141699500D01*
X106485731Y-141737858D01*
X106485717Y-141737861D01*
X106151683Y-141814102D01*
X106151681Y-141814103D01*
X105828283Y-141927264D01*
X105519592Y-142075922D01*
X105229489Y-142258205D01*
X105222607Y-142263693D01*
X105211000Y-142272949D01*
X105146315Y-142299356D01*
X105133691Y-142300000D01*
X104462003Y-142300000D01*
X104404198Y-142283026D01*
X104404195Y-142280315D01*
X104400000Y-137800000D01*
X121500000Y-137800000D01*
X121500000Y-142176000D01*
G37*
%TD.AperFunction*%
%TD*%
%TA.AperFunction,Conductor*%
%TO.N,GND*%
G36*
X120667202Y-109215649D02*
G01*
X120810302Y-109412609D01*
X120982451Y-109584758D01*
X121179411Y-109727858D01*
X121396332Y-109838384D01*
X121433318Y-109850401D01*
X121490993Y-109889836D01*
X121518192Y-109954194D01*
X121519001Y-109968332D01*
X121519001Y-120241668D01*
X121499316Y-120308707D01*
X121446512Y-120354462D01*
X121433320Y-120359599D01*
X121396327Y-120371618D01*
X121179410Y-120482143D01*
X121067038Y-120563786D01*
X120982451Y-120625243D01*
X120982449Y-120625245D01*
X120982448Y-120625245D01*
X120810304Y-120797389D01*
X120810304Y-120797390D01*
X120810302Y-120797392D01*
X120748845Y-120881979D01*
X120667202Y-120994351D01*
X120556674Y-121211275D01*
X120481444Y-121442808D01*
X120481444Y-121442811D01*
X120443359Y-121683272D01*
X120443359Y-121926727D01*
X120481444Y-122167188D01*
X120481444Y-122167191D01*
X120556674Y-122398724D01*
X120556676Y-122398727D01*
X120667202Y-122615648D01*
X120810302Y-122812608D01*
X120982451Y-122984757D01*
X121179411Y-123127857D01*
X121396332Y-123238383D01*
X121433318Y-123250400D01*
X121490993Y-123289835D01*
X121518192Y-123354193D01*
X121519001Y-123368331D01*
X121519001Y-137729637D01*
X121518425Y-137741580D01*
X121512772Y-137800000D01*
X100638892Y-137800000D01*
X100626004Y-137770586D01*
X100625000Y-137754837D01*
X100625000Y-132443982D01*
X109624500Y-132443982D01*
X109624500Y-132556018D01*
X109653497Y-132664237D01*
X109709515Y-132761263D01*
X109788737Y-132840485D01*
X109885763Y-132896503D01*
X109993982Y-132925500D01*
X109993984Y-132925500D01*
X110106016Y-132925500D01*
X110106018Y-132925500D01*
X110214237Y-132896503D01*
X110311263Y-132840485D01*
X110390485Y-132761263D01*
X110446503Y-132664237D01*
X110475500Y-132556018D01*
X110475500Y-132443982D01*
X110446503Y-132335763D01*
X110390485Y-132238737D01*
X110311263Y-132159515D01*
X110214237Y-132103497D01*
X110106018Y-132074500D01*
X109993982Y-132074500D01*
X109885763Y-132103497D01*
X109885760Y-132103498D01*
X109788740Y-132159513D01*
X109788734Y-132159517D01*
X109709517Y-132238734D01*
X109709513Y-132238740D01*
X109653498Y-132335760D01*
X109653497Y-132335763D01*
X109624500Y-132443982D01*
X100625000Y-132443982D01*
X100625000Y-124343982D01*
X106974500Y-124343982D01*
X106974500Y-124456018D01*
X107003497Y-124564237D01*
X107059515Y-124661263D01*
X107138737Y-124740485D01*
X107235763Y-124796503D01*
X107343982Y-124825500D01*
X107343984Y-124825500D01*
X107456016Y-124825500D01*
X107456018Y-124825500D01*
X107564237Y-124796503D01*
X107661263Y-124740485D01*
X107740485Y-124661263D01*
X107796503Y-124564237D01*
X107825500Y-124456018D01*
X107825500Y-124343982D01*
X107796503Y-124235763D01*
X107740485Y-124138737D01*
X107661263Y-124059515D01*
X107564237Y-124003497D01*
X107456018Y-123974500D01*
X107343982Y-123974500D01*
X107235763Y-124003497D01*
X107235760Y-124003498D01*
X107138740Y-124059513D01*
X107138734Y-124059517D01*
X107059517Y-124138734D01*
X107059513Y-124138740D01*
X107003498Y-124235760D01*
X107003497Y-124235763D01*
X106974500Y-124343982D01*
X100625000Y-124343982D01*
X100625000Y-119173536D01*
X117743399Y-119173536D01*
X117772090Y-119317769D01*
X117772093Y-119317779D01*
X117828368Y-119453640D01*
X117828375Y-119453653D01*
X117910077Y-119575928D01*
X117910080Y-119575932D01*
X118014067Y-119679919D01*
X118014071Y-119679922D01*
X118136346Y-119761624D01*
X118136359Y-119761631D01*
X118272220Y-119817906D01*
X118272225Y-119817908D01*
X118272229Y-119817908D01*
X118272230Y-119817909D01*
X118416463Y-119846600D01*
X118416466Y-119846600D01*
X118563536Y-119846600D01*
X118660571Y-119827297D01*
X118707775Y-119817908D01*
X118843647Y-119761628D01*
X118965929Y-119679922D01*
X119069922Y-119575929D01*
X119151628Y-119453647D01*
X119207908Y-119317775D01*
X119236317Y-119174955D01*
X119268702Y-119113045D01*
X119329417Y-119078471D01*
X119399187Y-119082210D01*
X119445615Y-119111466D01*
X119514068Y-119179919D01*
X119514072Y-119179922D01*
X119636347Y-119261624D01*
X119636360Y-119261631D01*
X119772221Y-119317906D01*
X119772226Y-119317908D01*
X119772230Y-119317908D01*
X119772231Y-119317909D01*
X119916464Y-119346600D01*
X119916467Y-119346600D01*
X120063537Y-119346600D01*
X120160572Y-119327297D01*
X120207776Y-119317908D01*
X120343648Y-119261628D01*
X120465930Y-119179922D01*
X120569923Y-119075929D01*
X120651629Y-118953647D01*
X120707909Y-118817775D01*
X120722116Y-118746353D01*
X120736601Y-118673536D01*
X120736601Y-118526463D01*
X120707910Y-118382230D01*
X120707909Y-118382229D01*
X120707909Y-118382225D01*
X120695969Y-118353400D01*
X120651632Y-118246359D01*
X120651625Y-118246346D01*
X120569923Y-118124071D01*
X120569920Y-118124067D01*
X120465933Y-118020080D01*
X120465929Y-118020077D01*
X120343654Y-117938375D01*
X120343641Y-117938368D01*
X120207780Y-117882093D01*
X120207770Y-117882090D01*
X120063537Y-117853400D01*
X120063535Y-117853400D01*
X119916467Y-117853400D01*
X119916465Y-117853400D01*
X119772231Y-117882090D01*
X119772221Y-117882093D01*
X119636360Y-117938368D01*
X119636347Y-117938375D01*
X119514072Y-118020077D01*
X119514068Y-118020080D01*
X119410081Y-118124067D01*
X119410078Y-118124071D01*
X119328376Y-118246346D01*
X119328369Y-118246359D01*
X119272094Y-118382220D01*
X119272091Y-118382230D01*
X119243683Y-118525044D01*
X119211298Y-118586955D01*
X119150582Y-118621529D01*
X119080812Y-118617788D01*
X119034385Y-118588533D01*
X118965932Y-118520080D01*
X118965928Y-118520077D01*
X118843653Y-118438375D01*
X118843640Y-118438368D01*
X118707779Y-118382093D01*
X118707769Y-118382090D01*
X118563536Y-118353400D01*
X118563534Y-118353400D01*
X118416466Y-118353400D01*
X118416464Y-118353400D01*
X118272230Y-118382090D01*
X118272220Y-118382093D01*
X118136359Y-118438368D01*
X118136346Y-118438375D01*
X118014071Y-118520077D01*
X118014067Y-118520080D01*
X117910080Y-118624067D01*
X117910077Y-118624071D01*
X117828375Y-118746346D01*
X117828368Y-118746359D01*
X117772093Y-118882220D01*
X117772090Y-118882230D01*
X117743400Y-119026463D01*
X117743400Y-119026466D01*
X117743400Y-119173534D01*
X117743400Y-119173536D01*
X117743399Y-119173536D01*
X100625000Y-119173536D01*
X100625000Y-117173535D01*
X117743399Y-117173535D01*
X117772090Y-117317768D01*
X117772093Y-117317778D01*
X117828368Y-117453639D01*
X117828375Y-117453652D01*
X117910077Y-117575927D01*
X117910080Y-117575931D01*
X118014067Y-117679918D01*
X118014071Y-117679921D01*
X118136346Y-117761623D01*
X118136359Y-117761630D01*
X118272220Y-117817905D01*
X118272225Y-117817907D01*
X118272229Y-117817907D01*
X118272230Y-117817908D01*
X118416463Y-117846599D01*
X118416466Y-117846599D01*
X118563536Y-117846599D01*
X118660571Y-117827296D01*
X118707775Y-117817907D01*
X118843647Y-117761627D01*
X118965929Y-117679921D01*
X119069922Y-117575928D01*
X119151628Y-117453646D01*
X119207908Y-117317774D01*
X119236600Y-117173533D01*
X119236600Y-117026465D01*
X119236600Y-117026462D01*
X119207909Y-116882229D01*
X119207908Y-116882228D01*
X119207908Y-116882224D01*
X119193152Y-116846599D01*
X119151631Y-116746358D01*
X119151624Y-116746345D01*
X119069922Y-116624070D01*
X119069919Y-116624066D01*
X118965932Y-116520079D01*
X118965928Y-116520076D01*
X118843653Y-116438374D01*
X118843640Y-116438367D01*
X118707779Y-116382092D01*
X118707769Y-116382089D01*
X118563536Y-116353399D01*
X118563534Y-116353399D01*
X118416466Y-116353399D01*
X118416464Y-116353399D01*
X118272230Y-116382089D01*
X118272220Y-116382092D01*
X118136359Y-116438367D01*
X118136346Y-116438374D01*
X118014071Y-116520076D01*
X118014067Y-116520079D01*
X117910080Y-116624066D01*
X117910077Y-116624070D01*
X117828375Y-116746345D01*
X117828368Y-116746358D01*
X117772093Y-116882219D01*
X117772090Y-116882229D01*
X117743400Y-117026462D01*
X117743400Y-117026465D01*
X117743400Y-117173533D01*
X117743400Y-117173535D01*
X117743399Y-117173535D01*
X100625000Y-117173535D01*
X100625000Y-116173535D01*
X119243400Y-116173535D01*
X119272091Y-116317768D01*
X119272094Y-116317778D01*
X119328369Y-116453639D01*
X119328376Y-116453652D01*
X119410078Y-116575927D01*
X119410081Y-116575931D01*
X119514068Y-116679918D01*
X119514072Y-116679921D01*
X119636347Y-116761623D01*
X119636360Y-116761630D01*
X119772221Y-116817905D01*
X119772226Y-116817907D01*
X119772230Y-116817907D01*
X119772231Y-116817908D01*
X119916464Y-116846599D01*
X119916467Y-116846599D01*
X120063537Y-116846599D01*
X120160572Y-116827296D01*
X120207776Y-116817907D01*
X120343648Y-116761627D01*
X120465930Y-116679921D01*
X120569923Y-116575928D01*
X120651629Y-116453646D01*
X120707909Y-116317774D01*
X120736601Y-116173533D01*
X120736601Y-116026465D01*
X120736601Y-116026462D01*
X120707910Y-115882229D01*
X120707909Y-115882228D01*
X120707909Y-115882224D01*
X120681270Y-115817911D01*
X120651632Y-115746358D01*
X120651625Y-115746345D01*
X120569923Y-115624070D01*
X120569920Y-115624066D01*
X120465933Y-115520079D01*
X120465929Y-115520076D01*
X120343654Y-115438374D01*
X120343641Y-115438367D01*
X120207780Y-115382092D01*
X120207770Y-115382089D01*
X120063537Y-115353399D01*
X120063535Y-115353399D01*
X119916467Y-115353399D01*
X119916465Y-115353399D01*
X119772231Y-115382089D01*
X119772221Y-115382092D01*
X119636360Y-115438367D01*
X119636347Y-115438374D01*
X119514072Y-115520076D01*
X119514068Y-115520079D01*
X119410081Y-115624066D01*
X119410078Y-115624070D01*
X119328376Y-115746345D01*
X119328369Y-115746358D01*
X119272094Y-115882219D01*
X119272091Y-115882229D01*
X119243401Y-116026462D01*
X119243401Y-116026465D01*
X119243401Y-116173533D01*
X119243401Y-116173535D01*
X119243400Y-116173535D01*
X100625000Y-116173535D01*
X100625000Y-115173538D01*
X117743399Y-115173538D01*
X117772090Y-115317771D01*
X117772093Y-115317781D01*
X117828368Y-115453642D01*
X117828375Y-115453655D01*
X117910077Y-115575930D01*
X117910080Y-115575934D01*
X118014067Y-115679921D01*
X118014071Y-115679924D01*
X118136346Y-115761626D01*
X118136359Y-115761633D01*
X118272220Y-115817908D01*
X118272225Y-115817910D01*
X118272229Y-115817910D01*
X118272230Y-115817911D01*
X118416463Y-115846602D01*
X118416466Y-115846602D01*
X118563536Y-115846602D01*
X118660571Y-115827299D01*
X118707775Y-115817910D01*
X118843647Y-115761630D01*
X118965929Y-115679924D01*
X119069922Y-115575931D01*
X119151628Y-115453649D01*
X119207908Y-115317777D01*
X119236600Y-115173536D01*
X119236600Y-115026468D01*
X119236600Y-115026465D01*
X119207909Y-114882232D01*
X119207908Y-114882231D01*
X119207908Y-114882227D01*
X119185409Y-114827910D01*
X119151631Y-114746361D01*
X119151624Y-114746348D01*
X119069922Y-114624073D01*
X119069919Y-114624069D01*
X118965932Y-114520082D01*
X118965928Y-114520079D01*
X118843653Y-114438377D01*
X118843640Y-114438370D01*
X118707779Y-114382095D01*
X118707769Y-114382092D01*
X118563536Y-114353402D01*
X118563534Y-114353402D01*
X118416466Y-114353402D01*
X118416464Y-114353402D01*
X118272230Y-114382092D01*
X118272220Y-114382095D01*
X118136359Y-114438370D01*
X118136346Y-114438377D01*
X118014071Y-114520079D01*
X118014067Y-114520082D01*
X117910080Y-114624069D01*
X117910077Y-114624073D01*
X117828375Y-114746348D01*
X117828368Y-114746361D01*
X117772093Y-114882222D01*
X117772090Y-114882232D01*
X117743400Y-115026465D01*
X117743400Y-115026468D01*
X117743400Y-115173536D01*
X117743400Y-115173538D01*
X117743399Y-115173538D01*
X100625000Y-115173538D01*
X100625000Y-114183538D01*
X119243400Y-114183538D01*
X119272091Y-114327771D01*
X119272094Y-114327781D01*
X119328369Y-114463642D01*
X119328376Y-114463655D01*
X119410078Y-114585930D01*
X119410081Y-114585934D01*
X119514068Y-114689921D01*
X119514072Y-114689924D01*
X119636347Y-114771626D01*
X119636360Y-114771633D01*
X119772221Y-114827908D01*
X119772226Y-114827910D01*
X119772230Y-114827910D01*
X119772231Y-114827911D01*
X119916464Y-114856602D01*
X119916467Y-114856602D01*
X120063537Y-114856602D01*
X120160572Y-114837299D01*
X120207776Y-114827910D01*
X120343648Y-114771630D01*
X120465930Y-114689924D01*
X120569923Y-114585931D01*
X120651629Y-114463649D01*
X120707909Y-114327777D01*
X120736601Y-114183536D01*
X120736601Y-114036468D01*
X120736601Y-114036465D01*
X120707910Y-113892232D01*
X120707909Y-113892231D01*
X120707909Y-113892227D01*
X120677126Y-113817910D01*
X120651632Y-113756361D01*
X120651625Y-113756348D01*
X120569923Y-113634073D01*
X120569920Y-113634069D01*
X120465933Y-113530082D01*
X120465929Y-113530079D01*
X120343654Y-113448377D01*
X120343641Y-113448370D01*
X120207780Y-113392095D01*
X120207770Y-113392092D01*
X120063537Y-113363402D01*
X120063535Y-113363402D01*
X119916467Y-113363402D01*
X119916465Y-113363402D01*
X119772231Y-113392092D01*
X119772221Y-113392095D01*
X119636360Y-113448370D01*
X119636347Y-113448377D01*
X119514072Y-113530079D01*
X119514068Y-113530082D01*
X119410081Y-113634069D01*
X119410078Y-113634073D01*
X119328376Y-113756348D01*
X119328369Y-113756361D01*
X119272094Y-113892222D01*
X119272091Y-113892232D01*
X119243401Y-114036465D01*
X119243401Y-114036468D01*
X119243401Y-114183536D01*
X119243401Y-114183538D01*
X119243400Y-114183538D01*
X100625000Y-114183538D01*
X100625000Y-113173537D01*
X117743399Y-113173537D01*
X117772090Y-113317770D01*
X117772093Y-113317780D01*
X117828368Y-113453641D01*
X117828375Y-113453654D01*
X117910077Y-113575929D01*
X117910080Y-113575933D01*
X118014067Y-113679920D01*
X118014071Y-113679923D01*
X118136346Y-113761625D01*
X118136359Y-113761632D01*
X118272220Y-113817907D01*
X118272225Y-113817909D01*
X118272229Y-113817909D01*
X118272230Y-113817910D01*
X118416463Y-113846601D01*
X118416466Y-113846601D01*
X118563536Y-113846601D01*
X118660571Y-113827298D01*
X118707775Y-113817909D01*
X118843647Y-113761629D01*
X118965929Y-113679923D01*
X119069922Y-113575930D01*
X119151628Y-113453648D01*
X119207908Y-113317776D01*
X119236600Y-113173535D01*
X119236600Y-113026467D01*
X119236600Y-113026464D01*
X119207909Y-112882231D01*
X119207908Y-112882230D01*
X119207908Y-112882226D01*
X119207906Y-112882221D01*
X119151631Y-112746360D01*
X119151624Y-112746347D01*
X119069922Y-112624072D01*
X119069919Y-112624068D01*
X118965932Y-112520081D01*
X118965928Y-112520078D01*
X118843653Y-112438376D01*
X118843640Y-112438369D01*
X118707779Y-112382094D01*
X118707769Y-112382091D01*
X118563536Y-112353401D01*
X118563534Y-112353401D01*
X118416466Y-112353401D01*
X118416464Y-112353401D01*
X118272230Y-112382091D01*
X118272220Y-112382094D01*
X118136359Y-112438369D01*
X118136346Y-112438376D01*
X118014071Y-112520078D01*
X118014067Y-112520081D01*
X117910080Y-112624068D01*
X117910077Y-112624072D01*
X117828375Y-112746347D01*
X117828368Y-112746360D01*
X117772093Y-112882221D01*
X117772090Y-112882231D01*
X117743400Y-113026464D01*
X117743400Y-113026467D01*
X117743400Y-113173535D01*
X117743400Y-113173537D01*
X117743399Y-113173537D01*
X100625000Y-113173537D01*
X100625000Y-111173537D01*
X117743399Y-111173537D01*
X117772090Y-111317770D01*
X117772093Y-111317780D01*
X117828368Y-111453641D01*
X117828375Y-111453654D01*
X117910077Y-111575929D01*
X117910080Y-111575933D01*
X118014067Y-111679920D01*
X118014071Y-111679923D01*
X118136346Y-111761625D01*
X118136359Y-111761632D01*
X118272220Y-111817907D01*
X118272225Y-111817909D01*
X118272229Y-111817909D01*
X118272230Y-111817910D01*
X118416463Y-111846601D01*
X118416466Y-111846601D01*
X118563536Y-111846601D01*
X118660571Y-111827298D01*
X118707775Y-111817909D01*
X118805609Y-111777384D01*
X118875075Y-111769916D01*
X118937554Y-111801190D01*
X118973207Y-111861279D01*
X118974676Y-111867753D01*
X118984101Y-111915132D01*
X118984103Y-111915141D01*
X119062955Y-112105508D01*
X119062959Y-112105515D01*
X119094191Y-112152256D01*
X119634401Y-111612046D01*
X119634401Y-111656817D01*
X119658635Y-111747257D01*
X119705451Y-111828344D01*
X119771658Y-111894551D01*
X119852745Y-111941367D01*
X119943185Y-111965601D01*
X119987954Y-111965601D01*
X119447744Y-112505810D01*
X119494489Y-112537044D01*
X119494491Y-112537045D01*
X119684860Y-112615898D01*
X119684872Y-112615901D01*
X119886964Y-112656100D01*
X119886967Y-112656101D01*
X120093035Y-112656101D01*
X120093037Y-112656100D01*
X120295129Y-112615901D01*
X120295141Y-112615898D01*
X120485510Y-112537045D01*
X120485519Y-112537040D01*
X120532257Y-112505810D01*
X120532257Y-112505809D01*
X119992049Y-111965601D01*
X120036817Y-111965601D01*
X120127257Y-111941367D01*
X120208344Y-111894551D01*
X120274551Y-111828344D01*
X120321367Y-111747257D01*
X120345601Y-111656817D01*
X120345601Y-111612048D01*
X120885810Y-112152257D01*
X120917040Y-112105519D01*
X120917045Y-112105510D01*
X120995898Y-111915141D01*
X120995901Y-111915129D01*
X121036100Y-111713037D01*
X121036101Y-111713035D01*
X121036101Y-111506966D01*
X121036100Y-111506964D01*
X120995901Y-111304872D01*
X120995898Y-111304860D01*
X120917045Y-111114491D01*
X120917044Y-111114489D01*
X120885810Y-111067744D01*
X120345601Y-111607953D01*
X120345601Y-111563185D01*
X120321367Y-111472745D01*
X120274551Y-111391658D01*
X120208344Y-111325451D01*
X120127257Y-111278635D01*
X120036817Y-111254401D01*
X119992047Y-111254401D01*
X120532256Y-110714191D01*
X120485515Y-110682959D01*
X120485508Y-110682955D01*
X120295141Y-110604103D01*
X120295129Y-110604100D01*
X120093036Y-110563901D01*
X119886966Y-110563901D01*
X119684872Y-110604100D01*
X119684860Y-110604103D01*
X119494493Y-110682955D01*
X119494480Y-110682962D01*
X119330643Y-110792435D01*
X119263965Y-110813313D01*
X119196585Y-110794828D01*
X119155501Y-110751092D01*
X119155013Y-110751419D01*
X119153055Y-110748489D01*
X119152391Y-110747782D01*
X119151624Y-110746347D01*
X119069922Y-110624072D01*
X119069919Y-110624068D01*
X118965932Y-110520081D01*
X118965928Y-110520078D01*
X118843653Y-110438376D01*
X118843640Y-110438369D01*
X118707779Y-110382094D01*
X118707769Y-110382091D01*
X118563536Y-110353401D01*
X118563534Y-110353401D01*
X118416466Y-110353401D01*
X118416464Y-110353401D01*
X118272230Y-110382091D01*
X118272220Y-110382094D01*
X118136359Y-110438369D01*
X118136346Y-110438376D01*
X118014071Y-110520078D01*
X118014067Y-110520081D01*
X117910080Y-110624068D01*
X117910077Y-110624072D01*
X117828375Y-110746347D01*
X117828368Y-110746360D01*
X117772093Y-110882221D01*
X117772090Y-110882231D01*
X117743400Y-111026464D01*
X117743400Y-111026467D01*
X117743400Y-111173535D01*
X117743400Y-111173537D01*
X117743399Y-111173537D01*
X100625000Y-111173537D01*
X100625000Y-109124000D01*
X100644685Y-109056961D01*
X100697489Y-109011206D01*
X100749000Y-109000000D01*
X106699999Y-109000000D01*
X120557324Y-109000000D01*
X120667202Y-109215649D01*
G37*
%TD.AperFunction*%
%TD*%
%TA.AperFunction,Conductor*%
%TO.N,GND*%
G36*
X124476062Y-96969685D02*
G01*
X124496701Y-96986317D01*
X124760884Y-97250500D01*
X125443938Y-97933555D01*
X125443939Y-97933555D01*
X125443941Y-97933557D01*
X125473599Y-97945841D01*
X125545200Y-97975500D01*
X125554690Y-97975500D01*
X125574975Y-97982947D01*
X125595603Y-97998224D01*
X125618343Y-98010119D01*
X125619922Y-98011670D01*
X125633737Y-98025485D01*
X125730763Y-98081503D01*
X125838982Y-98110500D01*
X125838984Y-98110500D01*
X125951016Y-98110500D01*
X125951018Y-98110500D01*
X126059237Y-98081503D01*
X126156263Y-98025485D01*
X126235485Y-97946263D01*
X126291503Y-97849237D01*
X126320500Y-97741018D01*
X126320500Y-97628982D01*
X126291503Y-97520763D01*
X126235485Y-97423737D01*
X126156263Y-97344515D01*
X126073615Y-97296798D01*
X126059239Y-97288498D01*
X126059238Y-97288497D01*
X126059237Y-97288497D01*
X125951018Y-97259500D01*
X125838982Y-97259500D01*
X125730763Y-97288497D01*
X125730756Y-97288500D01*
X125716383Y-97296798D01*
X125648483Y-97313268D01*
X125582457Y-97290414D01*
X125566706Y-97277090D01*
X125451297Y-97161681D01*
X125417812Y-97100358D01*
X125422796Y-97030666D01*
X125464668Y-96974733D01*
X125530132Y-96950316D01*
X125538978Y-96950000D01*
X127950558Y-96950000D01*
X127997846Y-96962667D01*
X127998958Y-96959985D01*
X128006455Y-96963089D01*
X128006464Y-96963095D01*
X128127399Y-96995500D01*
X128127401Y-96995500D01*
X128252599Y-96995500D01*
X128252601Y-96995500D01*
X128373536Y-96963095D01*
X128373547Y-96963088D01*
X128381042Y-96959985D01*
X128382153Y-96962667D01*
X128382940Y-96962456D01*
X128394507Y-96955023D01*
X128429442Y-96950000D01*
X128526000Y-96950000D01*
X128593039Y-96969685D01*
X128638794Y-97022489D01*
X128650000Y-97074000D01*
X128650000Y-98981294D01*
X128630315Y-99048333D01*
X128577511Y-99094088D01*
X128508353Y-99104032D01*
X128444797Y-99075007D01*
X128407023Y-99016229D01*
X128406237Y-99013432D01*
X128401503Y-98995763D01*
X128345485Y-98898737D01*
X128266263Y-98819515D01*
X128169237Y-98763497D01*
X128061018Y-98734500D01*
X127948982Y-98734500D01*
X127840763Y-98763497D01*
X127840760Y-98763498D01*
X127743740Y-98819513D01*
X127743734Y-98819517D01*
X127664517Y-98898734D01*
X127664513Y-98898740D01*
X127608498Y-98995760D01*
X127608498Y-98995761D01*
X127608497Y-98995763D01*
X127579500Y-99103982D01*
X127579500Y-99216018D01*
X127608497Y-99324237D01*
X127664515Y-99421263D01*
X127743737Y-99500485D01*
X127815654Y-99542006D01*
X127834025Y-99552613D01*
X127882241Y-99603180D01*
X127895463Y-99671787D01*
X127869495Y-99736652D01*
X127834025Y-99767387D01*
X127743740Y-99819513D01*
X127743734Y-99819517D01*
X127664517Y-99898734D01*
X127664513Y-99898740D01*
X127608498Y-99995760D01*
X127608498Y-99995761D01*
X127608497Y-99995763D01*
X127579500Y-100103982D01*
X127579500Y-100216018D01*
X127608497Y-100324237D01*
X127664515Y-100421263D01*
X127743737Y-100500485D01*
X127784011Y-100523737D01*
X127823273Y-100546405D01*
X127871489Y-100596972D01*
X127884712Y-100665579D01*
X127881048Y-100685881D01*
X127869500Y-100728982D01*
X127869500Y-100841018D01*
X127898497Y-100949237D01*
X127954515Y-101046263D01*
X128033737Y-101125485D01*
X128130763Y-101181503D01*
X128238982Y-101210500D01*
X128238984Y-101210500D01*
X128351016Y-101210500D01*
X128351018Y-101210500D01*
X128459237Y-101181503D01*
X128464000Y-101178752D01*
X128531899Y-101162280D01*
X128597926Y-101185132D01*
X128641117Y-101240053D01*
X128650000Y-101286140D01*
X128650000Y-101801746D01*
X128630315Y-101868785D01*
X128577511Y-101914540D01*
X128508353Y-101924484D01*
X128464001Y-101909134D01*
X128373536Y-101856905D01*
X128373537Y-101856905D01*
X128333224Y-101846103D01*
X128252601Y-101824500D01*
X128127399Y-101824500D01*
X128046775Y-101846103D01*
X128006463Y-101856905D01*
X127898037Y-101919504D01*
X127898034Y-101919506D01*
X127809506Y-102008034D01*
X127809504Y-102008037D01*
X127746905Y-102116463D01*
X127746905Y-102116464D01*
X127714500Y-102237399D01*
X127714500Y-102362601D01*
X127746905Y-102483536D01*
X127809505Y-102591964D01*
X127898036Y-102680495D01*
X128006464Y-102743095D01*
X128127399Y-102775500D01*
X128127401Y-102775500D01*
X128252599Y-102775500D01*
X128252601Y-102775500D01*
X128373536Y-102743095D01*
X128464001Y-102690865D01*
X128531901Y-102674393D01*
X128597927Y-102697246D01*
X128641118Y-102752167D01*
X128650000Y-102798253D01*
X128650000Y-103058663D01*
X128630315Y-103125702D01*
X128577511Y-103171457D01*
X128508353Y-103181401D01*
X128478552Y-103173226D01*
X128471786Y-103170424D01*
X128471785Y-103170423D01*
X128471784Y-103170423D01*
X128319057Y-103129500D01*
X127060943Y-103129500D01*
X126908216Y-103170423D01*
X126908209Y-103170426D01*
X126771290Y-103249475D01*
X126771282Y-103249481D01*
X126659481Y-103361282D01*
X126659475Y-103361290D01*
X126580426Y-103498209D01*
X126580423Y-103498216D01*
X126539500Y-103650943D01*
X126539500Y-103809057D01*
X126553686Y-103861998D01*
X126580423Y-103961783D01*
X126580426Y-103961790D01*
X126659475Y-104098709D01*
X126659479Y-104098714D01*
X126659480Y-104098716D01*
X126771284Y-104210520D01*
X126771286Y-104210521D01*
X126771290Y-104210524D01*
X126890426Y-104279306D01*
X126908216Y-104289577D01*
X127060943Y-104330500D01*
X127060945Y-104330500D01*
X128319055Y-104330500D01*
X128319057Y-104330500D01*
X128471784Y-104289577D01*
X128471792Y-104289571D01*
X128478545Y-104286776D01*
X128548014Y-104279306D01*
X128610494Y-104310579D01*
X128646148Y-104370668D01*
X128650000Y-104401336D01*
X128650000Y-108876000D01*
X128630315Y-108943039D01*
X128577511Y-108988794D01*
X128526000Y-109000000D01*
X123593701Y-109000000D01*
X123526662Y-108980315D01*
X123480907Y-108927511D01*
X123470963Y-108858353D01*
X123475770Y-108837682D01*
X123498673Y-108767192D01*
X123498673Y-108767191D01*
X123498674Y-108767188D01*
X123536759Y-108526729D01*
X123536759Y-108283273D01*
X123498674Y-108042814D01*
X123498673Y-108042810D01*
X123498673Y-108042809D01*
X123423443Y-107811276D01*
X123312915Y-107594352D01*
X123169816Y-107397393D01*
X122997667Y-107225244D01*
X122800707Y-107082144D01*
X122583783Y-106971616D01*
X122352249Y-106896386D01*
X122171901Y-106867822D01*
X122111787Y-106858301D01*
X121868331Y-106858301D01*
X121788178Y-106870996D01*
X121627870Y-106896386D01*
X121627867Y-106896386D01*
X121396334Y-106971616D01*
X121179410Y-107082144D01*
X121067038Y-107163787D01*
X120982451Y-107225244D01*
X120982449Y-107225246D01*
X120982448Y-107225246D01*
X120810304Y-107397390D01*
X120810304Y-107397391D01*
X120810302Y-107397393D01*
X120748845Y-107481980D01*
X120667202Y-107594352D01*
X120556674Y-107811276D01*
X120481444Y-108042809D01*
X120481444Y-108042812D01*
X120443359Y-108283273D01*
X120443359Y-108526728D01*
X120481444Y-108767189D01*
X120481444Y-108767192D01*
X120556675Y-108998727D01*
X120556675Y-108998728D01*
X120557323Y-109000000D01*
X106700000Y-109000000D01*
X112214636Y-103861998D01*
X112277103Y-103830702D01*
X112298332Y-103828727D01*
X116600000Y-103800000D01*
X119700000Y-100800000D01*
X119700000Y-98867342D01*
X119719685Y-98800303D01*
X119756484Y-98763334D01*
X122519203Y-96969990D01*
X122586152Y-96950001D01*
X122586717Y-96950000D01*
X124409023Y-96950000D01*
X124476062Y-96969685D01*
G37*
%TD.AperFunction*%
%TD*%
M02*
