%TF.GenerationSoftware,KiCad,Pcbnew,9.0.3*%
%TF.CreationDate,2025-11-22T17:19:00-06:00*%
%TF.ProjectId,PiBoard,5069426f-6172-4642-9e6b-696361645f70,rev?*%
%TF.SameCoordinates,Original*%
%TF.FileFunction,Copper,L3,Inr*%
%TF.FilePolarity,Positive*%
%FSLAX46Y46*%
G04 Gerber Fmt 4.6, Leading zero omitted, Abs format (unit mm)*
G04 Created by KiCad (PCBNEW 9.0.3) date 2025-11-22 17:19:00*
%MOMM*%
%LPD*%
G01*
G04 APERTURE LIST*
G04 Aperture macros list*
%AMFreePoly0*
4,1,22,0.945671,0.830970,1.026777,0.776777,1.080970,0.695671,1.100000,0.600000,1.100000,-0.600000,1.080970,-0.695671,1.026777,-0.776777,0.945671,-0.830970,0.850000,-0.850000,-0.450000,-0.850000,-0.545671,-0.830970,-0.626777,-0.776777,-1.026777,-0.376777,-1.080970,-0.295671,-1.100000,-0.200000,-1.100000,0.600000,-1.080970,0.695671,-1.026777,0.776777,-0.945671,0.830970,-0.850000,0.850000,
0.850000,0.850000,0.945671,0.830970,0.945671,0.830970,$1*%
G04 Aperture macros list end*
%TA.AperFunction,ComponentPad*%
%ADD10C,2.400000*%
%TD*%
%TA.AperFunction,ComponentPad*%
%ADD11O,1.700000X2.200000*%
%TD*%
%TA.AperFunction,ComponentPad*%
%ADD12FreePoly0,90.000000*%
%TD*%
%TA.AperFunction,ComponentPad*%
%ADD13O,1.700000X1.700000*%
%TD*%
%TA.AperFunction,ComponentPad*%
%ADD14R,1.700000X1.700000*%
%TD*%
%TA.AperFunction,ComponentPad*%
%ADD15C,1.100000*%
%TD*%
%TA.AperFunction,ComponentPad*%
%ADD16O,2.300000X1.500000*%
%TD*%
%TA.AperFunction,ComponentPad*%
%ADD17O,3.300000X1.500000*%
%TD*%
%TA.AperFunction,ComponentPad*%
%ADD18C,2.692400*%
%TD*%
%TA.AperFunction,ComponentPad*%
%ADD19C,1.092200*%
%TD*%
%TA.AperFunction,ComponentPad*%
%ADD20C,1.066800*%
%TD*%
%TA.AperFunction,ComponentPad*%
%ADD21C,1.700000*%
%TD*%
%TA.AperFunction,ViaPad*%
%ADD22C,0.450000*%
%TD*%
%TA.AperFunction,ViaPad*%
%ADD23C,0.600000*%
%TD*%
%TA.AperFunction,Conductor*%
%ADD24C,0.300000*%
%TD*%
%TA.AperFunction,Conductor*%
%ADD25C,0.150000*%
%TD*%
%TA.AperFunction,Conductor*%
%ADD26C,0.250000*%
%TD*%
%TA.AperFunction,Conductor*%
%ADD27C,0.200000*%
%TD*%
G04 APERTURE END LIST*
D10*
%TO.N,+24V*%
%TO.C,F1*%
X90938500Y-84013500D03*
%TO.N,Net-(J2-+24V)*%
X90938500Y-74093500D03*
%TO.N,+24V*%
X94338500Y-84013500D03*
%TO.N,Net-(J2-+24V)*%
X94338500Y-74093500D03*
%TD*%
D11*
%TO.N,GND*%
%TO.C,J1*%
X111600000Y-73033500D03*
D12*
%TO.N,/Power Distribution/LV+*%
X109100000Y-73033500D03*
%TD*%
D11*
%TO.N,GND*%
%TO.C,J2*%
X101050000Y-73033500D03*
D12*
%TO.N,Net-(J2-+24V)*%
X98550000Y-73033500D03*
%TD*%
D13*
%TO.N,/CM5 GPIO/GPIO21*%
%TO.C,J3*%
X67561966Y-96971966D03*
%TO.N,GND*%
X65021966Y-96971966D03*
%TO.N,/CM5 GPIO/GPIO20*%
X67561966Y-99511966D03*
%TO.N,/CM5 GPIO/GPIO26*%
X65021966Y-99511966D03*
%TO.N,/CM5 GPIO/GPIO16*%
X67561966Y-102051966D03*
%TO.N,/CM5 GPIO/GPIO19*%
X65021966Y-102051966D03*
%TO.N,GND*%
X67561966Y-104591966D03*
%TO.N,/CM5 GPIO/GPIO13*%
X65021966Y-104591966D03*
%TO.N,/CM5 GPIO/CAN_INTR*%
X67561966Y-107131966D03*
%TO.N,/CM5 GPIO/GPIO6*%
X65021966Y-107131966D03*
%TO.N,GND*%
X67561966Y-109671966D03*
%TO.N,/CM5 GPIO/GPIO5*%
X65021966Y-109671966D03*
%TO.N,/CM5 GPIO/GPIO1*%
X67561966Y-112211966D03*
%TO.N,/CM5 GPIO/GPIO0*%
X65021966Y-112211966D03*
%TO.N,/CM5 GPIO/GPIO7*%
X67561966Y-114751966D03*
%TO.N,GND*%
X65021966Y-114751966D03*
%TO.N,/CM5 GPIO/CAN_SPI_CS*%
X67561966Y-117291966D03*
%TO.N,/CM5 GPIO/CAN_SPI_CLK*%
X65021966Y-117291966D03*
%TO.N,/CM5 GPIO/GPIO25*%
X67561966Y-119831966D03*
%TO.N,/CM5 GPIO/CAN_SPI_MISO*%
X65021966Y-119831966D03*
%TO.N,GND*%
X67561966Y-122371966D03*
%TO.N,/CM5 GPIO/CAN_SPI_MOSI*%
X65021966Y-122371966D03*
%TO.N,/CM5 GPIO/GPIO24*%
X67561966Y-124911966D03*
%TO.N,+3.3V*%
X65021966Y-124911966D03*
%TO.N,/CM5 GPIO/GPIO23*%
X67561966Y-127451966D03*
%TO.N,/CM5 GPIO/GPIO22*%
X65021966Y-127451966D03*
%TO.N,GND*%
X67561966Y-129991966D03*
%TO.N,/CM5 GPIO/GPIO27*%
X65021966Y-129991966D03*
%TO.N,/CM5 GPIO/GPIO18*%
X67561966Y-132531966D03*
%TO.N,/CM5 GPIO/GPIO17*%
X65021966Y-132531966D03*
%TO.N,/CM5 GPIO/GPIO15*%
X67561966Y-135071966D03*
%TO.N,GND*%
X65021966Y-135071966D03*
%TO.N,/CM5 GPIO/GPIO14*%
X67561966Y-137611966D03*
%TO.N,/CM5 GPIO/GPIO4*%
X65021966Y-137611966D03*
%TO.N,GND*%
X67561966Y-140151966D03*
%TO.N,/CM5 GPIO/GPIO3*%
X65021966Y-140151966D03*
%TO.N,+5V*%
X67561966Y-142691966D03*
%TO.N,/CM5 GPIO/GPIO2*%
X65021966Y-142691966D03*
%TO.N,+5V*%
X67561966Y-145231966D03*
D14*
%TO.N,+3.3V*%
X65021966Y-145231966D03*
%TD*%
D15*
%TO.N,GND*%
%TO.C,J5*%
X131150000Y-97750000D03*
X126850000Y-97750000D03*
X131150000Y-102550000D03*
X126850000Y-102550000D03*
%TD*%
D11*
%TO.N,/CarCAN/CAN_L*%
%TO.C,J6*%
X129571000Y-73053500D03*
D12*
%TO.N,/CarCAN/CAN_H*%
X127071000Y-73053500D03*
%TD*%
D16*
%TO.N,Net-(J7-CKS)*%
%TO.C,J7*%
X129735000Y-139450000D03*
X129735000Y-124950000D03*
D17*
X123775000Y-139450000D03*
X123775000Y-124950000D03*
%TD*%
D11*
%TO.N,/CarCAN/CAN_L*%
%TO.C,J8*%
X121771000Y-73053500D03*
D12*
%TO.N,/CarCAN/CAN_H*%
X119271000Y-73053500D03*
%TD*%
D18*
%TO.N,Net-(J9-DRAIN)*%
%TO.C,J9*%
X121990059Y-107900000D03*
X121990059Y-121299999D03*
D19*
%TO.N,/High Speed/USB_HUB_TX1+*%
X118490000Y-118594999D03*
%TO.N,/High Speed/USB_HUB_TX1-*%
X118490000Y-116594998D03*
%TO.N,Net-(J9-DRAIN)*%
X118490000Y-114595001D03*
%TO.N,/High Speed/USB_HUB_RX1+*%
X118490000Y-112595000D03*
%TO.N,/High Speed/USB_HUB_RX1-*%
X118490000Y-110595000D03*
%TO.N,GND*%
X119990001Y-111105000D03*
%TO.N,/High Speed/USB_HUB_D+*%
X119990001Y-113605001D03*
%TO.N,/High Speed/USB_HUB_D-*%
X119990001Y-115594998D03*
%TO.N,Net-(J9-VBUS)*%
X119990001Y-118094999D03*
%TD*%
D20*
%TO.N,GND*%
%TO.C,J11*%
X65700000Y-148575000D03*
%TO.N,/CM5 GPIO/RTC_Batt*%
X66950000Y-148575000D03*
%TD*%
D13*
%TO.N,Net-(JP1-B)*%
%TO.C,JP1*%
X129648500Y-80133500D03*
D14*
%TO.N,/CarCAN/CAN_H*%
X127108500Y-80133500D03*
%TD*%
D21*
%TO.N,/CM5 GPIO/WiFi_Disable*%
%TO.C,JP2*%
X102300000Y-153085000D03*
D14*
%TO.N,GND*%
X102300000Y-155625000D03*
%TD*%
D21*
%TO.N,/CM5 GPIO/BT_Disable*%
%TO.C,JP3*%
X98075000Y-153085000D03*
D14*
%TO.N,GND*%
X98075000Y-155625000D03*
%TD*%
D21*
%TO.N,/CM5 GPIO/nRPIBOOT*%
%TO.C,JP4*%
X93725000Y-153075000D03*
D14*
%TO.N,GND*%
X93725000Y-155615000D03*
%TD*%
D21*
%TO.N,/CM5 GPIO/EEPROM_nWP*%
%TO.C,JP5*%
X106550000Y-153075000D03*
D14*
%TO.N,GND*%
X106550000Y-155615000D03*
%TD*%
D22*
%TO.N,GND*%
X101500000Y-136850000D03*
X102500000Y-131850000D03*
X115325000Y-133425000D03*
X122950000Y-102475000D03*
D23*
X129025000Y-148312500D03*
D22*
X102500000Y-119850000D03*
D23*
X99991000Y-89850000D03*
D22*
X117775000Y-133450000D03*
X103500000Y-133850000D03*
X103500000Y-110950000D03*
X101500000Y-122850000D03*
X103500000Y-113850000D03*
X116600000Y-130500000D03*
X102500000Y-132850000D03*
X101500000Y-120850000D03*
X102500000Y-117850000D03*
X106800000Y-130100000D03*
X103500000Y-125850000D03*
X109800000Y-106450000D03*
X106925000Y-125300000D03*
D23*
X124767500Y-145105000D03*
D22*
X102500000Y-121850000D03*
D23*
X73500000Y-123550000D03*
D22*
X108200000Y-114675966D03*
X103500000Y-116850000D03*
X103500000Y-136850000D03*
D23*
X81650000Y-80600000D03*
X82320000Y-151200000D03*
D22*
X103500000Y-124850000D03*
D23*
X71900000Y-150250000D03*
X75050000Y-134000000D03*
D22*
X112475000Y-107950000D03*
X103500000Y-119850000D03*
X101500000Y-130850000D03*
X112425000Y-120050000D03*
X111600000Y-104750000D03*
X119500000Y-105550000D03*
X102500000Y-114850000D03*
X112700000Y-117575000D03*
D23*
X119900000Y-138287500D03*
D22*
X116175000Y-103600000D03*
X101500000Y-109950000D03*
X112700000Y-118875000D03*
X102500000Y-136850000D03*
X102500000Y-113850000D03*
X103500000Y-122850000D03*
X101500000Y-129850000D03*
X116625000Y-131950000D03*
D23*
X73475000Y-115800000D03*
X120050000Y-144547000D03*
D22*
X103500000Y-120850000D03*
X103500000Y-109950000D03*
D23*
X111750000Y-139850000D03*
D22*
X102500000Y-124850000D03*
X108200000Y-119475966D03*
X108100000Y-130100000D03*
X120650000Y-128950000D03*
X101500000Y-118850000D03*
X117800000Y-131950000D03*
X108200000Y-120627966D03*
X102500000Y-123850000D03*
D23*
X125275000Y-83550000D03*
D22*
X102500000Y-110950000D03*
D23*
X73500000Y-125000000D03*
D22*
X110975000Y-119150000D03*
X101500000Y-133850000D03*
D23*
X130500000Y-92300000D03*
X73475000Y-113450000D03*
D22*
X101500000Y-126850000D03*
D23*
X116675000Y-85725000D03*
D22*
X101500000Y-111900000D03*
X113775000Y-131950000D03*
X113800000Y-130500000D03*
X111550000Y-113950000D03*
X107950000Y-107850000D03*
X118050000Y-135075000D03*
X111375000Y-117975000D03*
D23*
X79709750Y-74422250D03*
X127400000Y-84100000D03*
D22*
X106800000Y-131300000D03*
X101500000Y-112900000D03*
X106800000Y-127700000D03*
X103500000Y-131850000D03*
X106925000Y-126400000D03*
X102500000Y-122850000D03*
X103500000Y-130850000D03*
D23*
X82650000Y-79950000D03*
D22*
X113750000Y-133425000D03*
X102500000Y-127850000D03*
X125700000Y-100900000D03*
X102500000Y-120850000D03*
X101500000Y-114850000D03*
X118425000Y-102425000D03*
X102500000Y-129850000D03*
X111400000Y-115425000D03*
X102500000Y-135850000D03*
D23*
X83107500Y-156787500D03*
X79357500Y-156787500D03*
D22*
X106800000Y-114675966D03*
X108100000Y-132500000D03*
X112450000Y-113000000D03*
X121800000Y-98400000D03*
X101500000Y-131850000D03*
D23*
X73550000Y-119700000D03*
X115100000Y-145078000D03*
D22*
X117775000Y-130500000D03*
X106800000Y-132500000D03*
X102500000Y-130850000D03*
X102500000Y-134850000D03*
X106800000Y-128900000D03*
D23*
X73475000Y-114650000D03*
D22*
X102500000Y-115850000D03*
X103500000Y-128850000D03*
D23*
X115112500Y-144265500D03*
D22*
X103500000Y-129850000D03*
D23*
X87006000Y-73253500D03*
X125475000Y-90675000D03*
D22*
X102500000Y-128850000D03*
X101500000Y-115850000D03*
X120625000Y-133400000D03*
D23*
X115112500Y-145865500D03*
D22*
X101500000Y-119850000D03*
X101500000Y-117850000D03*
D23*
X121000000Y-135850000D03*
X83700000Y-79250000D03*
D22*
X101500000Y-135850000D03*
X106800000Y-120627966D03*
X101500000Y-124850000D03*
X121500000Y-104000000D03*
X103500000Y-126850000D03*
X102500000Y-126850000D03*
X108100000Y-127800000D03*
X115325000Y-131950000D03*
X102500000Y-109950000D03*
D23*
X125000000Y-135400000D03*
X89938500Y-87350000D03*
D22*
X103500000Y-127850000D03*
X108100000Y-125300000D03*
X103500000Y-111900000D03*
X120600000Y-131950000D03*
X117800000Y-128950000D03*
X101500000Y-121850000D03*
X115300000Y-130500000D03*
X116575000Y-128950000D03*
X101500000Y-116850000D03*
X101500000Y-134850000D03*
X102500000Y-116850000D03*
X116625000Y-133425000D03*
X102500000Y-112900000D03*
D23*
X109500000Y-90500000D03*
D22*
X116150000Y-118350000D03*
X108100000Y-129000000D03*
X106800000Y-117027966D03*
X103500000Y-123850000D03*
X103500000Y-118850000D03*
D23*
X73607500Y-156787500D03*
X82950000Y-88300000D03*
X81650000Y-79250000D03*
X83700000Y-80600000D03*
D22*
X108200000Y-117075966D03*
X113800000Y-103675000D03*
X101500000Y-128850000D03*
D23*
X128300000Y-138350000D03*
X88857500Y-156787500D03*
X124812500Y-94012500D03*
D22*
X115300000Y-128950000D03*
D23*
X73500000Y-126250000D03*
X73500000Y-121600000D03*
D22*
X120625000Y-130425000D03*
X102500000Y-111900000D03*
D23*
X115450000Y-106537500D03*
D22*
X103500000Y-112900000D03*
X120375000Y-100600000D03*
D23*
X124755000Y-145817500D03*
X64006000Y-77091000D03*
D22*
X101500000Y-123850000D03*
X103500000Y-121850000D03*
X103500000Y-114850000D03*
X102500000Y-133850000D03*
X113825000Y-128950000D03*
X115927500Y-112325000D03*
D23*
X114700000Y-84500000D03*
D22*
X103500000Y-134850000D03*
X101500000Y-127850000D03*
D23*
X114125000Y-97975000D03*
D22*
X103500000Y-135850000D03*
X111375000Y-116700000D03*
X102500000Y-125850000D03*
X101500000Y-110950000D03*
X101500000Y-125850000D03*
X106800000Y-119427966D03*
X108100000Y-126500000D03*
D23*
X64006000Y-81256000D03*
D22*
X103500000Y-115850000D03*
X103500000Y-132850000D03*
X101500000Y-113850000D03*
D23*
X124755000Y-144317500D03*
D22*
X103500000Y-117850000D03*
D23*
X73500000Y-127700000D03*
D22*
X102500000Y-118850000D03*
X101500000Y-132850000D03*
%TO.N,Net-(C1-Pad1)*%
X129075025Y-98900000D03*
X128966935Y-101522833D03*
D23*
%TO.N,+3.3V*%
X112910000Y-91360000D03*
X76200000Y-129450000D03*
X80441000Y-68036000D03*
X108600000Y-101950000D03*
X74208912Y-128792743D03*
X65400000Y-86750000D03*
X115400000Y-73200000D03*
X82070000Y-126270000D03*
X126400000Y-92450000D03*
X74200000Y-130050000D03*
%TO.N,/CM5 GPIO/PWR_BUTT*%
X84700000Y-150287500D03*
X76357500Y-142037500D03*
X76357500Y-131800000D03*
X76357500Y-138337500D03*
%TO.N,Net-(IC3-SRC)*%
X105200000Y-84100000D03*
X104410375Y-85910375D03*
%TO.N,/CM5 GPIO/GLOBAL_EN*%
X75250000Y-150287500D03*
D22*
X123350000Y-146700000D03*
X112962500Y-146065500D03*
%TO.N,/High Speed/USB_DBG_D+*%
X129310000Y-99940000D03*
X127510000Y-100420000D03*
%TO.N,/High Speed/HDMI0_CEC*%
X107400000Y-124400000D03*
X110050000Y-132500000D03*
%TO.N,Net-(J5-CC1)*%
X129000000Y-100895000D03*
X131675025Y-100870000D03*
%TO.N,/CM5 GPIO/GPIO14*%
X70507500Y-126087500D03*
%TO.N,/CM5 GPIO/GPIO18*%
X69382500Y-124969608D03*
%TO.N,/CM5 GPIO/CAN_INTR*%
X70432500Y-117787963D03*
D23*
X119825000Y-92800000D03*
X76475142Y-102147461D03*
D22*
%TO.N,/CM5 GPIO/GPIO6*%
X77157500Y-118188086D03*
%TO.N,/CM5 GPIO/GPIO20*%
X72950000Y-118900000D03*
%TO.N,/CM5 GPIO/GPIO0*%
X77154038Y-119692827D03*
%TO.N,/CM5 GPIO/GPIO24*%
X70493034Y-122251966D03*
%TO.N,/CM5 GPIO/GPIO7*%
X69382500Y-118853586D03*
%TO.N,/CM5 GPIO/GPIO25*%
X70496966Y-121451966D03*
D23*
%TO.N,/CM5 GPIO/CAN_SPI_MOSI*%
X121725000Y-93473455D03*
D22*
X77157500Y-121751966D03*
%TO.N,/CM5 GPIO/GPIO16*%
X70507500Y-116317500D03*
%TO.N,/CM5 GPIO/GPIO4*%
X77147500Y-124687500D03*
%TO.N,/CM5 GPIO/GPIO22*%
X77170000Y-122425000D03*
D23*
%TO.N,/CM5 GPIO/CAN_SPI_CS*%
X72457500Y-105937500D03*
X122700000Y-89875000D03*
D22*
X69367970Y-119615862D03*
D23*
X75957500Y-101537500D03*
D22*
%TO.N,/CM5 GPIO/GPIO27*%
X77182500Y-123212500D03*
%TO.N,/CM5 GPIO/GPIO13*%
X77157501Y-117442606D03*
D23*
X76657500Y-107337500D03*
X80434500Y-107337500D03*
X71800000Y-70325000D03*
D22*
%TO.N,/CM5 GPIO/GPIO3*%
X77131716Y-125504608D03*
D23*
%TO.N,/CM5 GPIO/CAN_SPI_CLK*%
X76000000Y-103640000D03*
X75307500Y-100987500D03*
X119825000Y-89900000D03*
D22*
X77165452Y-120386656D03*
%TO.N,/CM5 GPIO/GPIO21*%
X70507500Y-115112500D03*
D23*
%TO.N,/CM5 GPIO/GPIO19*%
X80434500Y-108737500D03*
X85000000Y-71400000D03*
X75557500Y-108737500D03*
D22*
X77157500Y-116737500D03*
%TO.N,/CM5 GPIO/GPIO23*%
X69370000Y-124275000D03*
D23*
%TO.N,/CM5 GPIO/CAN_SPI_MISO*%
X122400000Y-92900000D03*
D22*
X77164552Y-121071821D03*
%TO.N,/CM5 GPIO/GPIO26*%
X77153946Y-116033946D03*
D23*
X74457500Y-110037500D03*
X93100000Y-70200000D03*
X80434500Y-110037500D03*
D22*
%TO.N,/CM5 GPIO/GPIO1*%
X69932500Y-118312500D03*
%TO.N,/CM5 GPIO/GPIO15*%
X69907500Y-125562500D03*
%TO.N,/CM5 GPIO/GPIO17*%
X77147500Y-123957500D03*
%TO.N,/CM5 GPIO/GPIO5*%
X77158270Y-118979623D03*
%TO.N,/CM5 GPIO/GPIO2*%
X77132500Y-126212500D03*
D23*
%TO.N,/CM5 GPIO/RTC_Batt*%
X76540000Y-128030000D03*
%TO.N,/CM5 GPIO/FAN_TACHO*%
X111950000Y-101350000D03*
X81475000Y-114300000D03*
%TO.N,/CM5 GPIO/FAN_PWM*%
X112185000Y-94400000D03*
X80240325Y-114898544D03*
X77075000Y-114925000D03*
X113650000Y-96750000D03*
D22*
X73500000Y-117000000D03*
D23*
%TO.N,/CM5 GPIO/BT_Disable*%
X79607500Y-136693240D03*
%TO.N,/CM5 GPIO/EEPROM_nWP*%
X80255000Y-116035000D03*
%TO.N,/CM5 GPIO/WiFi_Disable*%
X80172801Y-136127168D03*
D22*
%TO.N,/CM5 GPIO/nPWR_LED*%
X70220000Y-100890000D03*
X71660000Y-109595000D03*
X71025000Y-132550000D03*
D23*
%TO.N,/CM5 GPIO/nRPIBOOT*%
X79032500Y-137250000D03*
D22*
%TO.N,/CM5 GPIO/LED_nACT*%
X73399999Y-117642264D03*
X72535000Y-102960000D03*
D23*
%TO.N,/Power Distribution/LV+*%
X107200000Y-89500000D03*
X107000000Y-86900000D03*
%TO.N,Net-(J7-+5V)*%
X125500000Y-136300000D03*
X127100000Y-140500000D03*
%TO.N,Net-(J9-VBUS)*%
X120300000Y-148300000D03*
%TD*%
D24*
%TO.N,+3.3V*%
X74208912Y-128792743D02*
X70565859Y-128792743D01*
X78600000Y-73550000D02*
X78600000Y-72450000D01*
X65400000Y-86750000D02*
X78600000Y-73550000D01*
X67074850Y-141515966D02*
X66197966Y-142392850D01*
X67861082Y-141515966D02*
X67074850Y-141515966D01*
X80450000Y-70600000D02*
X80450000Y-68045000D01*
X66197966Y-142392850D02*
X66197966Y-144055966D01*
X70565859Y-128792743D02*
X67861082Y-126087966D01*
X74200000Y-130050000D02*
X74200000Y-135177048D01*
X66197966Y-126087966D02*
X65021966Y-124911966D01*
X67861082Y-126087966D02*
X66197966Y-126087966D01*
X78600000Y-72450000D02*
X80450000Y-70600000D01*
X80450000Y-68045000D02*
X80441000Y-68036000D01*
X66197966Y-144055966D02*
X65021966Y-145231966D01*
X74200000Y-135177048D02*
X67861082Y-141515966D01*
D25*
%TO.N,/CM5 GPIO/PWR_BUTT*%
X77357500Y-143037500D02*
X76357500Y-142037500D01*
X77357500Y-147957500D02*
X77357500Y-143037500D01*
X76357500Y-131800000D02*
X76357500Y-138337500D01*
X84700000Y-150287500D02*
X79687500Y-150287500D01*
X79687500Y-150287500D02*
X77357500Y-147957500D01*
D26*
%TO.N,Net-(IC3-SRC)*%
X104410375Y-85910375D02*
X105200000Y-85120750D01*
X105200000Y-85120750D02*
X105200000Y-84100000D01*
D25*
%TO.N,/CM5 GPIO/CAN_INTR*%
X81848000Y-96802000D02*
X76502539Y-102147461D01*
X99990777Y-96802000D02*
X81848000Y-96802000D01*
X109140777Y-92748000D02*
X104044778Y-92748000D01*
X104044778Y-92748000D02*
X99990777Y-96802000D01*
X109391776Y-92999000D02*
X109140777Y-92748000D01*
X119626000Y-92999000D02*
X109391776Y-92999000D01*
X76502539Y-102147461D02*
X76475142Y-102147461D01*
X119825000Y-92800000D02*
X119626000Y-92999000D01*
%TO.N,/CM5 GPIO/GPIO0*%
X64391400Y-95236500D02*
X68423600Y-95236500D01*
X63257500Y-108474600D02*
X63256500Y-108473600D01*
X69258500Y-96071400D02*
X69258500Y-98138500D01*
X63256500Y-108473600D02*
X63256500Y-96371400D01*
X78055500Y-118791365D02*
X77154038Y-119692827D01*
X69258500Y-98138500D02*
X78055500Y-106935500D01*
X65021966Y-112211966D02*
X63257500Y-110447500D01*
X63256500Y-96371400D02*
X64391400Y-95236500D01*
X78055500Y-106935500D02*
X78055500Y-118791365D01*
X63257500Y-110447500D02*
X63257500Y-108474600D01*
X68423600Y-95236500D02*
X69258500Y-96071400D01*
%TO.N,/CM5 GPIO/CAN_SPI_MOSI*%
X83296000Y-97504000D02*
X79157500Y-101642500D01*
X78457500Y-122935051D02*
X78457500Y-138137500D01*
X69608500Y-143182888D02*
X69608500Y-146086500D01*
X62955500Y-146535500D02*
X62955500Y-124438432D01*
X78457500Y-138137500D02*
X75655500Y-140939500D01*
X77192928Y-121751966D02*
X77157500Y-121751966D01*
X120824757Y-93475243D02*
X120500000Y-93800000D01*
X121725000Y-93473455D02*
X121723212Y-93475243D01*
X69608500Y-146086500D02*
X68406500Y-147288500D01*
X77157500Y-121751966D02*
X77274415Y-121751966D01*
X62955500Y-124438432D02*
X65021966Y-122371966D01*
X109200000Y-93800000D02*
X108850000Y-93450000D01*
X75655500Y-140939500D02*
X71851888Y-140939500D01*
X104335555Y-93450000D02*
X100281555Y-97504000D01*
X71851888Y-140939500D02*
X69608500Y-143182888D01*
X121723212Y-93475243D02*
X120824757Y-93475243D01*
X120500000Y-93800000D02*
X109200000Y-93800000D01*
X79157500Y-101642500D02*
X79157500Y-119787394D01*
X79157500Y-119787394D02*
X77192928Y-121751966D01*
X100281555Y-97504000D02*
X83296000Y-97504000D01*
X108850000Y-93450000D02*
X104335555Y-93450000D01*
X63708500Y-147288500D02*
X62955500Y-146535500D01*
X68406500Y-147288500D02*
X63708500Y-147288500D01*
X77274415Y-121751966D02*
X78457500Y-122935051D01*
%TO.N,/CM5 GPIO/GPIO22*%
X77170000Y-122425000D02*
X78106500Y-123361500D01*
X69257500Y-143037500D02*
X69257500Y-145937500D01*
X69257500Y-145937500D02*
X68257500Y-146937500D01*
X63306500Y-129167432D02*
X65021966Y-127451966D01*
X68257500Y-146937500D02*
X63857500Y-146937500D01*
X63306500Y-146386500D02*
X63306500Y-129167432D01*
X75502889Y-140588500D02*
X71706500Y-140588500D01*
X63857500Y-146937500D02*
X63306500Y-146386500D01*
X77157500Y-138933888D02*
X75502889Y-140588500D01*
X78106500Y-137992112D02*
X77164724Y-138933888D01*
X71706500Y-140588500D02*
X69257500Y-143037500D01*
X77164724Y-138933888D02*
X77157500Y-138933888D01*
X78106500Y-123361500D02*
X78106500Y-137992112D01*
%TO.N,/CM5 GPIO/CAN_SPI_CS*%
X119050000Y-91500000D02*
X117496388Y-91500000D01*
X120698194Y-89851806D02*
X119050000Y-91500000D01*
X116599388Y-92397000D02*
X103899390Y-92396999D01*
X122676806Y-89851806D02*
X120698194Y-89851806D01*
X117496388Y-91500000D02*
X116599388Y-92397000D01*
X72457500Y-105937500D02*
X72457500Y-112396432D01*
X72457500Y-112396432D02*
X67561966Y-117291966D01*
X122700000Y-89875000D02*
X122676806Y-89851806D01*
X99845389Y-96451000D02*
X81044000Y-96451000D01*
X103899390Y-92396999D02*
X99845389Y-96451000D01*
X81044000Y-96451000D02*
X75957500Y-101537500D01*
%TO.N,/CM5 GPIO/GPIO27*%
X77755500Y-137839500D02*
X75357500Y-140237500D01*
X77755500Y-123785500D02*
X77755500Y-137839500D01*
X63657500Y-131356432D02*
X65021966Y-129991966D01*
X63657500Y-146237500D02*
X63657500Y-131356432D01*
X71557500Y-140237500D02*
X68857500Y-142937500D01*
X63957500Y-146537500D02*
X63657500Y-146237500D01*
X75357500Y-140237500D02*
X71557500Y-140237500D01*
X68157500Y-146537500D02*
X63957500Y-146537500D01*
X68857500Y-145837500D02*
X68157500Y-146537500D01*
X68857500Y-142937500D02*
X68857500Y-145837500D01*
X77182500Y-123212500D02*
X77755500Y-123785500D01*
%TO.N,/CM5 GPIO/CAN_SPI_CLK*%
X62855500Y-96205300D02*
X62855500Y-115135500D01*
X76040000Y-103640000D02*
X76000000Y-103640000D01*
X108904000Y-92046000D02*
X103754002Y-92045998D01*
X78406500Y-106006500D02*
X76040000Y-103640000D01*
X119825000Y-89900000D02*
X118600000Y-89900000D01*
X118600000Y-89900000D02*
X116454000Y-92046000D01*
X64225300Y-94835500D02*
X62855500Y-96205300D01*
X116454000Y-92046000D02*
X108904000Y-92046000D01*
X78406500Y-119148887D02*
X78406500Y-106006500D01*
X62855500Y-115135500D02*
X65011966Y-117291966D01*
X80195000Y-96100000D02*
X75307500Y-100987500D01*
X69659500Y-97939500D02*
X69659500Y-95905300D01*
X77169006Y-120383102D02*
X77172285Y-120383102D01*
X103754002Y-92045998D02*
X99700000Y-96100000D01*
X99700000Y-96100000D02*
X80195000Y-96100000D01*
X68589700Y-94835500D02*
X64225300Y-94835500D01*
X65011966Y-117291966D02*
X65021966Y-117291966D01*
X77172285Y-120383102D02*
X78406500Y-119148887D01*
X77165452Y-120386656D02*
X77169006Y-120383102D01*
X76000000Y-103640000D02*
X75360000Y-103640000D01*
X69659500Y-95905300D02*
X68589700Y-94835500D01*
X75360000Y-103640000D02*
X69659500Y-97939500D01*
%TO.N,/CM5 GPIO/CAN_SPI_MISO*%
X78757500Y-105550000D02*
X78757500Y-106434500D01*
X108995388Y-93099000D02*
X109246388Y-93350000D01*
X78757500Y-105550000D02*
X78757500Y-100892500D01*
X75136500Y-102813500D02*
X76013500Y-102813500D01*
X70060500Y-95739200D02*
X70060500Y-97737500D01*
X100136166Y-97153000D02*
X104190166Y-93099000D01*
X68755800Y-94434500D02*
X70060500Y-95739200D01*
X76013500Y-102813500D02*
X78750000Y-105550000D01*
X70060500Y-97737500D02*
X75136500Y-102813500D01*
X120621554Y-92900000D02*
X122400000Y-92900000D01*
X77167325Y-121069048D02*
X77193446Y-121069048D01*
X65021966Y-119831966D02*
X62457500Y-117267500D01*
X78757500Y-119504994D02*
X78757500Y-106434500D01*
X78757500Y-100892500D02*
X82497000Y-97153000D01*
X82497000Y-97153000D02*
X100136166Y-97153000D01*
X64059200Y-94434500D02*
X68755800Y-94434500D01*
X104190166Y-93099000D02*
X108995388Y-93099000D01*
X77164552Y-121071821D02*
X77167325Y-121069048D01*
X78750000Y-105550000D02*
X78757500Y-105550000D01*
X77193446Y-121069048D02*
X78757500Y-119504994D01*
X109246388Y-93350000D02*
X120171554Y-93350000D01*
X62457500Y-117267500D02*
X62457500Y-96036200D01*
X120171554Y-93350000D02*
X120621554Y-92900000D01*
X62457500Y-96036200D02*
X64059200Y-94434500D01*
%TO.N,/CM5 GPIO/GPIO5*%
X77657500Y-118480393D02*
X77158270Y-118979623D01*
X64557500Y-95637500D02*
X63657500Y-96537500D01*
X63657500Y-108307500D02*
X65021966Y-109671966D01*
X68257500Y-95637500D02*
X64557500Y-95637500D01*
X77657500Y-118480393D02*
X77657500Y-107137500D01*
X77657500Y-107137500D02*
X68857500Y-98337500D01*
X68857500Y-96237500D02*
X68257500Y-95637500D01*
X63657500Y-96537500D02*
X63657500Y-108307500D01*
X68857500Y-98337500D02*
X68857500Y-96237500D01*
%TO.N,/CM5 GPIO/FAN_TACHO*%
X94925003Y-114124997D02*
X95000000Y-114050000D01*
X95000000Y-114050000D02*
X95486034Y-114050000D01*
X81475000Y-114300000D02*
X82200000Y-114300000D01*
X106461034Y-103075000D02*
X111725000Y-103075000D01*
X112450000Y-102350000D02*
X112450000Y-101850000D01*
X112450000Y-101850000D02*
X111950000Y-101350000D01*
X95486034Y-114050000D02*
X106461034Y-103075000D01*
X82200000Y-114300000D02*
X82375003Y-114124997D01*
X82375003Y-114124997D02*
X94925003Y-114124997D01*
X111725000Y-103075000D02*
X112450000Y-102350000D01*
%TO.N,/CM5 GPIO/FAN_PWM*%
X113650000Y-96750000D02*
X112123500Y-98276500D01*
X95351000Y-113724000D02*
X81236412Y-113724000D01*
D27*
X112185000Y-94400000D02*
X113650000Y-95865000D01*
D25*
X110798500Y-98276500D02*
X95351000Y-113724000D01*
X112123500Y-98276500D02*
X110798500Y-98276500D01*
X76600000Y-115400000D02*
X76600000Y-115850000D01*
X80899000Y-114501000D02*
X80475000Y-114925000D01*
X80266781Y-114925000D02*
X80240325Y-114898544D01*
D27*
X113650000Y-95865000D02*
X113650000Y-96750000D01*
D25*
X77075000Y-114925000D02*
X76600000Y-115400000D01*
X75450000Y-117000000D02*
X73500000Y-117000000D01*
X81236412Y-113724000D02*
X80899000Y-114061412D01*
X80475000Y-114925000D02*
X80266781Y-114925000D01*
X80899000Y-114061412D02*
X80899000Y-114501000D01*
X76600000Y-115850000D02*
X75450000Y-117000000D01*
%TO.N,/CM5 GPIO/BT_Disable*%
X96850000Y-150550000D02*
X98075000Y-151775000D01*
X80323194Y-148726806D02*
X93426806Y-148726806D01*
X93426806Y-148726806D02*
X95250000Y-150550000D01*
X79607500Y-148011112D02*
X80323194Y-148726806D01*
X79607500Y-136693240D02*
X79607500Y-148011112D01*
X98075000Y-151775000D02*
X98075000Y-153085000D01*
X95250000Y-150550000D02*
X96850000Y-150550000D01*
%TO.N,/CM5 GPIO/EEPROM_nWP*%
X103348000Y-149873000D02*
X106550000Y-153075000D01*
X95835034Y-149873000D02*
X103348000Y-149873000D01*
X81100000Y-146900000D02*
X81600000Y-147400000D01*
X90899194Y-147400000D02*
X91549000Y-148049806D01*
X91549000Y-148049806D02*
X94011840Y-148049806D01*
X94011840Y-148049806D02*
X95835034Y-149873000D01*
X80255000Y-116035000D02*
X81100000Y-116880000D01*
X81100000Y-116880000D02*
X81100000Y-146900000D01*
X81600000Y-147400000D02*
X90899194Y-147400000D01*
%TO.N,/CM5 GPIO/WiFi_Disable*%
X95700000Y-150199000D02*
X100224000Y-150199000D01*
X80525806Y-147501612D02*
X81400000Y-148375806D01*
X80525806Y-136480173D02*
X80525806Y-147501612D01*
X93876806Y-148375806D02*
X95700000Y-150199000D01*
X100850000Y-150825000D02*
X100850000Y-151635000D01*
X80172801Y-136127168D02*
X80525806Y-136480173D01*
X100224000Y-150199000D02*
X100850000Y-150825000D01*
X100850000Y-151635000D02*
X102300000Y-153085000D01*
X81400000Y-148375806D02*
X93876806Y-148375806D01*
%TO.N,/CM5 GPIO/nPWR_LED*%
X71660000Y-102330000D02*
X70220000Y-100890000D01*
X71660000Y-109595000D02*
X71660000Y-102330000D01*
%TO.N,/CM5 GPIO/nRPIBOOT*%
X79032500Y-147932500D02*
X80350000Y-149250000D01*
X91850000Y-149250000D02*
X92300000Y-149250000D01*
X80350000Y-149250000D02*
X91850000Y-149250000D01*
X92300000Y-149250000D02*
X93725000Y-150675000D01*
X93725000Y-150675000D02*
X93725000Y-153075000D01*
X79032500Y-137250000D02*
X79032500Y-147932500D01*
%TO.N,/CM5 GPIO/LED_nACT*%
X72899000Y-117141265D02*
X72899000Y-106310588D01*
X73033500Y-103458500D02*
X72535000Y-102960000D01*
X72899000Y-106310588D02*
X73033500Y-106176088D01*
X73033500Y-106176088D02*
X73033500Y-103458500D01*
X73399999Y-117642264D02*
X72899000Y-117141265D01*
%TD*%
%TA.AperFunction,Conductor*%
%TO.N,GND*%
G36*
X120982451Y-109079757D02*
G01*
X121179411Y-109222857D01*
X121396332Y-109333383D01*
X121433318Y-109345400D01*
X121490993Y-109384835D01*
X121518192Y-109449193D01*
X121519001Y-109463331D01*
X121519001Y-119736667D01*
X121499316Y-119803706D01*
X121446512Y-119849461D01*
X121433320Y-119854598D01*
X121396327Y-119866617D01*
X121179410Y-119977142D01*
X121067038Y-120058785D01*
X120982451Y-120120242D01*
X120982449Y-120120244D01*
X120982448Y-120120244D01*
X120810304Y-120292388D01*
X120810304Y-120292389D01*
X120810302Y-120292391D01*
X120748845Y-120376978D01*
X120667202Y-120489350D01*
X120556674Y-120706274D01*
X120481444Y-120937807D01*
X120481444Y-120937810D01*
X120443359Y-121178271D01*
X120443359Y-121421726D01*
X120481444Y-121662187D01*
X120481444Y-121662190D01*
X120556674Y-121893723D01*
X120556676Y-121893726D01*
X120667202Y-122110647D01*
X120810302Y-122307607D01*
X120982451Y-122479756D01*
X121179411Y-122622856D01*
X121396332Y-122733382D01*
X121433318Y-122745399D01*
X121490993Y-122784834D01*
X121518192Y-122849192D01*
X121519001Y-122863330D01*
X121519001Y-137676000D01*
X121499316Y-137743039D01*
X121446512Y-137788794D01*
X121395001Y-137800000D01*
X100749000Y-137800000D01*
X100681961Y-137780315D01*
X100636206Y-137727511D01*
X100625000Y-137676000D01*
X100625000Y-132443982D01*
X109624500Y-132443982D01*
X109624500Y-132556018D01*
X109653497Y-132664237D01*
X109709515Y-132761263D01*
X109788737Y-132840485D01*
X109885763Y-132896503D01*
X109993982Y-132925500D01*
X109993984Y-132925500D01*
X110106016Y-132925500D01*
X110106018Y-132925500D01*
X110214237Y-132896503D01*
X110311263Y-132840485D01*
X110390485Y-132761263D01*
X110446503Y-132664237D01*
X110475500Y-132556018D01*
X110475500Y-132443982D01*
X110446503Y-132335763D01*
X110390485Y-132238737D01*
X110311263Y-132159515D01*
X110214237Y-132103497D01*
X110106018Y-132074500D01*
X109993982Y-132074500D01*
X109885763Y-132103497D01*
X109885760Y-132103498D01*
X109788740Y-132159513D01*
X109788734Y-132159517D01*
X109709517Y-132238734D01*
X109709513Y-132238740D01*
X109653498Y-132335760D01*
X109653497Y-132335763D01*
X109624500Y-132443982D01*
X100625000Y-132443982D01*
X100625000Y-124343982D01*
X106974500Y-124343982D01*
X106974500Y-124456018D01*
X107003497Y-124564237D01*
X107059515Y-124661263D01*
X107138737Y-124740485D01*
X107235763Y-124796503D01*
X107343982Y-124825500D01*
X107343984Y-124825500D01*
X107456016Y-124825500D01*
X107456018Y-124825500D01*
X107564237Y-124796503D01*
X107661263Y-124740485D01*
X107740485Y-124661263D01*
X107796503Y-124564237D01*
X107825500Y-124456018D01*
X107825500Y-124343982D01*
X107796503Y-124235763D01*
X107740485Y-124138737D01*
X107661263Y-124059515D01*
X107564237Y-124003497D01*
X107456018Y-123974500D01*
X107343982Y-123974500D01*
X107235763Y-124003497D01*
X107235760Y-124003498D01*
X107138740Y-124059513D01*
X107138734Y-124059517D01*
X107059517Y-124138734D01*
X107059513Y-124138740D01*
X107003498Y-124235760D01*
X107003497Y-124235763D01*
X106974500Y-124343982D01*
X100625000Y-124343982D01*
X100625000Y-118668535D01*
X117743399Y-118668535D01*
X117772090Y-118812768D01*
X117772093Y-118812778D01*
X117828368Y-118948639D01*
X117828375Y-118948652D01*
X117910077Y-119070927D01*
X117910080Y-119070931D01*
X118014067Y-119174918D01*
X118014071Y-119174921D01*
X118136346Y-119256623D01*
X118136359Y-119256630D01*
X118272220Y-119312905D01*
X118272225Y-119312907D01*
X118272229Y-119312907D01*
X118272230Y-119312908D01*
X118416463Y-119341599D01*
X118416466Y-119341599D01*
X118563536Y-119341599D01*
X118660571Y-119322296D01*
X118707775Y-119312907D01*
X118843647Y-119256627D01*
X118965929Y-119174921D01*
X119069922Y-119070928D01*
X119151628Y-118948646D01*
X119207908Y-118812774D01*
X119236317Y-118669954D01*
X119268702Y-118608044D01*
X119329417Y-118573470D01*
X119399187Y-118577209D01*
X119445615Y-118606465D01*
X119514068Y-118674918D01*
X119514072Y-118674921D01*
X119636347Y-118756623D01*
X119636360Y-118756630D01*
X119772221Y-118812905D01*
X119772226Y-118812907D01*
X119772230Y-118812907D01*
X119772231Y-118812908D01*
X119916464Y-118841599D01*
X119916467Y-118841599D01*
X120063537Y-118841599D01*
X120160572Y-118822296D01*
X120207776Y-118812907D01*
X120343648Y-118756627D01*
X120465930Y-118674921D01*
X120569923Y-118570928D01*
X120651629Y-118448646D01*
X120707909Y-118312774D01*
X120722116Y-118241352D01*
X120736601Y-118168535D01*
X120736601Y-118021462D01*
X120707910Y-117877229D01*
X120707909Y-117877228D01*
X120707909Y-117877224D01*
X120695969Y-117848399D01*
X120651632Y-117741358D01*
X120651625Y-117741345D01*
X120569923Y-117619070D01*
X120569920Y-117619066D01*
X120465933Y-117515079D01*
X120465929Y-117515076D01*
X120343654Y-117433374D01*
X120343641Y-117433367D01*
X120207780Y-117377092D01*
X120207770Y-117377089D01*
X120063537Y-117348399D01*
X120063535Y-117348399D01*
X119916467Y-117348399D01*
X119916465Y-117348399D01*
X119772231Y-117377089D01*
X119772221Y-117377092D01*
X119636360Y-117433367D01*
X119636347Y-117433374D01*
X119514072Y-117515076D01*
X119514068Y-117515079D01*
X119410081Y-117619066D01*
X119410078Y-117619070D01*
X119328376Y-117741345D01*
X119328369Y-117741358D01*
X119272094Y-117877219D01*
X119272091Y-117877229D01*
X119243683Y-118020043D01*
X119211298Y-118081954D01*
X119150582Y-118116528D01*
X119080812Y-118112787D01*
X119034385Y-118083532D01*
X118965932Y-118015079D01*
X118965928Y-118015076D01*
X118843653Y-117933374D01*
X118843640Y-117933367D01*
X118707779Y-117877092D01*
X118707769Y-117877089D01*
X118563536Y-117848399D01*
X118563534Y-117848399D01*
X118416466Y-117848399D01*
X118416464Y-117848399D01*
X118272230Y-117877089D01*
X118272220Y-117877092D01*
X118136359Y-117933367D01*
X118136346Y-117933374D01*
X118014071Y-118015076D01*
X118014067Y-118015079D01*
X117910080Y-118119066D01*
X117910077Y-118119070D01*
X117828375Y-118241345D01*
X117828368Y-118241358D01*
X117772093Y-118377219D01*
X117772090Y-118377229D01*
X117743400Y-118521462D01*
X117743400Y-118521465D01*
X117743400Y-118668533D01*
X117743400Y-118668535D01*
X117743399Y-118668535D01*
X100625000Y-118668535D01*
X100625000Y-116668534D01*
X117743399Y-116668534D01*
X117772090Y-116812767D01*
X117772093Y-116812777D01*
X117828368Y-116948638D01*
X117828375Y-116948651D01*
X117910077Y-117070926D01*
X117910080Y-117070930D01*
X118014067Y-117174917D01*
X118014071Y-117174920D01*
X118136346Y-117256622D01*
X118136359Y-117256629D01*
X118272220Y-117312904D01*
X118272225Y-117312906D01*
X118272229Y-117312906D01*
X118272230Y-117312907D01*
X118416463Y-117341598D01*
X118416466Y-117341598D01*
X118563536Y-117341598D01*
X118660571Y-117322295D01*
X118707775Y-117312906D01*
X118843647Y-117256626D01*
X118965929Y-117174920D01*
X119069922Y-117070927D01*
X119151628Y-116948645D01*
X119207908Y-116812773D01*
X119236600Y-116668532D01*
X119236600Y-116521464D01*
X119236600Y-116521461D01*
X119207909Y-116377228D01*
X119207908Y-116377227D01*
X119207908Y-116377223D01*
X119193152Y-116341598D01*
X119151631Y-116241357D01*
X119151624Y-116241344D01*
X119069922Y-116119069D01*
X119069919Y-116119065D01*
X118965932Y-116015078D01*
X118965928Y-116015075D01*
X118843653Y-115933373D01*
X118843640Y-115933366D01*
X118707779Y-115877091D01*
X118707769Y-115877088D01*
X118563536Y-115848398D01*
X118563534Y-115848398D01*
X118416466Y-115848398D01*
X118416464Y-115848398D01*
X118272230Y-115877088D01*
X118272220Y-115877091D01*
X118136359Y-115933366D01*
X118136346Y-115933373D01*
X118014071Y-116015075D01*
X118014067Y-116015078D01*
X117910080Y-116119065D01*
X117910077Y-116119069D01*
X117828375Y-116241344D01*
X117828368Y-116241357D01*
X117772093Y-116377218D01*
X117772090Y-116377228D01*
X117743400Y-116521461D01*
X117743400Y-116521464D01*
X117743400Y-116668532D01*
X117743400Y-116668534D01*
X117743399Y-116668534D01*
X100625000Y-116668534D01*
X100625000Y-115668534D01*
X119243400Y-115668534D01*
X119272091Y-115812767D01*
X119272094Y-115812777D01*
X119328369Y-115948638D01*
X119328376Y-115948651D01*
X119410078Y-116070926D01*
X119410081Y-116070930D01*
X119514068Y-116174917D01*
X119514072Y-116174920D01*
X119636347Y-116256622D01*
X119636360Y-116256629D01*
X119772221Y-116312904D01*
X119772226Y-116312906D01*
X119772230Y-116312906D01*
X119772231Y-116312907D01*
X119916464Y-116341598D01*
X119916467Y-116341598D01*
X120063537Y-116341598D01*
X120160572Y-116322295D01*
X120207776Y-116312906D01*
X120343648Y-116256626D01*
X120465930Y-116174920D01*
X120569923Y-116070927D01*
X120651629Y-115948645D01*
X120707909Y-115812773D01*
X120736601Y-115668532D01*
X120736601Y-115521464D01*
X120736601Y-115521461D01*
X120707910Y-115377228D01*
X120707909Y-115377227D01*
X120707909Y-115377223D01*
X120681270Y-115312910D01*
X120651632Y-115241357D01*
X120651625Y-115241344D01*
X120569923Y-115119069D01*
X120569920Y-115119065D01*
X120465933Y-115015078D01*
X120465929Y-115015075D01*
X120343654Y-114933373D01*
X120343641Y-114933366D01*
X120207780Y-114877091D01*
X120207770Y-114877088D01*
X120063537Y-114848398D01*
X120063535Y-114848398D01*
X119916467Y-114848398D01*
X119916465Y-114848398D01*
X119772231Y-114877088D01*
X119772221Y-114877091D01*
X119636360Y-114933366D01*
X119636347Y-114933373D01*
X119514072Y-115015075D01*
X119514068Y-115015078D01*
X119410081Y-115119065D01*
X119410078Y-115119069D01*
X119328376Y-115241344D01*
X119328369Y-115241357D01*
X119272094Y-115377218D01*
X119272091Y-115377228D01*
X119243401Y-115521461D01*
X119243401Y-115521464D01*
X119243401Y-115668532D01*
X119243401Y-115668534D01*
X119243400Y-115668534D01*
X100625000Y-115668534D01*
X100625000Y-114668537D01*
X117743399Y-114668537D01*
X117772090Y-114812770D01*
X117772093Y-114812780D01*
X117828368Y-114948641D01*
X117828375Y-114948654D01*
X117910077Y-115070929D01*
X117910080Y-115070933D01*
X118014067Y-115174920D01*
X118014071Y-115174923D01*
X118136346Y-115256625D01*
X118136359Y-115256632D01*
X118272220Y-115312907D01*
X118272225Y-115312909D01*
X118272229Y-115312909D01*
X118272230Y-115312910D01*
X118416463Y-115341601D01*
X118416466Y-115341601D01*
X118563536Y-115341601D01*
X118660571Y-115322298D01*
X118707775Y-115312909D01*
X118843647Y-115256629D01*
X118965929Y-115174923D01*
X119069922Y-115070930D01*
X119151628Y-114948648D01*
X119207908Y-114812776D01*
X119236600Y-114668535D01*
X119236600Y-114521467D01*
X119236600Y-114521464D01*
X119207909Y-114377231D01*
X119207908Y-114377230D01*
X119207908Y-114377226D01*
X119185409Y-114322909D01*
X119151631Y-114241360D01*
X119151624Y-114241347D01*
X119069922Y-114119072D01*
X119069919Y-114119068D01*
X118965932Y-114015081D01*
X118965928Y-114015078D01*
X118843653Y-113933376D01*
X118843640Y-113933369D01*
X118707779Y-113877094D01*
X118707769Y-113877091D01*
X118563536Y-113848401D01*
X118563534Y-113848401D01*
X118416466Y-113848401D01*
X118416464Y-113848401D01*
X118272230Y-113877091D01*
X118272220Y-113877094D01*
X118136359Y-113933369D01*
X118136346Y-113933376D01*
X118014071Y-114015078D01*
X118014067Y-114015081D01*
X117910080Y-114119068D01*
X117910077Y-114119072D01*
X117828375Y-114241347D01*
X117828368Y-114241360D01*
X117772093Y-114377221D01*
X117772090Y-114377231D01*
X117743400Y-114521464D01*
X117743400Y-114521467D01*
X117743400Y-114668535D01*
X117743400Y-114668537D01*
X117743399Y-114668537D01*
X100625000Y-114668537D01*
X100625000Y-113678537D01*
X119243400Y-113678537D01*
X119272091Y-113822770D01*
X119272094Y-113822780D01*
X119328369Y-113958641D01*
X119328376Y-113958654D01*
X119410078Y-114080929D01*
X119410081Y-114080933D01*
X119514068Y-114184920D01*
X119514072Y-114184923D01*
X119636347Y-114266625D01*
X119636360Y-114266632D01*
X119772221Y-114322907D01*
X119772226Y-114322909D01*
X119772230Y-114322909D01*
X119772231Y-114322910D01*
X119916464Y-114351601D01*
X119916467Y-114351601D01*
X120063537Y-114351601D01*
X120194755Y-114325499D01*
X120207776Y-114322909D01*
X120343648Y-114266629D01*
X120465930Y-114184923D01*
X120569923Y-114080930D01*
X120651629Y-113958648D01*
X120707909Y-113822776D01*
X120736601Y-113678535D01*
X120736601Y-113531467D01*
X120736601Y-113531464D01*
X120707910Y-113387231D01*
X120707909Y-113387230D01*
X120707909Y-113387226D01*
X120677126Y-113312909D01*
X120651632Y-113251360D01*
X120651625Y-113251347D01*
X120569923Y-113129072D01*
X120569920Y-113129068D01*
X120465933Y-113025081D01*
X120465929Y-113025078D01*
X120343654Y-112943376D01*
X120343641Y-112943369D01*
X120207780Y-112887094D01*
X120207770Y-112887091D01*
X120063537Y-112858401D01*
X120063535Y-112858401D01*
X119916467Y-112858401D01*
X119916465Y-112858401D01*
X119772231Y-112887091D01*
X119772221Y-112887094D01*
X119636360Y-112943369D01*
X119636347Y-112943376D01*
X119514072Y-113025078D01*
X119514068Y-113025081D01*
X119410081Y-113129068D01*
X119410078Y-113129072D01*
X119328376Y-113251347D01*
X119328369Y-113251360D01*
X119272094Y-113387221D01*
X119272091Y-113387231D01*
X119243401Y-113531464D01*
X119243401Y-113531467D01*
X119243401Y-113678535D01*
X119243401Y-113678537D01*
X119243400Y-113678537D01*
X100625000Y-113678537D01*
X100625000Y-112668536D01*
X117743399Y-112668536D01*
X117772090Y-112812769D01*
X117772093Y-112812779D01*
X117828368Y-112948640D01*
X117828375Y-112948653D01*
X117910077Y-113070928D01*
X117910080Y-113070932D01*
X118014067Y-113174919D01*
X118014071Y-113174922D01*
X118136346Y-113256624D01*
X118136359Y-113256631D01*
X118272220Y-113312906D01*
X118272225Y-113312908D01*
X118272229Y-113312908D01*
X118272230Y-113312909D01*
X118416463Y-113341600D01*
X118416466Y-113341600D01*
X118563536Y-113341600D01*
X118660571Y-113322297D01*
X118707775Y-113312908D01*
X118843647Y-113256628D01*
X118965929Y-113174922D01*
X119069922Y-113070929D01*
X119151628Y-112948647D01*
X119207908Y-112812775D01*
X119236600Y-112668534D01*
X119236600Y-112521466D01*
X119236600Y-112521463D01*
X119207909Y-112377230D01*
X119207908Y-112377229D01*
X119207908Y-112377225D01*
X119207906Y-112377220D01*
X119151631Y-112241359D01*
X119151624Y-112241346D01*
X119069922Y-112119071D01*
X119069919Y-112119067D01*
X118965932Y-112015080D01*
X118965928Y-112015077D01*
X118843653Y-111933375D01*
X118843640Y-111933368D01*
X118707779Y-111877093D01*
X118707769Y-111877090D01*
X118563536Y-111848400D01*
X118563534Y-111848400D01*
X118416466Y-111848400D01*
X118416464Y-111848400D01*
X118272230Y-111877090D01*
X118272220Y-111877093D01*
X118136359Y-111933368D01*
X118136346Y-111933375D01*
X118014071Y-112015077D01*
X118014067Y-112015080D01*
X117910080Y-112119067D01*
X117910077Y-112119071D01*
X117828375Y-112241346D01*
X117828368Y-112241359D01*
X117772093Y-112377220D01*
X117772090Y-112377230D01*
X117743400Y-112521463D01*
X117743400Y-112521466D01*
X117743400Y-112668534D01*
X117743400Y-112668536D01*
X117743399Y-112668536D01*
X100625000Y-112668536D01*
X100625000Y-110668536D01*
X117743399Y-110668536D01*
X117772090Y-110812769D01*
X117772093Y-110812779D01*
X117828368Y-110948640D01*
X117828375Y-110948653D01*
X117910077Y-111070928D01*
X117910080Y-111070932D01*
X118014067Y-111174919D01*
X118014071Y-111174922D01*
X118136346Y-111256624D01*
X118136359Y-111256631D01*
X118272220Y-111312906D01*
X118272225Y-111312908D01*
X118272229Y-111312908D01*
X118272230Y-111312909D01*
X118416463Y-111341600D01*
X118416466Y-111341600D01*
X118563536Y-111341600D01*
X118660571Y-111322297D01*
X118707775Y-111312908D01*
X118805609Y-111272383D01*
X118875075Y-111264915D01*
X118937554Y-111296189D01*
X118973207Y-111356278D01*
X118974676Y-111362752D01*
X118984101Y-111410131D01*
X118984103Y-111410140D01*
X119062955Y-111600507D01*
X119062959Y-111600514D01*
X119094191Y-111647255D01*
X119634401Y-111107045D01*
X119634401Y-111151816D01*
X119658635Y-111242256D01*
X119705451Y-111323343D01*
X119771658Y-111389550D01*
X119852745Y-111436366D01*
X119943185Y-111460600D01*
X119987954Y-111460600D01*
X119447744Y-112000809D01*
X119494489Y-112032043D01*
X119494491Y-112032044D01*
X119684860Y-112110897D01*
X119684872Y-112110900D01*
X119886964Y-112151099D01*
X119886967Y-112151100D01*
X120093035Y-112151100D01*
X120093037Y-112151099D01*
X120295129Y-112110900D01*
X120295141Y-112110897D01*
X120485510Y-112032044D01*
X120485519Y-112032039D01*
X120532257Y-112000809D01*
X120532257Y-112000808D01*
X119992049Y-111460600D01*
X120036817Y-111460600D01*
X120127257Y-111436366D01*
X120208344Y-111389550D01*
X120274551Y-111323343D01*
X120321367Y-111242256D01*
X120345601Y-111151816D01*
X120345601Y-111107047D01*
X120885810Y-111647256D01*
X120917040Y-111600518D01*
X120917045Y-111600509D01*
X120995898Y-111410140D01*
X120995901Y-111410128D01*
X121036100Y-111208036D01*
X121036101Y-111208034D01*
X121036101Y-111001965D01*
X121036100Y-111001963D01*
X120995901Y-110799871D01*
X120995898Y-110799859D01*
X120917045Y-110609490D01*
X120917044Y-110609488D01*
X120885810Y-110562743D01*
X120345601Y-111102952D01*
X120345601Y-111058184D01*
X120321367Y-110967744D01*
X120274551Y-110886657D01*
X120208344Y-110820450D01*
X120127257Y-110773634D01*
X120036817Y-110749400D01*
X119992047Y-110749400D01*
X120532256Y-110209190D01*
X120485515Y-110177958D01*
X120485508Y-110177954D01*
X120295141Y-110099102D01*
X120295129Y-110099099D01*
X120093036Y-110058900D01*
X119886966Y-110058900D01*
X119684872Y-110099099D01*
X119684860Y-110099102D01*
X119494493Y-110177954D01*
X119494480Y-110177961D01*
X119330643Y-110287434D01*
X119263965Y-110308312D01*
X119196585Y-110289827D01*
X119155501Y-110246091D01*
X119155013Y-110246418D01*
X119153055Y-110243488D01*
X119152391Y-110242781D01*
X119151624Y-110241346D01*
X119069922Y-110119071D01*
X119069919Y-110119067D01*
X118965932Y-110015080D01*
X118965928Y-110015077D01*
X118843653Y-109933375D01*
X118843640Y-109933368D01*
X118707779Y-109877093D01*
X118707769Y-109877090D01*
X118563536Y-109848400D01*
X118563534Y-109848400D01*
X118416466Y-109848400D01*
X118416464Y-109848400D01*
X118272230Y-109877090D01*
X118272220Y-109877093D01*
X118136359Y-109933368D01*
X118136346Y-109933375D01*
X118014071Y-110015077D01*
X118014067Y-110015080D01*
X117910080Y-110119067D01*
X117910077Y-110119071D01*
X117828375Y-110241346D01*
X117828368Y-110241359D01*
X117772093Y-110377220D01*
X117772090Y-110377230D01*
X117743400Y-110521463D01*
X117743400Y-110521466D01*
X117743400Y-110668534D01*
X117743400Y-110668536D01*
X117743399Y-110668536D01*
X100625000Y-110668536D01*
X100625000Y-109352011D01*
X100644685Y-109284972D01*
X100661319Y-109264330D01*
X100889330Y-109036319D01*
X100950653Y-109002834D01*
X100977011Y-109000000D01*
X104374999Y-109000000D01*
X104375000Y-109000000D01*
X120902694Y-109000000D01*
X120982451Y-109079757D01*
G37*
%TD.AperFunction*%
%TD*%
%TA.AperFunction,Conductor*%
%TO.N,GND*%
G36*
X125956769Y-96969685D02*
G01*
X126002524Y-97022489D01*
X126012468Y-97091647D01*
X125992832Y-97142891D01*
X125919505Y-97252631D01*
X125919500Y-97252641D01*
X125840350Y-97443725D01*
X125840348Y-97443733D01*
X125800000Y-97646579D01*
X125800000Y-97853420D01*
X125840348Y-98056266D01*
X125840350Y-98056274D01*
X125919500Y-98247359D01*
X125951377Y-98295067D01*
X126500000Y-97746444D01*
X126500000Y-97796078D01*
X126523852Y-97885095D01*
X126569930Y-97964905D01*
X126635095Y-98030070D01*
X126714905Y-98076148D01*
X126803922Y-98100000D01*
X126853552Y-98100000D01*
X126304931Y-98648620D01*
X126304932Y-98648621D01*
X126352633Y-98680495D01*
X126352639Y-98680498D01*
X126543725Y-98759649D01*
X126543733Y-98759651D01*
X126746579Y-98799999D01*
X126746583Y-98800000D01*
X126953417Y-98800000D01*
X126953420Y-98799999D01*
X127156266Y-98759651D01*
X127162101Y-98757882D01*
X127162682Y-98759799D01*
X127223003Y-98753308D01*
X127285486Y-98784576D01*
X127321145Y-98844661D01*
X127325000Y-98875340D01*
X127325000Y-99963892D01*
X127305315Y-100030931D01*
X127263005Y-100071276D01*
X127248743Y-100079510D01*
X127248734Y-100079517D01*
X127169517Y-100158734D01*
X127169513Y-100158740D01*
X127113498Y-100255760D01*
X127113497Y-100255763D01*
X127084500Y-100363982D01*
X127084500Y-100476018D01*
X127113497Y-100584237D01*
X127169515Y-100681263D01*
X127248737Y-100760485D01*
X127262999Y-100768719D01*
X127311213Y-100819281D01*
X127325000Y-100876106D01*
X127325000Y-101424659D01*
X127305315Y-101491698D01*
X127252511Y-101537453D01*
X127183353Y-101547397D01*
X127162254Y-101541611D01*
X127162101Y-101542118D01*
X127156266Y-101540348D01*
X126953420Y-101500000D01*
X126746579Y-101500000D01*
X126543733Y-101540348D01*
X126543725Y-101540350D01*
X126352641Y-101619500D01*
X126352631Y-101619505D01*
X126304932Y-101651377D01*
X126304932Y-101651378D01*
X126853554Y-102200000D01*
X126803922Y-102200000D01*
X126714905Y-102223852D01*
X126635095Y-102269930D01*
X126569930Y-102335095D01*
X126523852Y-102414905D01*
X126500000Y-102503922D01*
X126500000Y-102596078D01*
X126523852Y-102685095D01*
X126569930Y-102764905D01*
X126635095Y-102830070D01*
X126714905Y-102876148D01*
X126803922Y-102900000D01*
X126853552Y-102900000D01*
X126304931Y-103448620D01*
X126304932Y-103448621D01*
X126352633Y-103480495D01*
X126352639Y-103480498D01*
X126543725Y-103559649D01*
X126543733Y-103559651D01*
X126746579Y-103599999D01*
X126746583Y-103600000D01*
X126953417Y-103600000D01*
X126953420Y-103599999D01*
X127156266Y-103559651D01*
X127162101Y-103557882D01*
X127162682Y-103559799D01*
X127223003Y-103553308D01*
X127285486Y-103584576D01*
X127321145Y-103644661D01*
X127325000Y-103675340D01*
X127325000Y-108876000D01*
X127305315Y-108943039D01*
X127252511Y-108988794D01*
X127201000Y-109000000D01*
X123346053Y-109000000D01*
X123279014Y-108980315D01*
X123233259Y-108927511D01*
X123223315Y-108858353D01*
X123245735Y-108803114D01*
X123312916Y-108710648D01*
X123423442Y-108493727D01*
X123498674Y-108262187D01*
X123536759Y-108021728D01*
X123536759Y-107778272D01*
X123498674Y-107537813D01*
X123498673Y-107537809D01*
X123498673Y-107537808D01*
X123423443Y-107306275D01*
X123312915Y-107089351D01*
X123169816Y-106892392D01*
X122997667Y-106720243D01*
X122800707Y-106577143D01*
X122583783Y-106466615D01*
X122352249Y-106391385D01*
X122171901Y-106362821D01*
X122111787Y-106353300D01*
X121868331Y-106353300D01*
X121788178Y-106365995D01*
X121627870Y-106391385D01*
X121627867Y-106391385D01*
X121396334Y-106466615D01*
X121179410Y-106577143D01*
X121067038Y-106658786D01*
X120982451Y-106720243D01*
X120982449Y-106720245D01*
X120982448Y-106720245D01*
X120810304Y-106892389D01*
X120810304Y-106892390D01*
X120810302Y-106892392D01*
X120748845Y-106976979D01*
X120667202Y-107089351D01*
X120556674Y-107306275D01*
X120481444Y-107537808D01*
X120481444Y-107537811D01*
X120443359Y-107778272D01*
X120443359Y-108021727D01*
X120481444Y-108262188D01*
X120481444Y-108262191D01*
X120556674Y-108493724D01*
X120556676Y-108493727D01*
X120667202Y-108710648D01*
X120810302Y-108907608D01*
X120810304Y-108907610D01*
X120902694Y-109000000D01*
X104375000Y-109000000D01*
X110812207Y-103381081D01*
X110875656Y-103351827D01*
X110893749Y-103350500D01*
X111779799Y-103350500D01*
X111779800Y-103350500D01*
X111881058Y-103308557D01*
X111958557Y-103231058D01*
X112683557Y-102506058D01*
X112708194Y-102446579D01*
X125800000Y-102446579D01*
X125800000Y-102653420D01*
X125840348Y-102856266D01*
X125840350Y-102856274D01*
X125919500Y-103047359D01*
X125951377Y-103095067D01*
X125951378Y-103095067D01*
X126496446Y-102550000D01*
X125951378Y-102004932D01*
X125951377Y-102004932D01*
X125919505Y-102052631D01*
X125919500Y-102052641D01*
X125840350Y-102243725D01*
X125840348Y-102243733D01*
X125800000Y-102446579D01*
X112708194Y-102446579D01*
X112725500Y-102404800D01*
X112725500Y-102295200D01*
X112725500Y-101795200D01*
X112725498Y-101795196D01*
X112725234Y-101793867D01*
X112725500Y-101790893D01*
X112725500Y-101782987D01*
X112726207Y-101782987D01*
X112731460Y-101724276D01*
X112765305Y-101676258D01*
X113189964Y-101305581D01*
X113253414Y-101276327D01*
X113271506Y-101275000D01*
X116724999Y-101275000D01*
X116725000Y-101275000D01*
X121665009Y-96980418D01*
X121728518Y-96951291D01*
X121746364Y-96950000D01*
X125889730Y-96950000D01*
X125956769Y-96969685D01*
G37*
%TD.AperFunction*%
%TD*%
M02*
