M48
; DRILL file {KiCad 9.0.3} date 2025-09-11T19:41:35-0500
; FORMAT={-:-/ absolute / inch / decimal}
; #@! TF.CreationDate,2025-09-11T19:41:35-05:00
; #@! TF.GenerationSoftware,Kicad,Pcbnew,9.0.3
; #@! TF.FileFunction,Plated,1,4,PTH
FMAT,2
INCH
; #@! TA.AperFunction,Plated,PTH,ViaDrill
T1C0.0079
; #@! TA.AperFunction,Plated,PTH,ViaDrill
T2C0.0118
; #@! TA.AperFunction,Plated,PTH,ViaDrill
T3C0.0197
; #@! TA.AperFunction,Plated,PTH,ComponentDrill
T4C0.0220
; #@! TA.AperFunction,Plated,PTH,ComponentDrill
T5C0.0236
; #@! TA.AperFunction,Plated,PTH,ComponentDrill
T6C0.0394
; #@! TA.AperFunction,Plated,PTH,ComponentDrill
T7C0.0402
; #@! TA.AperFunction,Plated,PTH,ComponentDrill
T8C0.0472
; #@! TA.AperFunction,Plated,PTH,ComponentDrill
T9C0.0724
; #@! TA.AperFunction,Plated,PTH,ComponentDrill
T10C0.1098
; #@! TA.AperFunction,Plated,PTH,ComponentDrill
T11C0.1169
%
G90
G05
T1
X4.3232Y-3.8732
X4.3233Y-4.0566
X4.3238Y-3.8432
X4.3238Y-4.0839
X4.3445Y-4.1073
X4.3455Y-3.8219
X4.3671Y-3.8002
X4.3675Y-3.9769
X4.3677Y-3.9455
X4.3681Y-3.6959
X4.3681Y-3.7433
X4.3681Y-4.128
X4.4754Y-3.8091
X4.6289Y-4.105
X4.6289Y-4.1329
X4.6295Y-4.0441
X4.6295Y-4.0728
X4.6298Y-3.7321
X4.6298Y-3.8762
X4.6299Y-3.7598
X4.6299Y-3.817
X4.6299Y-3.9573
X4.6299Y-3.7876
X4.63Y-3.8481
X4.6302Y-3.9305
X4.6302Y-3.9035
X4.6304Y-3.9838
X4.6309Y-4.0148
T2
X4.1845Y-2.4175
X4.1845Y-2.4825
X4.2633Y-2.3565
X4.2633Y-2.481
X4.2633Y-2.543
X4.342Y-2.5406
X4.3676Y-2.3078
X4.3794Y-2.635
X4.3819Y-4.937
X4.4035Y-3.3346
X4.4094Y-5.1053
X4.4168Y-2.5406
X4.4198Y-2.3078
X4.4449Y-3.3346
X4.4719Y-2.3594
X4.4882Y-4.0872
X4.4956Y-2.4313
X4.4956Y-2.5642
X4.4956Y-2.6291
X4.5Y-3.7559
X4.5039Y-3.6305
X4.5182Y-4.3871
X4.5433Y-5.1068
X4.5571Y-3.1398
X4.5827Y-3.1614
X4.5984Y-4.3657
X4.5984Y-4.6102
X4.5984Y-4.7559
X4.6073Y-4.2943
X4.6078Y-4.2156
X4.6102Y-5.235
X4.6138Y-5.1145
X4.626Y-3.2008
X4.6467Y-5.4909
X4.7205Y-4.1024
X4.7441Y-4.2402
X4.752Y-4.5
X4.752Y-4.5315
X4.752Y-4.5669
X4.7598Y-3.7402
X4.7992Y-2.6654
X4.847Y-5.2356
X4.873Y-5.4909
X4.8976Y-2.437
X4.8976Y-2.5197
X4.9469Y-2.233
X5.0039Y-5.235
X5.0103Y-2.233
X5.0295Y-2.8878
X5.0404Y-5.4909
X5.065Y-5.235
X5.0709Y-2.9134
X5.0748Y-3.1693
X5.1083Y-2.6339
X5.1575Y-2.2333
X5.1575Y-2.4163
X5.1575Y-2.5384
X5.2667Y-5.4909
X5.3974Y-5.235
X5.4339Y-5.4909
X5.4488Y-2.7441
X5.4585Y-5.235
X5.5344Y-2.1299
X5.6296Y-2.1293
X5.6602Y-5.4909
X5.7323Y-5.1406
X5.7348Y-2.6697
X5.7762Y-2.21
X5.7795Y-5.2008
X5.7955Y-3.7953
X5.7957Y-4.2228
X5.8057Y-2.4089
X5.8057Y-2.6844
X5.811Y-5.1457
X5.811Y-5.185
X5.8504Y-3.9843
X5.874Y-5.4787
X5.8786Y-2.6697
X5.9242Y-5.0896
X5.9252Y-5.1614
X5.9262Y-5.0197
X5.9724Y-5.3055
X5.9724Y-5.4787
X5.975Y-2.4536
X5.975Y-2.5781
X6.061Y-5.0896
X6.0709Y-5.3055
X6.0827Y-4.9291
X6.1417Y-2.4252
X6.1703Y-2.5994
X6.19Y-2.7165
X6.2195Y-2.3858
X6.2323Y-5.122
X6.2441Y-3.3691
X6.2441Y-3.4341
X6.3272Y-5.3055
X6.3272Y-5.4787
X6.3346Y-3.3155
X6.3789Y-2.3858
X6.4256Y-5.3055
X6.4256Y-5.4787
X6.4331Y-2.6348
X6.4916Y-2.3696
X6.5236Y-2.5787
X6.5251Y-4.0276
X6.5472Y-2.4803
X6.6334Y-2.4897
X6.6565Y-3.9114
X6.6708Y-2.6491
X6.6786Y-2.3696
X6.6929Y-3.0394
X6.6964Y-2.4286
X6.7943Y-3.437
X6.814Y-3.8858
X6.8238Y-3.3661
X6.8445Y-3.9705
X6.8868Y-3.5433
X6.8971Y-3.1831
X6.9754Y-3.9242
X6.9852Y-3.437
X7.0202Y-2.4192
X7.0443Y-3.248
X7.0478Y-2.49
X7.0478Y-2.54
X7.0882Y-2.7067
X7.1614Y-2.378
X7.1644Y-3.253
X7.1654Y-3.3701
X7.1673Y-3.9222
X7.1732Y-2.3465
X7.1998Y-4.0118
X7.2436Y-3.5244
X7.2451Y-2.8691
X7.2451Y-3.3533
X7.2648Y-4.0118
X7.3031Y-3.1693
X7.3086Y-3.5244
X7.3465Y-3.7126
X7.3465Y-3.8169
X7.3829Y-4.0118
X7.4439Y-3.3533
X7.5059Y-4.0118
X7.5069Y-3.5276
T3
X4.3504Y-5.4173
T4
X6.9331Y-2.4441
X6.9331Y-2.4933
T6
X4.1521Y-2.9817
X4.1521Y-3.0817
X4.1521Y-3.1817
X4.1521Y-3.2817
X4.1521Y-3.3817
X4.1521Y-3.4817
X4.1521Y-3.5817
X4.1521Y-3.6817
X4.1521Y-3.7817
X4.1521Y-3.8817
X4.1521Y-3.9817
X4.1521Y-4.0817
X4.1521Y-4.1817
X4.1521Y-4.2817
X4.1521Y-4.3817
X4.1521Y-4.4817
X4.1521Y-4.5817
X4.1521Y-4.6817
X4.1521Y-4.7817
X4.1521Y-4.8817
X4.2521Y-2.9817
X4.2521Y-3.0817
X4.2521Y-3.1817
X4.2521Y-3.2817
X4.2521Y-3.3817
X4.2521Y-3.4817
X4.2521Y-3.5817
X4.2521Y-3.6817
X4.2521Y-3.7817
X4.2521Y-3.8817
X4.2521Y-3.9817
X4.2521Y-4.0817
X4.2521Y-4.1817
X4.2521Y-4.2817
X4.2521Y-4.3817
X4.2521Y-4.4817
X4.2521Y-4.5817
X4.2521Y-4.6817
X4.2521Y-4.7817
X4.2521Y-4.8817
X4.3214Y-2.7453
X4.4214Y-2.7453
X6.3839Y-4.3878
X6.3839Y-4.4764
X6.3839Y-4.565
X6.3839Y-4.6535
X6.3839Y-4.7421
X6.3839Y-4.8307
X6.3839Y-4.9193
X6.4626Y-4.4321
X6.4626Y-4.5207
X6.4626Y-4.6093
X6.4626Y-4.6978
X6.4626Y-4.7864
X6.4626Y-4.875
X6.5413Y-4.4764
X6.5413Y-4.565
X6.5413Y-4.6535
X6.5413Y-4.7421
X6.5413Y-4.8307
X6.5413Y-4.9193
T7
X6.8803Y-2.1457
X6.9803Y-2.1457
X7.0803Y-2.1457
X7.1803Y-2.1457
T8
X4.3898Y-2.1142
X4.4882Y-2.1142
X4.7421Y-2.1139
X4.8406Y-2.1139
X6.2525Y-2.1164
X6.3509Y-2.1164
X6.5379Y-2.1164
X6.6363Y-2.1164
T9
X6.6201Y-4.4321
X6.6201Y-4.875
T10
X6.4626Y-4.2028
X6.4626Y-5.1043
X7.1398Y-4.2028
X7.1398Y-5.1043
T11
X6.8642Y-4.2028
X6.8642Y-5.1043
T5
G00X7.2612Y-3.5976
M15
G01X7.3045Y-3.5976
M16
G05
G00X7.2612Y-3.9378
M15
G01X7.3045Y-3.9378
M16
G05
G00X7.2616Y-2.9402
M15
G01X7.3049Y-2.9402
M16
G05
G00X7.2616Y-3.2803
M15
G01X7.3049Y-3.2803
M16
G05
G00X7.4317Y-3.5976
M15
G01X7.4632Y-3.5976
M16
G05
G00X7.4317Y-3.9378
M15
G01X7.4632Y-3.9378
M16
G05
G00X7.4321Y-2.9402
M15
G01X7.4636Y-2.9402
M16
G05
G00X7.4321Y-3.2803
M15
G01X7.4636Y-3.2803
M16
G05
M30
