M48
; DRILL file {KiCad 9.0.3} date 2026-01-31T15:24:28-0600
; FORMAT={-:-/ absolute / inch / decimal}
; #@! TF.CreationDate,2026-01-31T15:24:28-06:00
; #@! TF.GenerationSoftware,Kicad,Pcbnew,9.0.3
; #@! TF.FileFunction,Plated,1,4,PTH
FMAT,2
INCH
; #@! TA.AperFunction,Plated,PTH,ViaDrill
T1C0.0079
; #@! TA.AperFunction,Plated,PTH,ViaDrill
T2C0.0118
; #@! TA.AperFunction,Plated,PTH,ComponentDrill
T3C0.0220
; #@! TA.AperFunction,Plated,PTH,ComponentDrill
T4C0.0236
; #@! TA.AperFunction,Plated,PTH,ComponentDrill
T5C0.0280
; #@! TA.AperFunction,Plated,PTH,ComponentDrill
T6C0.0354
; #@! TA.AperFunction,Plated,PTH,ComponentDrill
T7C0.0394
; #@! TA.AperFunction,Plated,PTH,ComponentDrill
T8C0.0472
; #@! TA.AperFunction,Plated,PTH,ComponentDrill
T9C0.0630
; #@! TA.AperFunction,Plated,PTH,ComponentDrill
T10C0.0910
%
G90
G05
T1
X2.731Y-4.7093
X2.7311Y-4.8927
X2.7316Y-4.6793
X2.7316Y-4.9201
X2.7523Y-4.9434
X2.7532Y-4.658
X2.7646Y-3.972
X2.7729Y-4.6373
X2.7753Y-4.8131
X2.7755Y-4.7816
X2.7759Y-4.532
X2.7759Y-4.5794
X2.7759Y-4.9641
X2.7897Y-5.7717
X2.7963Y-5.2185
X2.8213Y-4.3148
X2.8346Y-5.2657
X2.8557Y-4.0535
X2.872Y-4.6811
X2.8898Y-4.6316
X2.8937Y-4.6063
X3.0367Y-4.9411
X3.0367Y-4.969
X3.0373Y-4.8802
X3.0373Y-4.909
X3.0376Y-4.5683
X3.0376Y-4.7123
X3.0377Y-4.596
X3.0377Y-4.6531
X3.0377Y-4.7934
X3.0377Y-4.6237
X3.0377Y-4.6842
X3.038Y-4.7666
X3.038Y-3.4522
X3.038Y-4.7396
X3.0382Y-4.8199
X3.0387Y-4.8509
X3.189Y-6.1033
X3.2116Y-5.1929
X3.2323Y-5.2165
X3.9961Y-4.3287
X3.9961Y-4.3681
X3.9961Y-4.4055
X3.9961Y-4.4449
X3.9961Y-4.4823
X3.9961Y-4.5217
X3.9961Y-4.561
X3.9961Y-4.6004
X3.9961Y-4.6398
X3.9961Y-4.6791
X3.9961Y-4.7185
X3.9961Y-4.7579
X3.9961Y-4.7972
X3.9961Y-4.8366
X3.9961Y-4.876
X3.9961Y-4.9154
X3.9961Y-4.9547
X3.9961Y-4.9941
X3.9961Y-5.0335
X3.9961Y-5.0728
X3.9961Y-5.1122
X3.9961Y-5.1516
X3.9961Y-5.1909
X3.9961Y-5.2303
X3.9961Y-5.2697
X3.9961Y-5.3091
X3.9961Y-5.3484
X3.9961Y-5.3878
X3.9961Y-5.4252
X4.0354Y-4.3287
X4.0354Y-4.3681
X4.0354Y-4.4055
X4.0354Y-4.4449
X4.0354Y-4.4823
X4.0354Y-4.5217
X4.0354Y-4.561
X4.0354Y-4.6004
X4.0354Y-4.6398
X4.0354Y-4.6791
X4.0354Y-4.7185
X4.0354Y-4.7579
X4.0354Y-4.7972
X4.0354Y-4.8366
X4.0354Y-4.876
X4.0354Y-4.9154
X4.0354Y-4.9547
X4.0354Y-4.9941
X4.0354Y-5.0335
X4.0354Y-5.0728
X4.0354Y-5.1122
X4.0354Y-5.1516
X4.0354Y-5.1909
X4.0354Y-5.2303
X4.0354Y-5.2697
X4.0354Y-5.3091
X4.0354Y-5.3484
X4.0354Y-5.3878
X4.0354Y-5.4252
X4.0354Y-5.4567
X4.0748Y-4.3287
X4.0748Y-4.3681
X4.0748Y-4.4055
X4.0748Y-4.4449
X4.0748Y-4.4823
X4.0748Y-4.5217
X4.0748Y-4.561
X4.0748Y-4.6004
X4.0748Y-4.6398
X4.0748Y-4.6791
X4.0748Y-4.7185
X4.0748Y-4.7579
X4.0748Y-4.7972
X4.0748Y-4.8366
X4.0748Y-4.876
X4.0748Y-4.9154
X4.0748Y-4.9547
X4.0748Y-4.9941
X4.0748Y-5.0335
X4.0748Y-5.0728
X4.0748Y-5.1122
X4.0748Y-5.1516
X4.0748Y-5.1909
X4.0748Y-5.2303
X4.0748Y-5.2697
X4.0748Y-5.3091
X4.0748Y-5.3484
X4.0748Y-5.3878
X4.0748Y-5.4252
X4.0748Y-5.4567
X4.0748Y-5.4882
X4.2047Y-4.5148
X4.2047Y-4.6074
X4.2047Y-4.7019
X4.2047Y-4.7491
X4.2047Y-5.0276
X4.2047Y-5.0748
X4.2047Y-5.122
X4.2047Y-5.1693
X4.2047Y-5.2165
X4.2096Y-4.9331
X4.2096Y-4.9764
X4.2244Y-4.1142
X4.2283Y-4.8976
X4.2559Y-4.9331
X4.2559Y-4.9803
X4.2559Y-5.0315
X4.2559Y-5.0787
X4.2559Y-5.122
X4.2559Y-5.2165
X4.2598Y-4.5148
X4.2598Y-4.6093
X4.2598Y-4.7038
X4.2598Y-4.7491
X4.3307Y-4.4744
X4.3307Y-4.5492
X4.3307Y-4.6299
X4.3327Y-5.2165
X4.35Y-4.9831
X4.3512Y-5.1835
X4.3563Y-6.0529
X4.3691Y-4.6909
X4.378Y-4.4193
X4.3819Y-4.8012
X4.3848Y-4.5945
X4.3848Y-4.6447
X4.3858Y-4.5443
X4.3894Y-5.2177
X4.3917Y-4.4862
X4.4035Y-4.9843
X4.4262Y-4.7264
X4.4272Y-4.4488
X4.4334Y-5.267
X4.437Y-4.6289
X4.437Y-4.6801
X4.4457Y-4.9996
X4.4488Y-4.3858
X4.4728Y-5.3064
X4.4744Y-4.7795
X4.4866Y-5.0398
X4.5121Y-5.3457
X4.526Y-5.0791
X4.5343Y-5.7823
X4.5515Y-5.3851
X4.5641Y-4.4421
X4.5654Y-5.1185
X4.5728Y-4.6793
X4.5909Y-5.4245
X4.6047Y-5.1579
X4.636Y-5.3268
X4.636Y-5.4429
X4.637Y-5.2657
X4.637Y-5.3839
X4.6441Y-5.1972
X4.6469Y-5.5069
X4.7472Y-5.3839
X4.7482Y-5.3238
X4.7482Y-5.4409
X4.7492Y-5.2657
X4.878Y-3.811
X4.9008Y-3.9433
X4.9075Y-5.9385
X4.9565Y-3.8459
X5.0396Y-3.9039
X5.0396Y-3.9433
X5.051Y-3.9679
T2
X2.6427Y-3.3474
X2.6585Y-3.0315
X2.6585Y-3.1955
X2.8268Y-2.7687
X2.8527Y-4.1708
X2.8927Y-4.4665
X2.8927Y-4.5138
X2.8927Y-4.5591
X2.8937Y-4.7874
X2.8937Y-4.8642
X2.8937Y-4.9213
X2.8937Y-4.9705
X2.8937Y-5.0276
X2.8957Y-4.7126
X2.9213Y-5.1201
X2.9216Y-5.0706
X2.9314Y-4.3322
X2.9547Y-5.2756
X2.9649Y-3.9759
X2.9705Y-3.5171
X2.9747Y-4.281
X2.9803Y-6.1127
X2.9905Y-3.9975
X2.9921Y-4.0803
X3.0Y-5.0965
X3.0062Y-5.189
X3.0062Y-5.4464
X3.0062Y-5.592
X3.0108Y-4.0216
X3.0134Y-5.0406
X3.018Y-4.2259
X3.0344Y-4.5246
X3.0586Y-5.8819
X3.1115Y-5.4035
X3.1342Y-5.3816
X3.1382Y-2.93
X3.1564Y-5.3593
X3.1591Y-4.5236
X3.1596Y-4.5683
X3.1667Y-4.2259
X3.1667Y-4.281
X3.1667Y-4.3322
X3.167Y-2.6786
X3.2077Y-4.5
X3.2146Y-3.1201
X3.2146Y-3.1732
X3.2205Y-5.9168
X3.2311Y-4.9713
X3.2539Y-3.1476
X3.2657Y-3.4764
X3.2953Y-3.1201
X3.2953Y-3.1732
X3.3465Y-2.811
X3.4016Y-6.1142
X3.4254Y-2.884
X3.5409Y-3.439
X3.6654Y-2.7638
X3.9367Y-3.5374
X4.0118Y-3.3819
X4.0512Y-3.878
X4.0709Y-3.0551
X4.1106Y-3.3823
X4.1417Y-3.311
X4.2864Y-4.0246
X4.311Y-3.563
X4.3189Y-3.9724
X4.4167Y-3.7008
X4.4405Y-6.014
X4.4409Y-5.982
X4.4409Y-6.045
X4.4453Y-3.5969
X4.4669Y-3.8524
X4.4744Y-3.8091
X4.5157Y-3.3268
X4.5433Y-2.8819
X4.5453Y-4.2143
X4.5935Y-3.375
X4.6088Y-5.9162
X4.6102Y-6.0827
X4.7175Y-3.5394
X4.7175Y-3.6535
X4.7197Y-5.6334
X4.763Y-5.5374
X4.7923Y-3.6801
X4.8189Y-3.6575
X4.8307Y-3.5384
X4.9203Y-3.6378
X4.9205Y-5.5197
X4.9321Y-3.2894
X4.94Y-3.5699
X4.9402Y-5.5551
X4.9616Y-4.1614
X4.9628Y-5.8447
X4.9628Y-5.9037
X4.9633Y-5.8757
X4.9644Y-4.0388
X4.9683Y-3.752
X4.9764Y-3.6398
X5.0031Y-5.7205
X5.0157Y-3.311
X5.0504Y-5.6358
X5.063Y-6.0091
X5.1289Y-5.887
X5.1378Y-3.6339
X5.2057Y-4.1611
T3
X2.5866Y-5.8494
X2.6358Y-5.8494
T5
X4.665Y-4.374
X4.665Y-4.4528
X4.665Y-4.5315
X4.665Y-4.6102
X4.665Y-4.689
X4.724Y-4.3941
X4.724Y-4.4925
X4.724Y-4.5709
X4.724Y-4.6693
T7
X2.5599Y-3.8178
X2.5599Y-3.9178
X2.5599Y-4.0178
X2.5599Y-4.1178
X2.5599Y-4.2178
X2.5599Y-4.3178
X2.5599Y-4.4178
X2.5599Y-4.5178
X2.5599Y-4.6178
X2.5599Y-4.7178
X2.5599Y-4.8178
X2.5599Y-4.9178
X2.5599Y-5.0178
X2.5599Y-5.1178
X2.5599Y-5.2178
X2.5599Y-5.3178
X2.5599Y-5.4178
X2.5599Y-5.5178
X2.5599Y-5.6178
X2.5599Y-5.7178
X2.6599Y-3.8178
X2.6599Y-3.9178
X2.6599Y-4.0178
X2.6599Y-4.1178
X2.6599Y-4.2178
X2.6599Y-4.3178
X2.6599Y-4.4178
X2.6599Y-4.5178
X2.6599Y-4.6178
X2.6599Y-4.7178
X2.6599Y-4.8178
X2.6599Y-4.9178
X2.6599Y-5.0178
X2.6599Y-5.1178
X2.6599Y-5.2178
X2.6599Y-5.3178
X2.6599Y-5.4178
X2.6599Y-5.5178
X2.6599Y-5.6178
X2.6599Y-5.7178
X3.69Y-6.0266
X3.69Y-6.1266
X3.8612Y-6.027
X3.8612Y-6.127
X4.0276Y-6.027
X4.0276Y-6.127
X4.1949Y-6.0266
X4.1949Y-6.1266
X4.6352Y-3.8252
X4.7352Y-3.8252
X5.0043Y-3.1549
X5.1043Y-3.1549
T8
X3.8799Y-2.8753
X3.9783Y-2.8753
X4.2953Y-2.8753
X4.3937Y-2.8753
X4.6957Y-2.8761
X4.7941Y-2.8761
X5.0028Y-2.8761
X5.1012Y-2.8761
T9
X3.5803Y-2.9171
X3.5803Y-3.3076
X3.7141Y-2.9171
X3.7141Y-3.3076
T10
X4.8028Y-4.2679
X4.8028Y-4.7955
T4
G00X5.0055Y-3.7437
M15
G01X5.0488Y-3.7437
M16
G05
G00X5.0055Y-4.0839
M15
G01X5.0488Y-4.0839
M16
G05
G00X5.176Y-3.7437
M15
G01X5.2075Y-3.7437
M16
G05
G00X5.176Y-4.0839
M15
G01X5.2075Y-4.0839
M16
G05
T6
G00X4.8368Y-5.1083
M15
G01X4.9077Y-5.1083
M16
G05
G00X4.8368Y-5.6791
M15
G01X4.9077Y-5.6791
M16
G05
G00X5.0911Y-5.1083
M15
G01X5.1226Y-5.1083
M16
G05
G00X5.0911Y-5.6791
M15
G01X5.1226Y-5.6791
M16
G05
M30
