%TF.GenerationSoftware,KiCad,Pcbnew,9.0.3*%
%TF.CreationDate,2026-01-31T15:24:33-06:00*%
%TF.ProjectId,PiBoard,5069426f-6172-4642-9e6b-696361645f70,rev?*%
%TF.SameCoordinates,Original*%
%TF.FileFunction,Paste,Top*%
%TF.FilePolarity,Positive*%
%FSLAX46Y46*%
G04 Gerber Fmt 4.6, Leading zero omitted, Abs format (unit mm)*
G04 Created by KiCad (PCBNEW 9.0.3) date 2026-01-31 15:24:33*
%MOMM*%
%LPD*%
G01*
G04 APERTURE LIST*
G04 Aperture macros list*
%AMRoundRect*
0 Rectangle with rounded corners*
0 $1 Rounding radius*
0 $2 $3 $4 $5 $6 $7 $8 $9 X,Y pos of 4 corners*
0 Add a 4 corners polygon primitive as box body*
4,1,4,$2,$3,$4,$5,$6,$7,$8,$9,$2,$3,0*
0 Add four circle primitives for the rounded corners*
1,1,$1+$1,$2,$3*
1,1,$1+$1,$4,$5*
1,1,$1+$1,$6,$7*
1,1,$1+$1,$8,$9*
0 Add four rect primitives between the rounded corners*
20,1,$1+$1,$2,$3,$4,$5,0*
20,1,$1+$1,$4,$5,$6,$7,0*
20,1,$1+$1,$6,$7,$8,$9,0*
20,1,$1+$1,$8,$9,$2,$3,0*%
G04 Aperture macros list end*
%ADD10C,0.010000*%
%ADD11RoundRect,0.150000X0.150000X0.200000X-0.150000X0.200000X-0.150000X-0.200000X0.150000X-0.200000X0*%
%ADD12RoundRect,0.250000X0.337500X0.475000X-0.337500X0.475000X-0.337500X-0.475000X0.337500X-0.475000X0*%
%ADD13RoundRect,0.237500X0.250000X0.237500X-0.250000X0.237500X-0.250000X-0.237500X0.250000X-0.237500X0*%
%ADD14RoundRect,0.237500X-0.287500X-0.237500X0.287500X-0.237500X0.287500X0.237500X-0.287500X0.237500X0*%
%ADD15RoundRect,0.250000X-0.475000X0.337500X-0.475000X-0.337500X0.475000X-0.337500X0.475000X0.337500X0*%
%ADD16RoundRect,0.050000X0.232500X0.050000X-0.232500X0.050000X-0.232500X-0.050000X0.232500X-0.050000X0*%
%ADD17RoundRect,0.237500X0.237500X-0.300000X0.237500X0.300000X-0.237500X0.300000X-0.237500X-0.300000X0*%
%ADD18RoundRect,0.237500X0.237500X-0.250000X0.237500X0.250000X-0.237500X0.250000X-0.237500X-0.250000X0*%
%ADD19RoundRect,0.237500X-0.250000X-0.237500X0.250000X-0.237500X0.250000X0.237500X-0.250000X0.237500X0*%
%ADD20RoundRect,0.150000X0.425000X-0.150000X0.425000X0.150000X-0.425000X0.150000X-0.425000X-0.150000X0*%
%ADD21RoundRect,0.075000X0.500000X-0.075000X0.500000X0.075000X-0.500000X0.075000X-0.500000X-0.075000X0*%
%ADD22O,2.100000X1.000000*%
%ADD23O,1.800000X1.000000*%
%ADD24R,1.000000X0.750000*%
%ADD25R,1.900000X2.400000*%
%ADD26R,1.200000X0.450000*%
%ADD27RoundRect,0.050000X-0.232500X-0.050000X0.232500X-0.050000X0.232500X0.050000X-0.232500X0.050000X0*%
%ADD28RoundRect,0.250000X-0.275000X-0.350000X0.275000X-0.350000X0.275000X0.350000X-0.275000X0.350000X0*%
%ADD29RoundRect,0.237500X0.287500X0.237500X-0.287500X0.237500X-0.287500X-0.237500X0.287500X-0.237500X0*%
%ADD30RoundRect,0.150000X-0.625000X0.150000X-0.625000X-0.150000X0.625000X-0.150000X0.625000X0.150000X0*%
%ADD31RoundRect,0.250000X-0.650000X0.350000X-0.650000X-0.350000X0.650000X-0.350000X0.650000X0.350000X0*%
%ADD32RoundRect,0.237500X-0.300000X-0.237500X0.300000X-0.237500X0.300000X0.237500X-0.300000X0.237500X0*%
%ADD33RoundRect,0.237500X0.300000X0.237500X-0.300000X0.237500X-0.300000X-0.237500X0.300000X-0.237500X0*%
%ADD34RoundRect,0.237500X-0.237500X0.300000X-0.237500X-0.300000X0.237500X-0.300000X0.237500X0.300000X0*%
%ADD35RoundRect,0.175000X-0.175000X0.325000X-0.175000X-0.325000X0.175000X-0.325000X0.175000X0.325000X0*%
%ADD36R,0.480000X0.750000*%
%ADD37R,2.720000X4.560000*%
%ADD38R,0.910000X5.560000*%
%ADD39R,0.420000X4.560000*%
%ADD40RoundRect,0.250001X-0.624999X0.462499X-0.624999X-0.462499X0.624999X-0.462499X0.624999X0.462499X0*%
%ADD41RoundRect,0.250000X0.350000X0.450000X-0.350000X0.450000X-0.350000X-0.450000X0.350000X-0.450000X0*%
%ADD42R,0.650000X1.500000*%
%ADD43R,3.350000X2.710000*%
%ADD44R,0.850000X0.350000*%
%ADD45R,1.700000X2.450000*%
%ADD46RoundRect,0.250000X0.350000X-0.275000X0.350000X0.275000X-0.350000X0.275000X-0.350000X-0.275000X0*%
%ADD47RoundRect,0.250000X-0.751301X-0.167938X-0.167938X-0.751301X0.751301X0.167938X0.167938X0.751301X0*%
%ADD48RoundRect,0.237500X-0.237500X0.250000X-0.237500X-0.250000X0.237500X-0.250000X0.237500X0.250000X0*%
%ADD49R,0.450000X1.200000*%
%ADD50R,2.600000X0.300000*%
%ADD51RoundRect,0.237500X0.237500X-0.287500X0.237500X0.287500X-0.237500X0.287500X-0.237500X-0.287500X0*%
%ADD52RoundRect,0.250000X-0.450000X0.262500X-0.450000X-0.262500X0.450000X-0.262500X0.450000X0.262500X0*%
%ADD53RoundRect,0.100000X-0.100000X0.637500X-0.100000X-0.637500X0.100000X-0.637500X0.100000X0.637500X0*%
%ADD54R,0.700000X0.200000*%
%ADD55RoundRect,0.250000X0.475000X-0.337500X0.475000X0.337500X-0.475000X0.337500X-0.475000X-0.337500X0*%
%ADD56R,2.350000X3.500000*%
%ADD57RoundRect,0.250000X0.650000X-1.000000X0.650000X1.000000X-0.650000X1.000000X-0.650000X-1.000000X0*%
%ADD58RoundRect,0.225000X-0.375000X0.225000X-0.375000X-0.225000X0.375000X-0.225000X0.375000X0.225000X0*%
%ADD59RoundRect,0.250000X-0.450000X0.350000X-0.450000X-0.350000X0.450000X-0.350000X0.450000X0.350000X0*%
G04 APERTURE END LIST*
D10*
%TO.C,D12*%
X114925500Y-118671001D02*
X114927500Y-118671001D01*
X114930500Y-118672001D01*
X114932500Y-118672001D01*
X114935500Y-118673001D01*
X114937500Y-118674001D01*
X114940500Y-118675001D01*
X114942500Y-118677001D01*
X114944500Y-118678001D01*
X114946500Y-118680001D01*
X114948500Y-118681001D01*
X114950500Y-118683001D01*
X114952500Y-118685001D01*
X114954500Y-118687001D01*
X114956500Y-118689001D01*
X114957500Y-118691001D01*
X114959500Y-118693001D01*
X114960500Y-118695001D01*
X114962500Y-118697001D01*
X114963500Y-118700001D01*
X114964500Y-118702001D01*
X114965500Y-118705001D01*
X114965500Y-118707001D01*
X114966500Y-118710001D01*
X114966500Y-118712001D01*
X114967500Y-118715001D01*
X114967500Y-118717001D01*
X114967500Y-118720001D01*
X114967500Y-118980001D01*
X114967500Y-118983001D01*
X114967500Y-118985001D01*
X114966500Y-118988001D01*
X114966500Y-118990001D01*
X114965500Y-118993001D01*
X114965500Y-118995001D01*
X114964500Y-118998001D01*
X114963500Y-119000001D01*
X114962500Y-119003001D01*
X114960500Y-119005001D01*
X114959500Y-119007001D01*
X114957500Y-119009001D01*
X114956500Y-119011001D01*
X114954500Y-119013001D01*
X114952500Y-119015001D01*
X114950500Y-119017001D01*
X114948500Y-119019001D01*
X114946500Y-119020001D01*
X114944500Y-119022001D01*
X114942500Y-119023001D01*
X114940500Y-119025001D01*
X114937500Y-119026001D01*
X114935500Y-119027001D01*
X114932500Y-119028001D01*
X114930500Y-119028001D01*
X114927500Y-119029001D01*
X114925500Y-119029001D01*
X114922500Y-119030001D01*
X114920500Y-119030001D01*
X114917500Y-119030001D01*
X114450500Y-119030001D01*
X114447500Y-119030001D01*
X114445500Y-119030001D01*
X114442500Y-119029001D01*
X114440500Y-119029001D01*
X114437500Y-119028001D01*
X114435500Y-119028001D01*
X114432500Y-119027001D01*
X114430500Y-119026001D01*
X114428500Y-119025001D01*
X114426500Y-119024001D01*
X114424500Y-119022001D01*
X114422500Y-119021001D01*
X114420500Y-119019001D01*
X114418500Y-119018001D01*
X114416500Y-119016001D01*
X114414500Y-119014001D01*
X114413500Y-119012001D01*
X114411500Y-119010001D01*
X114410500Y-119008001D01*
X114408500Y-119006001D01*
X114407500Y-119004001D01*
X114406500Y-119002001D01*
X114405500Y-119000001D01*
X114404500Y-118997001D01*
X114404500Y-118995001D01*
X114403500Y-118992001D01*
X114403500Y-118990001D01*
X114402500Y-118987001D01*
X114402500Y-118985001D01*
X114402500Y-118983001D01*
X114402500Y-118720001D01*
X114402500Y-118717001D01*
X114402500Y-118715001D01*
X114403500Y-118712001D01*
X114403500Y-118710001D01*
X114404500Y-118707001D01*
X114404500Y-118705001D01*
X114405500Y-118702001D01*
X114406500Y-118700001D01*
X114407500Y-118697001D01*
X114409500Y-118695001D01*
X114410500Y-118693001D01*
X114412500Y-118691001D01*
X114413500Y-118689001D01*
X114415500Y-118687001D01*
X114417500Y-118685001D01*
X114419500Y-118683001D01*
X114421500Y-118681001D01*
X114423500Y-118680001D01*
X114425500Y-118678001D01*
X114427500Y-118677001D01*
X114429500Y-118675001D01*
X114432500Y-118674001D01*
X114434500Y-118673001D01*
X114437500Y-118672001D01*
X114439500Y-118672001D01*
X114442500Y-118671001D01*
X114444500Y-118671001D01*
X114447500Y-118670001D01*
X114449500Y-118670001D01*
X114452500Y-118670001D01*
X114917500Y-118670001D01*
X114920500Y-118670001D01*
X114922500Y-118670001D01*
X114925500Y-118671001D01*
G36*
X114925500Y-118671001D02*
G01*
X114927500Y-118671001D01*
X114930500Y-118672001D01*
X114932500Y-118672001D01*
X114935500Y-118673001D01*
X114937500Y-118674001D01*
X114940500Y-118675001D01*
X114942500Y-118677001D01*
X114944500Y-118678001D01*
X114946500Y-118680001D01*
X114948500Y-118681001D01*
X114950500Y-118683001D01*
X114952500Y-118685001D01*
X114954500Y-118687001D01*
X114956500Y-118689001D01*
X114957500Y-118691001D01*
X114959500Y-118693001D01*
X114960500Y-118695001D01*
X114962500Y-118697001D01*
X114963500Y-118700001D01*
X114964500Y-118702001D01*
X114965500Y-118705001D01*
X114965500Y-118707001D01*
X114966500Y-118710001D01*
X114966500Y-118712001D01*
X114967500Y-118715001D01*
X114967500Y-118717001D01*
X114967500Y-118720001D01*
X114967500Y-118980001D01*
X114967500Y-118983001D01*
X114967500Y-118985001D01*
X114966500Y-118988001D01*
X114966500Y-118990001D01*
X114965500Y-118993001D01*
X114965500Y-118995001D01*
X114964500Y-118998001D01*
X114963500Y-119000001D01*
X114962500Y-119003001D01*
X114960500Y-119005001D01*
X114959500Y-119007001D01*
X114957500Y-119009001D01*
X114956500Y-119011001D01*
X114954500Y-119013001D01*
X114952500Y-119015001D01*
X114950500Y-119017001D01*
X114948500Y-119019001D01*
X114946500Y-119020001D01*
X114944500Y-119022001D01*
X114942500Y-119023001D01*
X114940500Y-119025001D01*
X114937500Y-119026001D01*
X114935500Y-119027001D01*
X114932500Y-119028001D01*
X114930500Y-119028001D01*
X114927500Y-119029001D01*
X114925500Y-119029001D01*
X114922500Y-119030001D01*
X114920500Y-119030001D01*
X114917500Y-119030001D01*
X114450500Y-119030001D01*
X114447500Y-119030001D01*
X114445500Y-119030001D01*
X114442500Y-119029001D01*
X114440500Y-119029001D01*
X114437500Y-119028001D01*
X114435500Y-119028001D01*
X114432500Y-119027001D01*
X114430500Y-119026001D01*
X114428500Y-119025001D01*
X114426500Y-119024001D01*
X114424500Y-119022001D01*
X114422500Y-119021001D01*
X114420500Y-119019001D01*
X114418500Y-119018001D01*
X114416500Y-119016001D01*
X114414500Y-119014001D01*
X114413500Y-119012001D01*
X114411500Y-119010001D01*
X114410500Y-119008001D01*
X114408500Y-119006001D01*
X114407500Y-119004001D01*
X114406500Y-119002001D01*
X114405500Y-119000001D01*
X114404500Y-118997001D01*
X114404500Y-118995001D01*
X114403500Y-118992001D01*
X114403500Y-118990001D01*
X114402500Y-118987001D01*
X114402500Y-118985001D01*
X114402500Y-118983001D01*
X114402500Y-118720001D01*
X114402500Y-118717001D01*
X114402500Y-118715001D01*
X114403500Y-118712001D01*
X114403500Y-118710001D01*
X114404500Y-118707001D01*
X114404500Y-118705001D01*
X114405500Y-118702001D01*
X114406500Y-118700001D01*
X114407500Y-118697001D01*
X114409500Y-118695001D01*
X114410500Y-118693001D01*
X114412500Y-118691001D01*
X114413500Y-118689001D01*
X114415500Y-118687001D01*
X114417500Y-118685001D01*
X114419500Y-118683001D01*
X114421500Y-118681001D01*
X114423500Y-118680001D01*
X114425500Y-118678001D01*
X114427500Y-118677001D01*
X114429500Y-118675001D01*
X114432500Y-118674001D01*
X114434500Y-118673001D01*
X114437500Y-118672001D01*
X114439500Y-118672001D01*
X114442500Y-118671001D01*
X114444500Y-118671001D01*
X114447500Y-118670001D01*
X114449500Y-118670001D01*
X114452500Y-118670001D01*
X114917500Y-118670001D01*
X114920500Y-118670001D01*
X114922500Y-118670001D01*
X114925500Y-118671001D01*
G37*
X115760500Y-118671001D02*
X115762500Y-118671001D01*
X115765500Y-118672001D01*
X115767500Y-118672001D01*
X115770500Y-118673001D01*
X115772500Y-118674001D01*
X115775500Y-118675001D01*
X115777500Y-118677001D01*
X115779500Y-118678001D01*
X115781500Y-118680001D01*
X115783500Y-118681001D01*
X115785500Y-118683001D01*
X115787500Y-118685001D01*
X115789500Y-118687001D01*
X115791500Y-118689001D01*
X115792500Y-118691001D01*
X115794500Y-118693001D01*
X115795500Y-118695001D01*
X115797500Y-118697001D01*
X115798500Y-118700001D01*
X115799500Y-118702001D01*
X115800500Y-118705001D01*
X115800500Y-118707001D01*
X115801500Y-118710001D01*
X115801500Y-118712001D01*
X115802500Y-118715001D01*
X115802500Y-118717001D01*
X115802500Y-118720001D01*
X115802500Y-118980001D01*
X115802500Y-118983001D01*
X115802500Y-118985001D01*
X115801500Y-118988001D01*
X115801500Y-118990001D01*
X115800500Y-118993001D01*
X115800500Y-118995001D01*
X115799500Y-118998001D01*
X115798500Y-119000001D01*
X115797500Y-119003001D01*
X115795500Y-119005001D01*
X115794500Y-119007001D01*
X115792500Y-119009001D01*
X115791500Y-119011001D01*
X115789500Y-119013001D01*
X115787500Y-119015001D01*
X115785500Y-119017001D01*
X115783500Y-119019001D01*
X115781500Y-119020001D01*
X115779500Y-119022001D01*
X115777500Y-119023001D01*
X115775500Y-119025001D01*
X115772500Y-119026001D01*
X115770500Y-119027001D01*
X115767500Y-119028001D01*
X115765500Y-119028001D01*
X115762500Y-119029001D01*
X115760500Y-119029001D01*
X115757500Y-119030001D01*
X115755500Y-119030001D01*
X115752500Y-119030001D01*
X115284500Y-119030001D01*
X115282500Y-119030001D01*
X115280500Y-119030001D01*
X115277500Y-119029001D01*
X115275500Y-119029001D01*
X115272500Y-119028001D01*
X115270500Y-119028001D01*
X115267500Y-119027001D01*
X115265500Y-119026001D01*
X115263500Y-119025001D01*
X115261500Y-119024001D01*
X115259500Y-119022001D01*
X115257500Y-119021001D01*
X115255500Y-119019001D01*
X115253500Y-119018001D01*
X115251500Y-119016001D01*
X115249500Y-119014001D01*
X115248500Y-119012001D01*
X115246500Y-119010001D01*
X115245500Y-119008001D01*
X115243500Y-119006001D01*
X115242500Y-119004001D01*
X115241500Y-119002001D01*
X115240500Y-119000001D01*
X115239500Y-118997001D01*
X115239500Y-118995001D01*
X115238500Y-118992001D01*
X115238500Y-118990001D01*
X115237500Y-118987001D01*
X115237500Y-118985001D01*
X115237500Y-118983001D01*
X115237500Y-118720001D01*
X115237500Y-118717001D01*
X115237500Y-118715001D01*
X115238500Y-118712001D01*
X115238500Y-118710001D01*
X115239500Y-118707001D01*
X115239500Y-118705001D01*
X115240500Y-118702001D01*
X115241500Y-118700001D01*
X115242500Y-118697001D01*
X115244500Y-118695001D01*
X115245500Y-118693001D01*
X115247500Y-118691001D01*
X115248500Y-118689001D01*
X115250500Y-118687001D01*
X115252500Y-118685001D01*
X115254500Y-118683001D01*
X115256500Y-118681001D01*
X115258500Y-118680001D01*
X115260500Y-118678001D01*
X115262500Y-118677001D01*
X115264500Y-118675001D01*
X115267500Y-118674001D01*
X115269500Y-118673001D01*
X115272500Y-118672001D01*
X115274500Y-118672001D01*
X115277500Y-118671001D01*
X115279500Y-118671001D01*
X115282500Y-118670001D01*
X115284500Y-118670001D01*
X115287500Y-118670001D01*
X115752500Y-118670001D01*
X115755500Y-118670001D01*
X115757500Y-118670001D01*
X115760500Y-118671001D01*
G36*
X115760500Y-118671001D02*
G01*
X115762500Y-118671001D01*
X115765500Y-118672001D01*
X115767500Y-118672001D01*
X115770500Y-118673001D01*
X115772500Y-118674001D01*
X115775500Y-118675001D01*
X115777500Y-118677001D01*
X115779500Y-118678001D01*
X115781500Y-118680001D01*
X115783500Y-118681001D01*
X115785500Y-118683001D01*
X115787500Y-118685001D01*
X115789500Y-118687001D01*
X115791500Y-118689001D01*
X115792500Y-118691001D01*
X115794500Y-118693001D01*
X115795500Y-118695001D01*
X115797500Y-118697001D01*
X115798500Y-118700001D01*
X115799500Y-118702001D01*
X115800500Y-118705001D01*
X115800500Y-118707001D01*
X115801500Y-118710001D01*
X115801500Y-118712001D01*
X115802500Y-118715001D01*
X115802500Y-118717001D01*
X115802500Y-118720001D01*
X115802500Y-118980001D01*
X115802500Y-118983001D01*
X115802500Y-118985001D01*
X115801500Y-118988001D01*
X115801500Y-118990001D01*
X115800500Y-118993001D01*
X115800500Y-118995001D01*
X115799500Y-118998001D01*
X115798500Y-119000001D01*
X115797500Y-119003001D01*
X115795500Y-119005001D01*
X115794500Y-119007001D01*
X115792500Y-119009001D01*
X115791500Y-119011001D01*
X115789500Y-119013001D01*
X115787500Y-119015001D01*
X115785500Y-119017001D01*
X115783500Y-119019001D01*
X115781500Y-119020001D01*
X115779500Y-119022001D01*
X115777500Y-119023001D01*
X115775500Y-119025001D01*
X115772500Y-119026001D01*
X115770500Y-119027001D01*
X115767500Y-119028001D01*
X115765500Y-119028001D01*
X115762500Y-119029001D01*
X115760500Y-119029001D01*
X115757500Y-119030001D01*
X115755500Y-119030001D01*
X115752500Y-119030001D01*
X115284500Y-119030001D01*
X115282500Y-119030001D01*
X115280500Y-119030001D01*
X115277500Y-119029001D01*
X115275500Y-119029001D01*
X115272500Y-119028001D01*
X115270500Y-119028001D01*
X115267500Y-119027001D01*
X115265500Y-119026001D01*
X115263500Y-119025001D01*
X115261500Y-119024001D01*
X115259500Y-119022001D01*
X115257500Y-119021001D01*
X115255500Y-119019001D01*
X115253500Y-119018001D01*
X115251500Y-119016001D01*
X115249500Y-119014001D01*
X115248500Y-119012001D01*
X115246500Y-119010001D01*
X115245500Y-119008001D01*
X115243500Y-119006001D01*
X115242500Y-119004001D01*
X115241500Y-119002001D01*
X115240500Y-119000001D01*
X115239500Y-118997001D01*
X115239500Y-118995001D01*
X115238500Y-118992001D01*
X115238500Y-118990001D01*
X115237500Y-118987001D01*
X115237500Y-118985001D01*
X115237500Y-118983001D01*
X115237500Y-118720001D01*
X115237500Y-118717001D01*
X115237500Y-118715001D01*
X115238500Y-118712001D01*
X115238500Y-118710001D01*
X115239500Y-118707001D01*
X115239500Y-118705001D01*
X115240500Y-118702001D01*
X115241500Y-118700001D01*
X115242500Y-118697001D01*
X115244500Y-118695001D01*
X115245500Y-118693001D01*
X115247500Y-118691001D01*
X115248500Y-118689001D01*
X115250500Y-118687001D01*
X115252500Y-118685001D01*
X115254500Y-118683001D01*
X115256500Y-118681001D01*
X115258500Y-118680001D01*
X115260500Y-118678001D01*
X115262500Y-118677001D01*
X115264500Y-118675001D01*
X115267500Y-118674001D01*
X115269500Y-118673001D01*
X115272500Y-118672001D01*
X115274500Y-118672001D01*
X115277500Y-118671001D01*
X115279500Y-118671001D01*
X115282500Y-118670001D01*
X115284500Y-118670001D01*
X115287500Y-118670001D01*
X115752500Y-118670001D01*
X115755500Y-118670001D01*
X115757500Y-118670001D01*
X115760500Y-118671001D01*
G37*
%TO.C,D17*%
X118987500Y-139671000D02*
X118989500Y-139671000D01*
X118992500Y-139672000D01*
X118994500Y-139672000D01*
X118997500Y-139673000D01*
X118999500Y-139674000D01*
X119001500Y-139675000D01*
X119003500Y-139676000D01*
X119005500Y-139678000D01*
X119007500Y-139679000D01*
X119009500Y-139681000D01*
X119011500Y-139682000D01*
X119013500Y-139684000D01*
X119015500Y-139686000D01*
X119016500Y-139688000D01*
X119018500Y-139690000D01*
X119019500Y-139692000D01*
X119021500Y-139694000D01*
X119022500Y-139696000D01*
X119023500Y-139698000D01*
X119024500Y-139700000D01*
X119025500Y-139703000D01*
X119025500Y-139705000D01*
X119026500Y-139708000D01*
X119026500Y-139710000D01*
X119027500Y-139713000D01*
X119027500Y-139715000D01*
X119027500Y-139717000D01*
X119027500Y-139980000D01*
X119027500Y-139983000D01*
X119027500Y-139985000D01*
X119026500Y-139988000D01*
X119026500Y-139990000D01*
X119025500Y-139993000D01*
X119025500Y-139995000D01*
X119024500Y-139998000D01*
X119023500Y-140000000D01*
X119022500Y-140003000D01*
X119020500Y-140005000D01*
X119019500Y-140007000D01*
X119017500Y-140009000D01*
X119016500Y-140011000D01*
X119014500Y-140013000D01*
X119012500Y-140015000D01*
X119010500Y-140017000D01*
X119008500Y-140019000D01*
X119006500Y-140020000D01*
X119004500Y-140022000D01*
X119002500Y-140023000D01*
X119000500Y-140025000D01*
X118997500Y-140026000D01*
X118995500Y-140027000D01*
X118992500Y-140028000D01*
X118990500Y-140028000D01*
X118987500Y-140029000D01*
X118985500Y-140029000D01*
X118982500Y-140030000D01*
X118980500Y-140030000D01*
X118977500Y-140030000D01*
X118512500Y-140030000D01*
X118509500Y-140030000D01*
X118507500Y-140030000D01*
X118504500Y-140029000D01*
X118502500Y-140029000D01*
X118499500Y-140028000D01*
X118497500Y-140028000D01*
X118494500Y-140027000D01*
X118492500Y-140026000D01*
X118489500Y-140025000D01*
X118487500Y-140023000D01*
X118485500Y-140022000D01*
X118483500Y-140020000D01*
X118481500Y-140019000D01*
X118479500Y-140017000D01*
X118477500Y-140015000D01*
X118475500Y-140013000D01*
X118473500Y-140011000D01*
X118472500Y-140009000D01*
X118470500Y-140007000D01*
X118469500Y-140005000D01*
X118467500Y-140003000D01*
X118466500Y-140000000D01*
X118465500Y-139998000D01*
X118464500Y-139995000D01*
X118464500Y-139993000D01*
X118463500Y-139990000D01*
X118463500Y-139988000D01*
X118462500Y-139985000D01*
X118462500Y-139983000D01*
X118462500Y-139980000D01*
X118462500Y-139720000D01*
X118462500Y-139717000D01*
X118462500Y-139715000D01*
X118463500Y-139712000D01*
X118463500Y-139710000D01*
X118464500Y-139707000D01*
X118464500Y-139705000D01*
X118465500Y-139702000D01*
X118466500Y-139700000D01*
X118467500Y-139697000D01*
X118469500Y-139695000D01*
X118470500Y-139693000D01*
X118472500Y-139691000D01*
X118473500Y-139689000D01*
X118475500Y-139687000D01*
X118477500Y-139685000D01*
X118479500Y-139683000D01*
X118481500Y-139681000D01*
X118483500Y-139680000D01*
X118485500Y-139678000D01*
X118487500Y-139677000D01*
X118489500Y-139675000D01*
X118492500Y-139674000D01*
X118494500Y-139673000D01*
X118497500Y-139672000D01*
X118499500Y-139672000D01*
X118502500Y-139671000D01*
X118504500Y-139671000D01*
X118507500Y-139670000D01*
X118509500Y-139670000D01*
X118512500Y-139670000D01*
X118980500Y-139670000D01*
X118982500Y-139670000D01*
X118984500Y-139670000D01*
X118987500Y-139671000D01*
G36*
X118987500Y-139671000D02*
G01*
X118989500Y-139671000D01*
X118992500Y-139672000D01*
X118994500Y-139672000D01*
X118997500Y-139673000D01*
X118999500Y-139674000D01*
X119001500Y-139675000D01*
X119003500Y-139676000D01*
X119005500Y-139678000D01*
X119007500Y-139679000D01*
X119009500Y-139681000D01*
X119011500Y-139682000D01*
X119013500Y-139684000D01*
X119015500Y-139686000D01*
X119016500Y-139688000D01*
X119018500Y-139690000D01*
X119019500Y-139692000D01*
X119021500Y-139694000D01*
X119022500Y-139696000D01*
X119023500Y-139698000D01*
X119024500Y-139700000D01*
X119025500Y-139703000D01*
X119025500Y-139705000D01*
X119026500Y-139708000D01*
X119026500Y-139710000D01*
X119027500Y-139713000D01*
X119027500Y-139715000D01*
X119027500Y-139717000D01*
X119027500Y-139980000D01*
X119027500Y-139983000D01*
X119027500Y-139985000D01*
X119026500Y-139988000D01*
X119026500Y-139990000D01*
X119025500Y-139993000D01*
X119025500Y-139995000D01*
X119024500Y-139998000D01*
X119023500Y-140000000D01*
X119022500Y-140003000D01*
X119020500Y-140005000D01*
X119019500Y-140007000D01*
X119017500Y-140009000D01*
X119016500Y-140011000D01*
X119014500Y-140013000D01*
X119012500Y-140015000D01*
X119010500Y-140017000D01*
X119008500Y-140019000D01*
X119006500Y-140020000D01*
X119004500Y-140022000D01*
X119002500Y-140023000D01*
X119000500Y-140025000D01*
X118997500Y-140026000D01*
X118995500Y-140027000D01*
X118992500Y-140028000D01*
X118990500Y-140028000D01*
X118987500Y-140029000D01*
X118985500Y-140029000D01*
X118982500Y-140030000D01*
X118980500Y-140030000D01*
X118977500Y-140030000D01*
X118512500Y-140030000D01*
X118509500Y-140030000D01*
X118507500Y-140030000D01*
X118504500Y-140029000D01*
X118502500Y-140029000D01*
X118499500Y-140028000D01*
X118497500Y-140028000D01*
X118494500Y-140027000D01*
X118492500Y-140026000D01*
X118489500Y-140025000D01*
X118487500Y-140023000D01*
X118485500Y-140022000D01*
X118483500Y-140020000D01*
X118481500Y-140019000D01*
X118479500Y-140017000D01*
X118477500Y-140015000D01*
X118475500Y-140013000D01*
X118473500Y-140011000D01*
X118472500Y-140009000D01*
X118470500Y-140007000D01*
X118469500Y-140005000D01*
X118467500Y-140003000D01*
X118466500Y-140000000D01*
X118465500Y-139998000D01*
X118464500Y-139995000D01*
X118464500Y-139993000D01*
X118463500Y-139990000D01*
X118463500Y-139988000D01*
X118462500Y-139985000D01*
X118462500Y-139983000D01*
X118462500Y-139980000D01*
X118462500Y-139720000D01*
X118462500Y-139717000D01*
X118462500Y-139715000D01*
X118463500Y-139712000D01*
X118463500Y-139710000D01*
X118464500Y-139707000D01*
X118464500Y-139705000D01*
X118465500Y-139702000D01*
X118466500Y-139700000D01*
X118467500Y-139697000D01*
X118469500Y-139695000D01*
X118470500Y-139693000D01*
X118472500Y-139691000D01*
X118473500Y-139689000D01*
X118475500Y-139687000D01*
X118477500Y-139685000D01*
X118479500Y-139683000D01*
X118481500Y-139681000D01*
X118483500Y-139680000D01*
X118485500Y-139678000D01*
X118487500Y-139677000D01*
X118489500Y-139675000D01*
X118492500Y-139674000D01*
X118494500Y-139673000D01*
X118497500Y-139672000D01*
X118499500Y-139672000D01*
X118502500Y-139671000D01*
X118504500Y-139671000D01*
X118507500Y-139670000D01*
X118509500Y-139670000D01*
X118512500Y-139670000D01*
X118980500Y-139670000D01*
X118982500Y-139670000D01*
X118984500Y-139670000D01*
X118987500Y-139671000D01*
G37*
X119822500Y-139671000D02*
X119824500Y-139671000D01*
X119827500Y-139672000D01*
X119829500Y-139672000D01*
X119832500Y-139673000D01*
X119834500Y-139674000D01*
X119836500Y-139675000D01*
X119838500Y-139676000D01*
X119840500Y-139678000D01*
X119842500Y-139679000D01*
X119844500Y-139681000D01*
X119846500Y-139682000D01*
X119848500Y-139684000D01*
X119850500Y-139686000D01*
X119851500Y-139688000D01*
X119853500Y-139690000D01*
X119854500Y-139692000D01*
X119856500Y-139694000D01*
X119857500Y-139696000D01*
X119858500Y-139698000D01*
X119859500Y-139700000D01*
X119860500Y-139703000D01*
X119860500Y-139705000D01*
X119861500Y-139708000D01*
X119861500Y-139710000D01*
X119862500Y-139713000D01*
X119862500Y-139715000D01*
X119862500Y-139717000D01*
X119862500Y-139980000D01*
X119862500Y-139983000D01*
X119862500Y-139985000D01*
X119861500Y-139988000D01*
X119861500Y-139990000D01*
X119860500Y-139993000D01*
X119860500Y-139995000D01*
X119859500Y-139998000D01*
X119858500Y-140000000D01*
X119857500Y-140003000D01*
X119855500Y-140005000D01*
X119854500Y-140007000D01*
X119852500Y-140009000D01*
X119851500Y-140011000D01*
X119849500Y-140013000D01*
X119847500Y-140015000D01*
X119845500Y-140017000D01*
X119843500Y-140019000D01*
X119841500Y-140020000D01*
X119839500Y-140022000D01*
X119837500Y-140023000D01*
X119835500Y-140025000D01*
X119832500Y-140026000D01*
X119830500Y-140027000D01*
X119827500Y-140028000D01*
X119825500Y-140028000D01*
X119822500Y-140029000D01*
X119820500Y-140029000D01*
X119817500Y-140030000D01*
X119815500Y-140030000D01*
X119812500Y-140030000D01*
X119347500Y-140030000D01*
X119344500Y-140030000D01*
X119342500Y-140030000D01*
X119339500Y-140029000D01*
X119337500Y-140029000D01*
X119334500Y-140028000D01*
X119332500Y-140028000D01*
X119329500Y-140027000D01*
X119327500Y-140026000D01*
X119324500Y-140025000D01*
X119322500Y-140023000D01*
X119320500Y-140022000D01*
X119318500Y-140020000D01*
X119316500Y-140019000D01*
X119314500Y-140017000D01*
X119312500Y-140015000D01*
X119310500Y-140013000D01*
X119308500Y-140011000D01*
X119307500Y-140009000D01*
X119305500Y-140007000D01*
X119304500Y-140005000D01*
X119302500Y-140003000D01*
X119301500Y-140000000D01*
X119300500Y-139998000D01*
X119299500Y-139995000D01*
X119299500Y-139993000D01*
X119298500Y-139990000D01*
X119298500Y-139988000D01*
X119297500Y-139985000D01*
X119297500Y-139983000D01*
X119297500Y-139980000D01*
X119297500Y-139720000D01*
X119297500Y-139717000D01*
X119297500Y-139715000D01*
X119298500Y-139712000D01*
X119298500Y-139710000D01*
X119299500Y-139707000D01*
X119299500Y-139705000D01*
X119300500Y-139702000D01*
X119301500Y-139700000D01*
X119302500Y-139697000D01*
X119304500Y-139695000D01*
X119305500Y-139693000D01*
X119307500Y-139691000D01*
X119308500Y-139689000D01*
X119310500Y-139687000D01*
X119312500Y-139685000D01*
X119314500Y-139683000D01*
X119316500Y-139681000D01*
X119318500Y-139680000D01*
X119320500Y-139678000D01*
X119322500Y-139677000D01*
X119324500Y-139675000D01*
X119327500Y-139674000D01*
X119329500Y-139673000D01*
X119332500Y-139672000D01*
X119334500Y-139672000D01*
X119337500Y-139671000D01*
X119339500Y-139671000D01*
X119342500Y-139670000D01*
X119344500Y-139670000D01*
X119347500Y-139670000D01*
X119814500Y-139670000D01*
X119817500Y-139670000D01*
X119819500Y-139670000D01*
X119822500Y-139671000D01*
G36*
X119822500Y-139671000D02*
G01*
X119824500Y-139671000D01*
X119827500Y-139672000D01*
X119829500Y-139672000D01*
X119832500Y-139673000D01*
X119834500Y-139674000D01*
X119836500Y-139675000D01*
X119838500Y-139676000D01*
X119840500Y-139678000D01*
X119842500Y-139679000D01*
X119844500Y-139681000D01*
X119846500Y-139682000D01*
X119848500Y-139684000D01*
X119850500Y-139686000D01*
X119851500Y-139688000D01*
X119853500Y-139690000D01*
X119854500Y-139692000D01*
X119856500Y-139694000D01*
X119857500Y-139696000D01*
X119858500Y-139698000D01*
X119859500Y-139700000D01*
X119860500Y-139703000D01*
X119860500Y-139705000D01*
X119861500Y-139708000D01*
X119861500Y-139710000D01*
X119862500Y-139713000D01*
X119862500Y-139715000D01*
X119862500Y-139717000D01*
X119862500Y-139980000D01*
X119862500Y-139983000D01*
X119862500Y-139985000D01*
X119861500Y-139988000D01*
X119861500Y-139990000D01*
X119860500Y-139993000D01*
X119860500Y-139995000D01*
X119859500Y-139998000D01*
X119858500Y-140000000D01*
X119857500Y-140003000D01*
X119855500Y-140005000D01*
X119854500Y-140007000D01*
X119852500Y-140009000D01*
X119851500Y-140011000D01*
X119849500Y-140013000D01*
X119847500Y-140015000D01*
X119845500Y-140017000D01*
X119843500Y-140019000D01*
X119841500Y-140020000D01*
X119839500Y-140022000D01*
X119837500Y-140023000D01*
X119835500Y-140025000D01*
X119832500Y-140026000D01*
X119830500Y-140027000D01*
X119827500Y-140028000D01*
X119825500Y-140028000D01*
X119822500Y-140029000D01*
X119820500Y-140029000D01*
X119817500Y-140030000D01*
X119815500Y-140030000D01*
X119812500Y-140030000D01*
X119347500Y-140030000D01*
X119344500Y-140030000D01*
X119342500Y-140030000D01*
X119339500Y-140029000D01*
X119337500Y-140029000D01*
X119334500Y-140028000D01*
X119332500Y-140028000D01*
X119329500Y-140027000D01*
X119327500Y-140026000D01*
X119324500Y-140025000D01*
X119322500Y-140023000D01*
X119320500Y-140022000D01*
X119318500Y-140020000D01*
X119316500Y-140019000D01*
X119314500Y-140017000D01*
X119312500Y-140015000D01*
X119310500Y-140013000D01*
X119308500Y-140011000D01*
X119307500Y-140009000D01*
X119305500Y-140007000D01*
X119304500Y-140005000D01*
X119302500Y-140003000D01*
X119301500Y-140000000D01*
X119300500Y-139998000D01*
X119299500Y-139995000D01*
X119299500Y-139993000D01*
X119298500Y-139990000D01*
X119298500Y-139988000D01*
X119297500Y-139985000D01*
X119297500Y-139983000D01*
X119297500Y-139980000D01*
X119297500Y-139720000D01*
X119297500Y-139717000D01*
X119297500Y-139715000D01*
X119298500Y-139712000D01*
X119298500Y-139710000D01*
X119299500Y-139707000D01*
X119299500Y-139705000D01*
X119300500Y-139702000D01*
X119301500Y-139700000D01*
X119302500Y-139697000D01*
X119304500Y-139695000D01*
X119305500Y-139693000D01*
X119307500Y-139691000D01*
X119308500Y-139689000D01*
X119310500Y-139687000D01*
X119312500Y-139685000D01*
X119314500Y-139683000D01*
X119316500Y-139681000D01*
X119318500Y-139680000D01*
X119320500Y-139678000D01*
X119322500Y-139677000D01*
X119324500Y-139675000D01*
X119327500Y-139674000D01*
X119329500Y-139673000D01*
X119332500Y-139672000D01*
X119334500Y-139672000D01*
X119337500Y-139671000D01*
X119339500Y-139671000D01*
X119342500Y-139670000D01*
X119344500Y-139670000D01*
X119347500Y-139670000D01*
X119814500Y-139670000D01*
X119817500Y-139670000D01*
X119819500Y-139670000D01*
X119822500Y-139671000D01*
G37*
%TO.C,D19*%
X114532500Y-112671001D02*
X114534500Y-112671001D01*
X114537500Y-112672001D01*
X114539500Y-112672001D01*
X114542500Y-112673001D01*
X114544500Y-112674001D01*
X114546500Y-112675001D01*
X114548500Y-112676001D01*
X114550500Y-112678001D01*
X114552500Y-112679001D01*
X114554500Y-112681001D01*
X114556500Y-112682001D01*
X114558500Y-112684001D01*
X114560500Y-112686001D01*
X114561500Y-112688001D01*
X114563500Y-112690001D01*
X114564500Y-112692001D01*
X114566500Y-112694001D01*
X114567500Y-112696001D01*
X114568500Y-112698001D01*
X114569500Y-112700001D01*
X114570500Y-112703001D01*
X114570500Y-112705001D01*
X114571500Y-112708001D01*
X114571500Y-112710001D01*
X114572500Y-112713001D01*
X114572500Y-112715001D01*
X114572500Y-112717001D01*
X114572500Y-112980001D01*
X114572500Y-112983001D01*
X114572500Y-112985001D01*
X114571500Y-112988001D01*
X114571500Y-112990001D01*
X114570500Y-112993001D01*
X114570500Y-112995001D01*
X114569500Y-112998001D01*
X114568500Y-113000001D01*
X114567500Y-113003001D01*
X114565500Y-113005001D01*
X114564500Y-113007001D01*
X114562500Y-113009001D01*
X114561500Y-113011001D01*
X114559500Y-113013001D01*
X114557500Y-113015001D01*
X114555500Y-113017001D01*
X114553500Y-113019001D01*
X114551500Y-113020001D01*
X114549500Y-113022001D01*
X114547500Y-113023001D01*
X114545500Y-113025001D01*
X114542500Y-113026001D01*
X114540500Y-113027001D01*
X114537500Y-113028001D01*
X114535500Y-113028001D01*
X114532500Y-113029001D01*
X114530500Y-113029001D01*
X114527500Y-113030001D01*
X114525500Y-113030001D01*
X114522500Y-113030001D01*
X114057500Y-113030001D01*
X114054500Y-113030001D01*
X114052500Y-113030001D01*
X114049500Y-113029001D01*
X114047500Y-113029001D01*
X114044500Y-113028001D01*
X114042500Y-113028001D01*
X114039500Y-113027001D01*
X114037500Y-113026001D01*
X114034500Y-113025001D01*
X114032500Y-113023001D01*
X114030500Y-113022001D01*
X114028500Y-113020001D01*
X114026500Y-113019001D01*
X114024500Y-113017001D01*
X114022500Y-113015001D01*
X114020500Y-113013001D01*
X114018500Y-113011001D01*
X114017500Y-113009001D01*
X114015500Y-113007001D01*
X114014500Y-113005001D01*
X114012500Y-113003001D01*
X114011500Y-113000001D01*
X114010500Y-112998001D01*
X114009500Y-112995001D01*
X114009500Y-112993001D01*
X114008500Y-112990001D01*
X114008500Y-112988001D01*
X114007500Y-112985001D01*
X114007500Y-112983001D01*
X114007500Y-112980001D01*
X114007500Y-112720001D01*
X114007500Y-112717001D01*
X114007500Y-112715001D01*
X114008500Y-112712001D01*
X114008500Y-112710001D01*
X114009500Y-112707001D01*
X114009500Y-112705001D01*
X114010500Y-112702001D01*
X114011500Y-112700001D01*
X114012500Y-112697001D01*
X114014500Y-112695001D01*
X114015500Y-112693001D01*
X114017500Y-112691001D01*
X114018500Y-112689001D01*
X114020500Y-112687001D01*
X114022500Y-112685001D01*
X114024500Y-112683001D01*
X114026500Y-112681001D01*
X114028500Y-112680001D01*
X114030500Y-112678001D01*
X114032500Y-112677001D01*
X114034500Y-112675001D01*
X114037500Y-112674001D01*
X114039500Y-112673001D01*
X114042500Y-112672001D01*
X114044500Y-112672001D01*
X114047500Y-112671001D01*
X114049500Y-112671001D01*
X114052500Y-112670001D01*
X114054500Y-112670001D01*
X114057500Y-112670001D01*
X114525500Y-112670001D01*
X114527500Y-112670001D01*
X114529500Y-112670001D01*
X114532500Y-112671001D01*
G36*
X114532500Y-112671001D02*
G01*
X114534500Y-112671001D01*
X114537500Y-112672001D01*
X114539500Y-112672001D01*
X114542500Y-112673001D01*
X114544500Y-112674001D01*
X114546500Y-112675001D01*
X114548500Y-112676001D01*
X114550500Y-112678001D01*
X114552500Y-112679001D01*
X114554500Y-112681001D01*
X114556500Y-112682001D01*
X114558500Y-112684001D01*
X114560500Y-112686001D01*
X114561500Y-112688001D01*
X114563500Y-112690001D01*
X114564500Y-112692001D01*
X114566500Y-112694001D01*
X114567500Y-112696001D01*
X114568500Y-112698001D01*
X114569500Y-112700001D01*
X114570500Y-112703001D01*
X114570500Y-112705001D01*
X114571500Y-112708001D01*
X114571500Y-112710001D01*
X114572500Y-112713001D01*
X114572500Y-112715001D01*
X114572500Y-112717001D01*
X114572500Y-112980001D01*
X114572500Y-112983001D01*
X114572500Y-112985001D01*
X114571500Y-112988001D01*
X114571500Y-112990001D01*
X114570500Y-112993001D01*
X114570500Y-112995001D01*
X114569500Y-112998001D01*
X114568500Y-113000001D01*
X114567500Y-113003001D01*
X114565500Y-113005001D01*
X114564500Y-113007001D01*
X114562500Y-113009001D01*
X114561500Y-113011001D01*
X114559500Y-113013001D01*
X114557500Y-113015001D01*
X114555500Y-113017001D01*
X114553500Y-113019001D01*
X114551500Y-113020001D01*
X114549500Y-113022001D01*
X114547500Y-113023001D01*
X114545500Y-113025001D01*
X114542500Y-113026001D01*
X114540500Y-113027001D01*
X114537500Y-113028001D01*
X114535500Y-113028001D01*
X114532500Y-113029001D01*
X114530500Y-113029001D01*
X114527500Y-113030001D01*
X114525500Y-113030001D01*
X114522500Y-113030001D01*
X114057500Y-113030001D01*
X114054500Y-113030001D01*
X114052500Y-113030001D01*
X114049500Y-113029001D01*
X114047500Y-113029001D01*
X114044500Y-113028001D01*
X114042500Y-113028001D01*
X114039500Y-113027001D01*
X114037500Y-113026001D01*
X114034500Y-113025001D01*
X114032500Y-113023001D01*
X114030500Y-113022001D01*
X114028500Y-113020001D01*
X114026500Y-113019001D01*
X114024500Y-113017001D01*
X114022500Y-113015001D01*
X114020500Y-113013001D01*
X114018500Y-113011001D01*
X114017500Y-113009001D01*
X114015500Y-113007001D01*
X114014500Y-113005001D01*
X114012500Y-113003001D01*
X114011500Y-113000001D01*
X114010500Y-112998001D01*
X114009500Y-112995001D01*
X114009500Y-112993001D01*
X114008500Y-112990001D01*
X114008500Y-112988001D01*
X114007500Y-112985001D01*
X114007500Y-112983001D01*
X114007500Y-112980001D01*
X114007500Y-112720001D01*
X114007500Y-112717001D01*
X114007500Y-112715001D01*
X114008500Y-112712001D01*
X114008500Y-112710001D01*
X114009500Y-112707001D01*
X114009500Y-112705001D01*
X114010500Y-112702001D01*
X114011500Y-112700001D01*
X114012500Y-112697001D01*
X114014500Y-112695001D01*
X114015500Y-112693001D01*
X114017500Y-112691001D01*
X114018500Y-112689001D01*
X114020500Y-112687001D01*
X114022500Y-112685001D01*
X114024500Y-112683001D01*
X114026500Y-112681001D01*
X114028500Y-112680001D01*
X114030500Y-112678001D01*
X114032500Y-112677001D01*
X114034500Y-112675001D01*
X114037500Y-112674001D01*
X114039500Y-112673001D01*
X114042500Y-112672001D01*
X114044500Y-112672001D01*
X114047500Y-112671001D01*
X114049500Y-112671001D01*
X114052500Y-112670001D01*
X114054500Y-112670001D01*
X114057500Y-112670001D01*
X114525500Y-112670001D01*
X114527500Y-112670001D01*
X114529500Y-112670001D01*
X114532500Y-112671001D01*
G37*
X115367500Y-112671001D02*
X115369500Y-112671001D01*
X115372500Y-112672001D01*
X115374500Y-112672001D01*
X115377500Y-112673001D01*
X115379500Y-112674001D01*
X115381500Y-112675001D01*
X115383500Y-112676001D01*
X115385500Y-112678001D01*
X115387500Y-112679001D01*
X115389500Y-112681001D01*
X115391500Y-112682001D01*
X115393500Y-112684001D01*
X115395500Y-112686001D01*
X115396500Y-112688001D01*
X115398500Y-112690001D01*
X115399500Y-112692001D01*
X115401500Y-112694001D01*
X115402500Y-112696001D01*
X115403500Y-112698001D01*
X115404500Y-112700001D01*
X115405500Y-112703001D01*
X115405500Y-112705001D01*
X115406500Y-112708001D01*
X115406500Y-112710001D01*
X115407500Y-112713001D01*
X115407500Y-112715001D01*
X115407500Y-112717001D01*
X115407500Y-112980001D01*
X115407500Y-112983001D01*
X115407500Y-112985001D01*
X115406500Y-112988001D01*
X115406500Y-112990001D01*
X115405500Y-112993001D01*
X115405500Y-112995001D01*
X115404500Y-112998001D01*
X115403500Y-113000001D01*
X115402500Y-113003001D01*
X115400500Y-113005001D01*
X115399500Y-113007001D01*
X115397500Y-113009001D01*
X115396500Y-113011001D01*
X115394500Y-113013001D01*
X115392500Y-113015001D01*
X115390500Y-113017001D01*
X115388500Y-113019001D01*
X115386500Y-113020001D01*
X115384500Y-113022001D01*
X115382500Y-113023001D01*
X115380500Y-113025001D01*
X115377500Y-113026001D01*
X115375500Y-113027001D01*
X115372500Y-113028001D01*
X115370500Y-113028001D01*
X115367500Y-113029001D01*
X115365500Y-113029001D01*
X115362500Y-113030001D01*
X115360500Y-113030001D01*
X115357500Y-113030001D01*
X114892500Y-113030001D01*
X114889500Y-113030001D01*
X114887500Y-113030001D01*
X114884500Y-113029001D01*
X114882500Y-113029001D01*
X114879500Y-113028001D01*
X114877500Y-113028001D01*
X114874500Y-113027001D01*
X114872500Y-113026001D01*
X114869500Y-113025001D01*
X114867500Y-113023001D01*
X114865500Y-113022001D01*
X114863500Y-113020001D01*
X114861500Y-113019001D01*
X114859500Y-113017001D01*
X114857500Y-113015001D01*
X114855500Y-113013001D01*
X114853500Y-113011001D01*
X114852500Y-113009001D01*
X114850500Y-113007001D01*
X114849500Y-113005001D01*
X114847500Y-113003001D01*
X114846500Y-113000001D01*
X114845500Y-112998001D01*
X114844500Y-112995001D01*
X114844500Y-112993001D01*
X114843500Y-112990001D01*
X114843500Y-112988001D01*
X114842500Y-112985001D01*
X114842500Y-112983001D01*
X114842500Y-112980001D01*
X114842500Y-112720001D01*
X114842500Y-112717001D01*
X114842500Y-112715001D01*
X114843500Y-112712001D01*
X114843500Y-112710001D01*
X114844500Y-112707001D01*
X114844500Y-112705001D01*
X114845500Y-112702001D01*
X114846500Y-112700001D01*
X114847500Y-112697001D01*
X114849500Y-112695001D01*
X114850500Y-112693001D01*
X114852500Y-112691001D01*
X114853500Y-112689001D01*
X114855500Y-112687001D01*
X114857500Y-112685001D01*
X114859500Y-112683001D01*
X114861500Y-112681001D01*
X114863500Y-112680001D01*
X114865500Y-112678001D01*
X114867500Y-112677001D01*
X114869500Y-112675001D01*
X114872500Y-112674001D01*
X114874500Y-112673001D01*
X114877500Y-112672001D01*
X114879500Y-112672001D01*
X114882500Y-112671001D01*
X114884500Y-112671001D01*
X114887500Y-112670001D01*
X114889500Y-112670001D01*
X114892500Y-112670001D01*
X115359500Y-112670001D01*
X115362500Y-112670001D01*
X115364500Y-112670001D01*
X115367500Y-112671001D01*
G36*
X115367500Y-112671001D02*
G01*
X115369500Y-112671001D01*
X115372500Y-112672001D01*
X115374500Y-112672001D01*
X115377500Y-112673001D01*
X115379500Y-112674001D01*
X115381500Y-112675001D01*
X115383500Y-112676001D01*
X115385500Y-112678001D01*
X115387500Y-112679001D01*
X115389500Y-112681001D01*
X115391500Y-112682001D01*
X115393500Y-112684001D01*
X115395500Y-112686001D01*
X115396500Y-112688001D01*
X115398500Y-112690001D01*
X115399500Y-112692001D01*
X115401500Y-112694001D01*
X115402500Y-112696001D01*
X115403500Y-112698001D01*
X115404500Y-112700001D01*
X115405500Y-112703001D01*
X115405500Y-112705001D01*
X115406500Y-112708001D01*
X115406500Y-112710001D01*
X115407500Y-112713001D01*
X115407500Y-112715001D01*
X115407500Y-112717001D01*
X115407500Y-112980001D01*
X115407500Y-112983001D01*
X115407500Y-112985001D01*
X115406500Y-112988001D01*
X115406500Y-112990001D01*
X115405500Y-112993001D01*
X115405500Y-112995001D01*
X115404500Y-112998001D01*
X115403500Y-113000001D01*
X115402500Y-113003001D01*
X115400500Y-113005001D01*
X115399500Y-113007001D01*
X115397500Y-113009001D01*
X115396500Y-113011001D01*
X115394500Y-113013001D01*
X115392500Y-113015001D01*
X115390500Y-113017001D01*
X115388500Y-113019001D01*
X115386500Y-113020001D01*
X115384500Y-113022001D01*
X115382500Y-113023001D01*
X115380500Y-113025001D01*
X115377500Y-113026001D01*
X115375500Y-113027001D01*
X115372500Y-113028001D01*
X115370500Y-113028001D01*
X115367500Y-113029001D01*
X115365500Y-113029001D01*
X115362500Y-113030001D01*
X115360500Y-113030001D01*
X115357500Y-113030001D01*
X114892500Y-113030001D01*
X114889500Y-113030001D01*
X114887500Y-113030001D01*
X114884500Y-113029001D01*
X114882500Y-113029001D01*
X114879500Y-113028001D01*
X114877500Y-113028001D01*
X114874500Y-113027001D01*
X114872500Y-113026001D01*
X114869500Y-113025001D01*
X114867500Y-113023001D01*
X114865500Y-113022001D01*
X114863500Y-113020001D01*
X114861500Y-113019001D01*
X114859500Y-113017001D01*
X114857500Y-113015001D01*
X114855500Y-113013001D01*
X114853500Y-113011001D01*
X114852500Y-113009001D01*
X114850500Y-113007001D01*
X114849500Y-113005001D01*
X114847500Y-113003001D01*
X114846500Y-113000001D01*
X114845500Y-112998001D01*
X114844500Y-112995001D01*
X114844500Y-112993001D01*
X114843500Y-112990001D01*
X114843500Y-112988001D01*
X114842500Y-112985001D01*
X114842500Y-112983001D01*
X114842500Y-112980001D01*
X114842500Y-112720001D01*
X114842500Y-112717001D01*
X114842500Y-112715001D01*
X114843500Y-112712001D01*
X114843500Y-112710001D01*
X114844500Y-112707001D01*
X114844500Y-112705001D01*
X114845500Y-112702001D01*
X114846500Y-112700001D01*
X114847500Y-112697001D01*
X114849500Y-112695001D01*
X114850500Y-112693001D01*
X114852500Y-112691001D01*
X114853500Y-112689001D01*
X114855500Y-112687001D01*
X114857500Y-112685001D01*
X114859500Y-112683001D01*
X114861500Y-112681001D01*
X114863500Y-112680001D01*
X114865500Y-112678001D01*
X114867500Y-112677001D01*
X114869500Y-112675001D01*
X114872500Y-112674001D01*
X114874500Y-112673001D01*
X114877500Y-112672001D01*
X114879500Y-112672001D01*
X114882500Y-112671001D01*
X114884500Y-112671001D01*
X114887500Y-112670001D01*
X114889500Y-112670001D01*
X114892500Y-112670001D01*
X115359500Y-112670001D01*
X115362500Y-112670001D01*
X115364500Y-112670001D01*
X115367500Y-112671001D01*
G37*
%TO.C,D10*%
X118987500Y-133571000D02*
X118989500Y-133571000D01*
X118992500Y-133572000D01*
X118994500Y-133572000D01*
X118997500Y-133573000D01*
X118999500Y-133574000D01*
X119001500Y-133575000D01*
X119003500Y-133576000D01*
X119005500Y-133578000D01*
X119007500Y-133579000D01*
X119009500Y-133581000D01*
X119011500Y-133582000D01*
X119013500Y-133584000D01*
X119015500Y-133586000D01*
X119016500Y-133588000D01*
X119018500Y-133590000D01*
X119019500Y-133592000D01*
X119021500Y-133594000D01*
X119022500Y-133596000D01*
X119023500Y-133598000D01*
X119024500Y-133600000D01*
X119025500Y-133603000D01*
X119025500Y-133605000D01*
X119026500Y-133608000D01*
X119026500Y-133610000D01*
X119027500Y-133613000D01*
X119027500Y-133615000D01*
X119027500Y-133617000D01*
X119027500Y-133880000D01*
X119027500Y-133883000D01*
X119027500Y-133885000D01*
X119026500Y-133888000D01*
X119026500Y-133890000D01*
X119025500Y-133893000D01*
X119025500Y-133895000D01*
X119024500Y-133898000D01*
X119023500Y-133900000D01*
X119022500Y-133903000D01*
X119020500Y-133905000D01*
X119019500Y-133907000D01*
X119017500Y-133909000D01*
X119016500Y-133911000D01*
X119014500Y-133913000D01*
X119012500Y-133915000D01*
X119010500Y-133917000D01*
X119008500Y-133919000D01*
X119006500Y-133920000D01*
X119004500Y-133922000D01*
X119002500Y-133923000D01*
X119000500Y-133925000D01*
X118997500Y-133926000D01*
X118995500Y-133927000D01*
X118992500Y-133928000D01*
X118990500Y-133928000D01*
X118987500Y-133929000D01*
X118985500Y-133929000D01*
X118982500Y-133930000D01*
X118980500Y-133930000D01*
X118977500Y-133930000D01*
X118512500Y-133930000D01*
X118509500Y-133930000D01*
X118507500Y-133930000D01*
X118504500Y-133929000D01*
X118502500Y-133929000D01*
X118499500Y-133928000D01*
X118497500Y-133928000D01*
X118494500Y-133927000D01*
X118492500Y-133926000D01*
X118489500Y-133925000D01*
X118487500Y-133923000D01*
X118485500Y-133922000D01*
X118483500Y-133920000D01*
X118481500Y-133919000D01*
X118479500Y-133917000D01*
X118477500Y-133915000D01*
X118475500Y-133913000D01*
X118473500Y-133911000D01*
X118472500Y-133909000D01*
X118470500Y-133907000D01*
X118469500Y-133905000D01*
X118467500Y-133903000D01*
X118466500Y-133900000D01*
X118465500Y-133898000D01*
X118464500Y-133895000D01*
X118464500Y-133893000D01*
X118463500Y-133890000D01*
X118463500Y-133888000D01*
X118462500Y-133885000D01*
X118462500Y-133883000D01*
X118462500Y-133880000D01*
X118462500Y-133620000D01*
X118462500Y-133617000D01*
X118462500Y-133615000D01*
X118463500Y-133612000D01*
X118463500Y-133610000D01*
X118464500Y-133607000D01*
X118464500Y-133605000D01*
X118465500Y-133602000D01*
X118466500Y-133600000D01*
X118467500Y-133597000D01*
X118469500Y-133595000D01*
X118470500Y-133593000D01*
X118472500Y-133591000D01*
X118473500Y-133589000D01*
X118475500Y-133587000D01*
X118477500Y-133585000D01*
X118479500Y-133583000D01*
X118481500Y-133581000D01*
X118483500Y-133580000D01*
X118485500Y-133578000D01*
X118487500Y-133577000D01*
X118489500Y-133575000D01*
X118492500Y-133574000D01*
X118494500Y-133573000D01*
X118497500Y-133572000D01*
X118499500Y-133572000D01*
X118502500Y-133571000D01*
X118504500Y-133571000D01*
X118507500Y-133570000D01*
X118509500Y-133570000D01*
X118512500Y-133570000D01*
X118980500Y-133570000D01*
X118982500Y-133570000D01*
X118984500Y-133570000D01*
X118987500Y-133571000D01*
G36*
X118987500Y-133571000D02*
G01*
X118989500Y-133571000D01*
X118992500Y-133572000D01*
X118994500Y-133572000D01*
X118997500Y-133573000D01*
X118999500Y-133574000D01*
X119001500Y-133575000D01*
X119003500Y-133576000D01*
X119005500Y-133578000D01*
X119007500Y-133579000D01*
X119009500Y-133581000D01*
X119011500Y-133582000D01*
X119013500Y-133584000D01*
X119015500Y-133586000D01*
X119016500Y-133588000D01*
X119018500Y-133590000D01*
X119019500Y-133592000D01*
X119021500Y-133594000D01*
X119022500Y-133596000D01*
X119023500Y-133598000D01*
X119024500Y-133600000D01*
X119025500Y-133603000D01*
X119025500Y-133605000D01*
X119026500Y-133608000D01*
X119026500Y-133610000D01*
X119027500Y-133613000D01*
X119027500Y-133615000D01*
X119027500Y-133617000D01*
X119027500Y-133880000D01*
X119027500Y-133883000D01*
X119027500Y-133885000D01*
X119026500Y-133888000D01*
X119026500Y-133890000D01*
X119025500Y-133893000D01*
X119025500Y-133895000D01*
X119024500Y-133898000D01*
X119023500Y-133900000D01*
X119022500Y-133903000D01*
X119020500Y-133905000D01*
X119019500Y-133907000D01*
X119017500Y-133909000D01*
X119016500Y-133911000D01*
X119014500Y-133913000D01*
X119012500Y-133915000D01*
X119010500Y-133917000D01*
X119008500Y-133919000D01*
X119006500Y-133920000D01*
X119004500Y-133922000D01*
X119002500Y-133923000D01*
X119000500Y-133925000D01*
X118997500Y-133926000D01*
X118995500Y-133927000D01*
X118992500Y-133928000D01*
X118990500Y-133928000D01*
X118987500Y-133929000D01*
X118985500Y-133929000D01*
X118982500Y-133930000D01*
X118980500Y-133930000D01*
X118977500Y-133930000D01*
X118512500Y-133930000D01*
X118509500Y-133930000D01*
X118507500Y-133930000D01*
X118504500Y-133929000D01*
X118502500Y-133929000D01*
X118499500Y-133928000D01*
X118497500Y-133928000D01*
X118494500Y-133927000D01*
X118492500Y-133926000D01*
X118489500Y-133925000D01*
X118487500Y-133923000D01*
X118485500Y-133922000D01*
X118483500Y-133920000D01*
X118481500Y-133919000D01*
X118479500Y-133917000D01*
X118477500Y-133915000D01*
X118475500Y-133913000D01*
X118473500Y-133911000D01*
X118472500Y-133909000D01*
X118470500Y-133907000D01*
X118469500Y-133905000D01*
X118467500Y-133903000D01*
X118466500Y-133900000D01*
X118465500Y-133898000D01*
X118464500Y-133895000D01*
X118464500Y-133893000D01*
X118463500Y-133890000D01*
X118463500Y-133888000D01*
X118462500Y-133885000D01*
X118462500Y-133883000D01*
X118462500Y-133880000D01*
X118462500Y-133620000D01*
X118462500Y-133617000D01*
X118462500Y-133615000D01*
X118463500Y-133612000D01*
X118463500Y-133610000D01*
X118464500Y-133607000D01*
X118464500Y-133605000D01*
X118465500Y-133602000D01*
X118466500Y-133600000D01*
X118467500Y-133597000D01*
X118469500Y-133595000D01*
X118470500Y-133593000D01*
X118472500Y-133591000D01*
X118473500Y-133589000D01*
X118475500Y-133587000D01*
X118477500Y-133585000D01*
X118479500Y-133583000D01*
X118481500Y-133581000D01*
X118483500Y-133580000D01*
X118485500Y-133578000D01*
X118487500Y-133577000D01*
X118489500Y-133575000D01*
X118492500Y-133574000D01*
X118494500Y-133573000D01*
X118497500Y-133572000D01*
X118499500Y-133572000D01*
X118502500Y-133571000D01*
X118504500Y-133571000D01*
X118507500Y-133570000D01*
X118509500Y-133570000D01*
X118512500Y-133570000D01*
X118980500Y-133570000D01*
X118982500Y-133570000D01*
X118984500Y-133570000D01*
X118987500Y-133571000D01*
G37*
X119822500Y-133571000D02*
X119824500Y-133571000D01*
X119827500Y-133572000D01*
X119829500Y-133572000D01*
X119832500Y-133573000D01*
X119834500Y-133574000D01*
X119836500Y-133575000D01*
X119838500Y-133576000D01*
X119840500Y-133578000D01*
X119842500Y-133579000D01*
X119844500Y-133581000D01*
X119846500Y-133582000D01*
X119848500Y-133584000D01*
X119850500Y-133586000D01*
X119851500Y-133588000D01*
X119853500Y-133590000D01*
X119854500Y-133592000D01*
X119856500Y-133594000D01*
X119857500Y-133596000D01*
X119858500Y-133598000D01*
X119859500Y-133600000D01*
X119860500Y-133603000D01*
X119860500Y-133605000D01*
X119861500Y-133608000D01*
X119861500Y-133610000D01*
X119862500Y-133613000D01*
X119862500Y-133615000D01*
X119862500Y-133617000D01*
X119862500Y-133880000D01*
X119862500Y-133883000D01*
X119862500Y-133885000D01*
X119861500Y-133888000D01*
X119861500Y-133890000D01*
X119860500Y-133893000D01*
X119860500Y-133895000D01*
X119859500Y-133898000D01*
X119858500Y-133900000D01*
X119857500Y-133903000D01*
X119855500Y-133905000D01*
X119854500Y-133907000D01*
X119852500Y-133909000D01*
X119851500Y-133911000D01*
X119849500Y-133913000D01*
X119847500Y-133915000D01*
X119845500Y-133917000D01*
X119843500Y-133919000D01*
X119841500Y-133920000D01*
X119839500Y-133922000D01*
X119837500Y-133923000D01*
X119835500Y-133925000D01*
X119832500Y-133926000D01*
X119830500Y-133927000D01*
X119827500Y-133928000D01*
X119825500Y-133928000D01*
X119822500Y-133929000D01*
X119820500Y-133929000D01*
X119817500Y-133930000D01*
X119815500Y-133930000D01*
X119812500Y-133930000D01*
X119347500Y-133930000D01*
X119344500Y-133930000D01*
X119342500Y-133930000D01*
X119339500Y-133929000D01*
X119337500Y-133929000D01*
X119334500Y-133928000D01*
X119332500Y-133928000D01*
X119329500Y-133927000D01*
X119327500Y-133926000D01*
X119324500Y-133925000D01*
X119322500Y-133923000D01*
X119320500Y-133922000D01*
X119318500Y-133920000D01*
X119316500Y-133919000D01*
X119314500Y-133917000D01*
X119312500Y-133915000D01*
X119310500Y-133913000D01*
X119308500Y-133911000D01*
X119307500Y-133909000D01*
X119305500Y-133907000D01*
X119304500Y-133905000D01*
X119302500Y-133903000D01*
X119301500Y-133900000D01*
X119300500Y-133898000D01*
X119299500Y-133895000D01*
X119299500Y-133893000D01*
X119298500Y-133890000D01*
X119298500Y-133888000D01*
X119297500Y-133885000D01*
X119297500Y-133883000D01*
X119297500Y-133880000D01*
X119297500Y-133620000D01*
X119297500Y-133617000D01*
X119297500Y-133615000D01*
X119298500Y-133612000D01*
X119298500Y-133610000D01*
X119299500Y-133607000D01*
X119299500Y-133605000D01*
X119300500Y-133602000D01*
X119301500Y-133600000D01*
X119302500Y-133597000D01*
X119304500Y-133595000D01*
X119305500Y-133593000D01*
X119307500Y-133591000D01*
X119308500Y-133589000D01*
X119310500Y-133587000D01*
X119312500Y-133585000D01*
X119314500Y-133583000D01*
X119316500Y-133581000D01*
X119318500Y-133580000D01*
X119320500Y-133578000D01*
X119322500Y-133577000D01*
X119324500Y-133575000D01*
X119327500Y-133574000D01*
X119329500Y-133573000D01*
X119332500Y-133572000D01*
X119334500Y-133572000D01*
X119337500Y-133571000D01*
X119339500Y-133571000D01*
X119342500Y-133570000D01*
X119344500Y-133570000D01*
X119347500Y-133570000D01*
X119814500Y-133570000D01*
X119817500Y-133570000D01*
X119819500Y-133570000D01*
X119822500Y-133571000D01*
G36*
X119822500Y-133571000D02*
G01*
X119824500Y-133571000D01*
X119827500Y-133572000D01*
X119829500Y-133572000D01*
X119832500Y-133573000D01*
X119834500Y-133574000D01*
X119836500Y-133575000D01*
X119838500Y-133576000D01*
X119840500Y-133578000D01*
X119842500Y-133579000D01*
X119844500Y-133581000D01*
X119846500Y-133582000D01*
X119848500Y-133584000D01*
X119850500Y-133586000D01*
X119851500Y-133588000D01*
X119853500Y-133590000D01*
X119854500Y-133592000D01*
X119856500Y-133594000D01*
X119857500Y-133596000D01*
X119858500Y-133598000D01*
X119859500Y-133600000D01*
X119860500Y-133603000D01*
X119860500Y-133605000D01*
X119861500Y-133608000D01*
X119861500Y-133610000D01*
X119862500Y-133613000D01*
X119862500Y-133615000D01*
X119862500Y-133617000D01*
X119862500Y-133880000D01*
X119862500Y-133883000D01*
X119862500Y-133885000D01*
X119861500Y-133888000D01*
X119861500Y-133890000D01*
X119860500Y-133893000D01*
X119860500Y-133895000D01*
X119859500Y-133898000D01*
X119858500Y-133900000D01*
X119857500Y-133903000D01*
X119855500Y-133905000D01*
X119854500Y-133907000D01*
X119852500Y-133909000D01*
X119851500Y-133911000D01*
X119849500Y-133913000D01*
X119847500Y-133915000D01*
X119845500Y-133917000D01*
X119843500Y-133919000D01*
X119841500Y-133920000D01*
X119839500Y-133922000D01*
X119837500Y-133923000D01*
X119835500Y-133925000D01*
X119832500Y-133926000D01*
X119830500Y-133927000D01*
X119827500Y-133928000D01*
X119825500Y-133928000D01*
X119822500Y-133929000D01*
X119820500Y-133929000D01*
X119817500Y-133930000D01*
X119815500Y-133930000D01*
X119812500Y-133930000D01*
X119347500Y-133930000D01*
X119344500Y-133930000D01*
X119342500Y-133930000D01*
X119339500Y-133929000D01*
X119337500Y-133929000D01*
X119334500Y-133928000D01*
X119332500Y-133928000D01*
X119329500Y-133927000D01*
X119327500Y-133926000D01*
X119324500Y-133925000D01*
X119322500Y-133923000D01*
X119320500Y-133922000D01*
X119318500Y-133920000D01*
X119316500Y-133919000D01*
X119314500Y-133917000D01*
X119312500Y-133915000D01*
X119310500Y-133913000D01*
X119308500Y-133911000D01*
X119307500Y-133909000D01*
X119305500Y-133907000D01*
X119304500Y-133905000D01*
X119302500Y-133903000D01*
X119301500Y-133900000D01*
X119300500Y-133898000D01*
X119299500Y-133895000D01*
X119299500Y-133893000D01*
X119298500Y-133890000D01*
X119298500Y-133888000D01*
X119297500Y-133885000D01*
X119297500Y-133883000D01*
X119297500Y-133880000D01*
X119297500Y-133620000D01*
X119297500Y-133617000D01*
X119297500Y-133615000D01*
X119298500Y-133612000D01*
X119298500Y-133610000D01*
X119299500Y-133607000D01*
X119299500Y-133605000D01*
X119300500Y-133602000D01*
X119301500Y-133600000D01*
X119302500Y-133597000D01*
X119304500Y-133595000D01*
X119305500Y-133593000D01*
X119307500Y-133591000D01*
X119308500Y-133589000D01*
X119310500Y-133587000D01*
X119312500Y-133585000D01*
X119314500Y-133583000D01*
X119316500Y-133581000D01*
X119318500Y-133580000D01*
X119320500Y-133578000D01*
X119322500Y-133577000D01*
X119324500Y-133575000D01*
X119327500Y-133574000D01*
X119329500Y-133573000D01*
X119332500Y-133572000D01*
X119334500Y-133572000D01*
X119337500Y-133571000D01*
X119339500Y-133571000D01*
X119342500Y-133570000D01*
X119344500Y-133570000D01*
X119347500Y-133570000D01*
X119814500Y-133570000D01*
X119817500Y-133570000D01*
X119819500Y-133570000D01*
X119822500Y-133571000D01*
G37*
%TO.C,D11*%
X118985500Y-136571000D02*
X118987500Y-136571000D01*
X118990500Y-136572000D01*
X118992500Y-136572000D01*
X118995500Y-136573000D01*
X118997500Y-136574000D01*
X119000500Y-136575000D01*
X119002500Y-136577000D01*
X119004500Y-136578000D01*
X119006500Y-136580000D01*
X119008500Y-136581000D01*
X119010500Y-136583000D01*
X119012500Y-136585000D01*
X119014500Y-136587000D01*
X119016500Y-136589000D01*
X119017500Y-136591000D01*
X119019500Y-136593000D01*
X119020500Y-136595000D01*
X119022500Y-136597000D01*
X119023500Y-136600000D01*
X119024500Y-136602000D01*
X119025500Y-136605000D01*
X119025500Y-136607000D01*
X119026500Y-136610000D01*
X119026500Y-136612000D01*
X119027500Y-136615000D01*
X119027500Y-136617000D01*
X119027500Y-136620000D01*
X119027500Y-136880000D01*
X119027500Y-136883000D01*
X119027500Y-136885000D01*
X119026500Y-136888000D01*
X119026500Y-136890000D01*
X119025500Y-136893000D01*
X119025500Y-136895000D01*
X119024500Y-136898000D01*
X119023500Y-136900000D01*
X119022500Y-136903000D01*
X119020500Y-136905000D01*
X119019500Y-136907000D01*
X119017500Y-136909000D01*
X119016500Y-136911000D01*
X119014500Y-136913000D01*
X119012500Y-136915000D01*
X119010500Y-136917000D01*
X119008500Y-136919000D01*
X119006500Y-136920000D01*
X119004500Y-136922000D01*
X119002500Y-136923000D01*
X119000500Y-136925000D01*
X118997500Y-136926000D01*
X118995500Y-136927000D01*
X118992500Y-136928000D01*
X118990500Y-136928000D01*
X118987500Y-136929000D01*
X118985500Y-136929000D01*
X118982500Y-136930000D01*
X118980500Y-136930000D01*
X118977500Y-136930000D01*
X118510500Y-136930000D01*
X118507500Y-136930000D01*
X118505500Y-136930000D01*
X118502500Y-136929000D01*
X118500500Y-136929000D01*
X118497500Y-136928000D01*
X118495500Y-136928000D01*
X118492500Y-136927000D01*
X118490500Y-136926000D01*
X118488500Y-136925000D01*
X118486500Y-136924000D01*
X118484500Y-136922000D01*
X118482500Y-136921000D01*
X118480500Y-136919000D01*
X118478500Y-136918000D01*
X118476500Y-136916000D01*
X118474500Y-136914000D01*
X118473500Y-136912000D01*
X118471500Y-136910000D01*
X118470500Y-136908000D01*
X118468500Y-136906000D01*
X118467500Y-136904000D01*
X118466500Y-136902000D01*
X118465500Y-136900000D01*
X118464500Y-136897000D01*
X118464500Y-136895000D01*
X118463500Y-136892000D01*
X118463500Y-136890000D01*
X118462500Y-136887000D01*
X118462500Y-136885000D01*
X118462500Y-136883000D01*
X118462500Y-136620000D01*
X118462500Y-136617000D01*
X118462500Y-136615000D01*
X118463500Y-136612000D01*
X118463500Y-136610000D01*
X118464500Y-136607000D01*
X118464500Y-136605000D01*
X118465500Y-136602000D01*
X118466500Y-136600000D01*
X118467500Y-136597000D01*
X118469500Y-136595000D01*
X118470500Y-136593000D01*
X118472500Y-136591000D01*
X118473500Y-136589000D01*
X118475500Y-136587000D01*
X118477500Y-136585000D01*
X118479500Y-136583000D01*
X118481500Y-136581000D01*
X118483500Y-136580000D01*
X118485500Y-136578000D01*
X118487500Y-136577000D01*
X118489500Y-136575000D01*
X118492500Y-136574000D01*
X118494500Y-136573000D01*
X118497500Y-136572000D01*
X118499500Y-136572000D01*
X118502500Y-136571000D01*
X118504500Y-136571000D01*
X118507500Y-136570000D01*
X118509500Y-136570000D01*
X118512500Y-136570000D01*
X118977500Y-136570000D01*
X118980500Y-136570000D01*
X118982500Y-136570000D01*
X118985500Y-136571000D01*
G36*
X118985500Y-136571000D02*
G01*
X118987500Y-136571000D01*
X118990500Y-136572000D01*
X118992500Y-136572000D01*
X118995500Y-136573000D01*
X118997500Y-136574000D01*
X119000500Y-136575000D01*
X119002500Y-136577000D01*
X119004500Y-136578000D01*
X119006500Y-136580000D01*
X119008500Y-136581000D01*
X119010500Y-136583000D01*
X119012500Y-136585000D01*
X119014500Y-136587000D01*
X119016500Y-136589000D01*
X119017500Y-136591000D01*
X119019500Y-136593000D01*
X119020500Y-136595000D01*
X119022500Y-136597000D01*
X119023500Y-136600000D01*
X119024500Y-136602000D01*
X119025500Y-136605000D01*
X119025500Y-136607000D01*
X119026500Y-136610000D01*
X119026500Y-136612000D01*
X119027500Y-136615000D01*
X119027500Y-136617000D01*
X119027500Y-136620000D01*
X119027500Y-136880000D01*
X119027500Y-136883000D01*
X119027500Y-136885000D01*
X119026500Y-136888000D01*
X119026500Y-136890000D01*
X119025500Y-136893000D01*
X119025500Y-136895000D01*
X119024500Y-136898000D01*
X119023500Y-136900000D01*
X119022500Y-136903000D01*
X119020500Y-136905000D01*
X119019500Y-136907000D01*
X119017500Y-136909000D01*
X119016500Y-136911000D01*
X119014500Y-136913000D01*
X119012500Y-136915000D01*
X119010500Y-136917000D01*
X119008500Y-136919000D01*
X119006500Y-136920000D01*
X119004500Y-136922000D01*
X119002500Y-136923000D01*
X119000500Y-136925000D01*
X118997500Y-136926000D01*
X118995500Y-136927000D01*
X118992500Y-136928000D01*
X118990500Y-136928000D01*
X118987500Y-136929000D01*
X118985500Y-136929000D01*
X118982500Y-136930000D01*
X118980500Y-136930000D01*
X118977500Y-136930000D01*
X118510500Y-136930000D01*
X118507500Y-136930000D01*
X118505500Y-136930000D01*
X118502500Y-136929000D01*
X118500500Y-136929000D01*
X118497500Y-136928000D01*
X118495500Y-136928000D01*
X118492500Y-136927000D01*
X118490500Y-136926000D01*
X118488500Y-136925000D01*
X118486500Y-136924000D01*
X118484500Y-136922000D01*
X118482500Y-136921000D01*
X118480500Y-136919000D01*
X118478500Y-136918000D01*
X118476500Y-136916000D01*
X118474500Y-136914000D01*
X118473500Y-136912000D01*
X118471500Y-136910000D01*
X118470500Y-136908000D01*
X118468500Y-136906000D01*
X118467500Y-136904000D01*
X118466500Y-136902000D01*
X118465500Y-136900000D01*
X118464500Y-136897000D01*
X118464500Y-136895000D01*
X118463500Y-136892000D01*
X118463500Y-136890000D01*
X118462500Y-136887000D01*
X118462500Y-136885000D01*
X118462500Y-136883000D01*
X118462500Y-136620000D01*
X118462500Y-136617000D01*
X118462500Y-136615000D01*
X118463500Y-136612000D01*
X118463500Y-136610000D01*
X118464500Y-136607000D01*
X118464500Y-136605000D01*
X118465500Y-136602000D01*
X118466500Y-136600000D01*
X118467500Y-136597000D01*
X118469500Y-136595000D01*
X118470500Y-136593000D01*
X118472500Y-136591000D01*
X118473500Y-136589000D01*
X118475500Y-136587000D01*
X118477500Y-136585000D01*
X118479500Y-136583000D01*
X118481500Y-136581000D01*
X118483500Y-136580000D01*
X118485500Y-136578000D01*
X118487500Y-136577000D01*
X118489500Y-136575000D01*
X118492500Y-136574000D01*
X118494500Y-136573000D01*
X118497500Y-136572000D01*
X118499500Y-136572000D01*
X118502500Y-136571000D01*
X118504500Y-136571000D01*
X118507500Y-136570000D01*
X118509500Y-136570000D01*
X118512500Y-136570000D01*
X118977500Y-136570000D01*
X118980500Y-136570000D01*
X118982500Y-136570000D01*
X118985500Y-136571000D01*
G37*
X119820500Y-136571000D02*
X119822500Y-136571000D01*
X119825500Y-136572000D01*
X119827500Y-136572000D01*
X119830500Y-136573000D01*
X119832500Y-136574000D01*
X119835500Y-136575000D01*
X119837500Y-136577000D01*
X119839500Y-136578000D01*
X119841500Y-136580000D01*
X119843500Y-136581000D01*
X119845500Y-136583000D01*
X119847500Y-136585000D01*
X119849500Y-136587000D01*
X119851500Y-136589000D01*
X119852500Y-136591000D01*
X119854500Y-136593000D01*
X119855500Y-136595000D01*
X119857500Y-136597000D01*
X119858500Y-136600000D01*
X119859500Y-136602000D01*
X119860500Y-136605000D01*
X119860500Y-136607000D01*
X119861500Y-136610000D01*
X119861500Y-136612000D01*
X119862500Y-136615000D01*
X119862500Y-136617000D01*
X119862500Y-136620000D01*
X119862500Y-136880000D01*
X119862500Y-136883000D01*
X119862500Y-136885000D01*
X119861500Y-136888000D01*
X119861500Y-136890000D01*
X119860500Y-136893000D01*
X119860500Y-136895000D01*
X119859500Y-136898000D01*
X119858500Y-136900000D01*
X119857500Y-136903000D01*
X119855500Y-136905000D01*
X119854500Y-136907000D01*
X119852500Y-136909000D01*
X119851500Y-136911000D01*
X119849500Y-136913000D01*
X119847500Y-136915000D01*
X119845500Y-136917000D01*
X119843500Y-136919000D01*
X119841500Y-136920000D01*
X119839500Y-136922000D01*
X119837500Y-136923000D01*
X119835500Y-136925000D01*
X119832500Y-136926000D01*
X119830500Y-136927000D01*
X119827500Y-136928000D01*
X119825500Y-136928000D01*
X119822500Y-136929000D01*
X119820500Y-136929000D01*
X119817500Y-136930000D01*
X119815500Y-136930000D01*
X119812500Y-136930000D01*
X119344500Y-136930000D01*
X119342500Y-136930000D01*
X119340500Y-136930000D01*
X119337500Y-136929000D01*
X119335500Y-136929000D01*
X119332500Y-136928000D01*
X119330500Y-136928000D01*
X119327500Y-136927000D01*
X119325500Y-136926000D01*
X119323500Y-136925000D01*
X119321500Y-136924000D01*
X119319500Y-136922000D01*
X119317500Y-136921000D01*
X119315500Y-136919000D01*
X119313500Y-136918000D01*
X119311500Y-136916000D01*
X119309500Y-136914000D01*
X119308500Y-136912000D01*
X119306500Y-136910000D01*
X119305500Y-136908000D01*
X119303500Y-136906000D01*
X119302500Y-136904000D01*
X119301500Y-136902000D01*
X119300500Y-136900000D01*
X119299500Y-136897000D01*
X119299500Y-136895000D01*
X119298500Y-136892000D01*
X119298500Y-136890000D01*
X119297500Y-136887000D01*
X119297500Y-136885000D01*
X119297500Y-136883000D01*
X119297500Y-136620000D01*
X119297500Y-136617000D01*
X119297500Y-136615000D01*
X119298500Y-136612000D01*
X119298500Y-136610000D01*
X119299500Y-136607000D01*
X119299500Y-136605000D01*
X119300500Y-136602000D01*
X119301500Y-136600000D01*
X119302500Y-136597000D01*
X119304500Y-136595000D01*
X119305500Y-136593000D01*
X119307500Y-136591000D01*
X119308500Y-136589000D01*
X119310500Y-136587000D01*
X119312500Y-136585000D01*
X119314500Y-136583000D01*
X119316500Y-136581000D01*
X119318500Y-136580000D01*
X119320500Y-136578000D01*
X119322500Y-136577000D01*
X119324500Y-136575000D01*
X119327500Y-136574000D01*
X119329500Y-136573000D01*
X119332500Y-136572000D01*
X119334500Y-136572000D01*
X119337500Y-136571000D01*
X119339500Y-136571000D01*
X119342500Y-136570000D01*
X119344500Y-136570000D01*
X119347500Y-136570000D01*
X119812500Y-136570000D01*
X119815500Y-136570000D01*
X119817500Y-136570000D01*
X119820500Y-136571000D01*
G36*
X119820500Y-136571000D02*
G01*
X119822500Y-136571000D01*
X119825500Y-136572000D01*
X119827500Y-136572000D01*
X119830500Y-136573000D01*
X119832500Y-136574000D01*
X119835500Y-136575000D01*
X119837500Y-136577000D01*
X119839500Y-136578000D01*
X119841500Y-136580000D01*
X119843500Y-136581000D01*
X119845500Y-136583000D01*
X119847500Y-136585000D01*
X119849500Y-136587000D01*
X119851500Y-136589000D01*
X119852500Y-136591000D01*
X119854500Y-136593000D01*
X119855500Y-136595000D01*
X119857500Y-136597000D01*
X119858500Y-136600000D01*
X119859500Y-136602000D01*
X119860500Y-136605000D01*
X119860500Y-136607000D01*
X119861500Y-136610000D01*
X119861500Y-136612000D01*
X119862500Y-136615000D01*
X119862500Y-136617000D01*
X119862500Y-136620000D01*
X119862500Y-136880000D01*
X119862500Y-136883000D01*
X119862500Y-136885000D01*
X119861500Y-136888000D01*
X119861500Y-136890000D01*
X119860500Y-136893000D01*
X119860500Y-136895000D01*
X119859500Y-136898000D01*
X119858500Y-136900000D01*
X119857500Y-136903000D01*
X119855500Y-136905000D01*
X119854500Y-136907000D01*
X119852500Y-136909000D01*
X119851500Y-136911000D01*
X119849500Y-136913000D01*
X119847500Y-136915000D01*
X119845500Y-136917000D01*
X119843500Y-136919000D01*
X119841500Y-136920000D01*
X119839500Y-136922000D01*
X119837500Y-136923000D01*
X119835500Y-136925000D01*
X119832500Y-136926000D01*
X119830500Y-136927000D01*
X119827500Y-136928000D01*
X119825500Y-136928000D01*
X119822500Y-136929000D01*
X119820500Y-136929000D01*
X119817500Y-136930000D01*
X119815500Y-136930000D01*
X119812500Y-136930000D01*
X119344500Y-136930000D01*
X119342500Y-136930000D01*
X119340500Y-136930000D01*
X119337500Y-136929000D01*
X119335500Y-136929000D01*
X119332500Y-136928000D01*
X119330500Y-136928000D01*
X119327500Y-136927000D01*
X119325500Y-136926000D01*
X119323500Y-136925000D01*
X119321500Y-136924000D01*
X119319500Y-136922000D01*
X119317500Y-136921000D01*
X119315500Y-136919000D01*
X119313500Y-136918000D01*
X119311500Y-136916000D01*
X119309500Y-136914000D01*
X119308500Y-136912000D01*
X119306500Y-136910000D01*
X119305500Y-136908000D01*
X119303500Y-136906000D01*
X119302500Y-136904000D01*
X119301500Y-136902000D01*
X119300500Y-136900000D01*
X119299500Y-136897000D01*
X119299500Y-136895000D01*
X119298500Y-136892000D01*
X119298500Y-136890000D01*
X119297500Y-136887000D01*
X119297500Y-136885000D01*
X119297500Y-136883000D01*
X119297500Y-136620000D01*
X119297500Y-136617000D01*
X119297500Y-136615000D01*
X119298500Y-136612000D01*
X119298500Y-136610000D01*
X119299500Y-136607000D01*
X119299500Y-136605000D01*
X119300500Y-136602000D01*
X119301500Y-136600000D01*
X119302500Y-136597000D01*
X119304500Y-136595000D01*
X119305500Y-136593000D01*
X119307500Y-136591000D01*
X119308500Y-136589000D01*
X119310500Y-136587000D01*
X119312500Y-136585000D01*
X119314500Y-136583000D01*
X119316500Y-136581000D01*
X119318500Y-136580000D01*
X119320500Y-136578000D01*
X119322500Y-136577000D01*
X119324500Y-136575000D01*
X119327500Y-136574000D01*
X119329500Y-136573000D01*
X119332500Y-136572000D01*
X119334500Y-136572000D01*
X119337500Y-136571000D01*
X119339500Y-136571000D01*
X119342500Y-136570000D01*
X119344500Y-136570000D01*
X119347500Y-136570000D01*
X119812500Y-136570000D01*
X119815500Y-136570000D01*
X119817500Y-136570000D01*
X119820500Y-136571000D01*
G37*
%TO.C,D8*%
X123312500Y-99981000D02*
X123314500Y-99981000D01*
X123317500Y-99982000D01*
X123319500Y-99982000D01*
X123322500Y-99983000D01*
X123324500Y-99984000D01*
X123326500Y-99985000D01*
X123328500Y-99986000D01*
X123330500Y-99988000D01*
X123332500Y-99989000D01*
X123334500Y-99991000D01*
X123336500Y-99992000D01*
X123338500Y-99994000D01*
X123340500Y-99996000D01*
X123341500Y-99998000D01*
X123343500Y-100000000D01*
X123344500Y-100002000D01*
X123346500Y-100004000D01*
X123347500Y-100006000D01*
X123348500Y-100008000D01*
X123349500Y-100010000D01*
X123350500Y-100013000D01*
X123350500Y-100015000D01*
X123351500Y-100018000D01*
X123351500Y-100020000D01*
X123352500Y-100023000D01*
X123352500Y-100025000D01*
X123352500Y-100027000D01*
X123352500Y-100290000D01*
X123352500Y-100293000D01*
X123352500Y-100295000D01*
X123351500Y-100298000D01*
X123351500Y-100300000D01*
X123350500Y-100303000D01*
X123350500Y-100305000D01*
X123349500Y-100308000D01*
X123348500Y-100310000D01*
X123347500Y-100313000D01*
X123345500Y-100315000D01*
X123344500Y-100317000D01*
X123342500Y-100319000D01*
X123341500Y-100321000D01*
X123339500Y-100323000D01*
X123337500Y-100325000D01*
X123335500Y-100327000D01*
X123333500Y-100329000D01*
X123331500Y-100330000D01*
X123329500Y-100332000D01*
X123327500Y-100333000D01*
X123325500Y-100335000D01*
X123322500Y-100336000D01*
X123320500Y-100337000D01*
X123317500Y-100338000D01*
X123315500Y-100338000D01*
X123312500Y-100339000D01*
X123310500Y-100339000D01*
X123307500Y-100340000D01*
X123305500Y-100340000D01*
X123302500Y-100340000D01*
X122837500Y-100340000D01*
X122834500Y-100340000D01*
X122832500Y-100340000D01*
X122829500Y-100339000D01*
X122827500Y-100339000D01*
X122824500Y-100338000D01*
X122822500Y-100338000D01*
X122819500Y-100337000D01*
X122817500Y-100336000D01*
X122814500Y-100335000D01*
X122812500Y-100333000D01*
X122810500Y-100332000D01*
X122808500Y-100330000D01*
X122806500Y-100329000D01*
X122804500Y-100327000D01*
X122802500Y-100325000D01*
X122800500Y-100323000D01*
X122798500Y-100321000D01*
X122797500Y-100319000D01*
X122795500Y-100317000D01*
X122794500Y-100315000D01*
X122792500Y-100313000D01*
X122791500Y-100310000D01*
X122790500Y-100308000D01*
X122789500Y-100305000D01*
X122789500Y-100303000D01*
X122788500Y-100300000D01*
X122788500Y-100298000D01*
X122787500Y-100295000D01*
X122787500Y-100293000D01*
X122787500Y-100290000D01*
X122787500Y-100030000D01*
X122787500Y-100027000D01*
X122787500Y-100025000D01*
X122788500Y-100022000D01*
X122788500Y-100020000D01*
X122789500Y-100017000D01*
X122789500Y-100015000D01*
X122790500Y-100012000D01*
X122791500Y-100010000D01*
X122792500Y-100007000D01*
X122794500Y-100005000D01*
X122795500Y-100003000D01*
X122797500Y-100001000D01*
X122798500Y-99999000D01*
X122800500Y-99997000D01*
X122802500Y-99995000D01*
X122804500Y-99993000D01*
X122806500Y-99991000D01*
X122808500Y-99990000D01*
X122810500Y-99988000D01*
X122812500Y-99987000D01*
X122814500Y-99985000D01*
X122817500Y-99984000D01*
X122819500Y-99983000D01*
X122822500Y-99982000D01*
X122824500Y-99982000D01*
X122827500Y-99981000D01*
X122829500Y-99981000D01*
X122832500Y-99980000D01*
X122834500Y-99980000D01*
X122837500Y-99980000D01*
X123305500Y-99980000D01*
X123307500Y-99980000D01*
X123309500Y-99980000D01*
X123312500Y-99981000D01*
G36*
X123312500Y-99981000D02*
G01*
X123314500Y-99981000D01*
X123317500Y-99982000D01*
X123319500Y-99982000D01*
X123322500Y-99983000D01*
X123324500Y-99984000D01*
X123326500Y-99985000D01*
X123328500Y-99986000D01*
X123330500Y-99988000D01*
X123332500Y-99989000D01*
X123334500Y-99991000D01*
X123336500Y-99992000D01*
X123338500Y-99994000D01*
X123340500Y-99996000D01*
X123341500Y-99998000D01*
X123343500Y-100000000D01*
X123344500Y-100002000D01*
X123346500Y-100004000D01*
X123347500Y-100006000D01*
X123348500Y-100008000D01*
X123349500Y-100010000D01*
X123350500Y-100013000D01*
X123350500Y-100015000D01*
X123351500Y-100018000D01*
X123351500Y-100020000D01*
X123352500Y-100023000D01*
X123352500Y-100025000D01*
X123352500Y-100027000D01*
X123352500Y-100290000D01*
X123352500Y-100293000D01*
X123352500Y-100295000D01*
X123351500Y-100298000D01*
X123351500Y-100300000D01*
X123350500Y-100303000D01*
X123350500Y-100305000D01*
X123349500Y-100308000D01*
X123348500Y-100310000D01*
X123347500Y-100313000D01*
X123345500Y-100315000D01*
X123344500Y-100317000D01*
X123342500Y-100319000D01*
X123341500Y-100321000D01*
X123339500Y-100323000D01*
X123337500Y-100325000D01*
X123335500Y-100327000D01*
X123333500Y-100329000D01*
X123331500Y-100330000D01*
X123329500Y-100332000D01*
X123327500Y-100333000D01*
X123325500Y-100335000D01*
X123322500Y-100336000D01*
X123320500Y-100337000D01*
X123317500Y-100338000D01*
X123315500Y-100338000D01*
X123312500Y-100339000D01*
X123310500Y-100339000D01*
X123307500Y-100340000D01*
X123305500Y-100340000D01*
X123302500Y-100340000D01*
X122837500Y-100340000D01*
X122834500Y-100340000D01*
X122832500Y-100340000D01*
X122829500Y-100339000D01*
X122827500Y-100339000D01*
X122824500Y-100338000D01*
X122822500Y-100338000D01*
X122819500Y-100337000D01*
X122817500Y-100336000D01*
X122814500Y-100335000D01*
X122812500Y-100333000D01*
X122810500Y-100332000D01*
X122808500Y-100330000D01*
X122806500Y-100329000D01*
X122804500Y-100327000D01*
X122802500Y-100325000D01*
X122800500Y-100323000D01*
X122798500Y-100321000D01*
X122797500Y-100319000D01*
X122795500Y-100317000D01*
X122794500Y-100315000D01*
X122792500Y-100313000D01*
X122791500Y-100310000D01*
X122790500Y-100308000D01*
X122789500Y-100305000D01*
X122789500Y-100303000D01*
X122788500Y-100300000D01*
X122788500Y-100298000D01*
X122787500Y-100295000D01*
X122787500Y-100293000D01*
X122787500Y-100290000D01*
X122787500Y-100030000D01*
X122787500Y-100027000D01*
X122787500Y-100025000D01*
X122788500Y-100022000D01*
X122788500Y-100020000D01*
X122789500Y-100017000D01*
X122789500Y-100015000D01*
X122790500Y-100012000D01*
X122791500Y-100010000D01*
X122792500Y-100007000D01*
X122794500Y-100005000D01*
X122795500Y-100003000D01*
X122797500Y-100001000D01*
X122798500Y-99999000D01*
X122800500Y-99997000D01*
X122802500Y-99995000D01*
X122804500Y-99993000D01*
X122806500Y-99991000D01*
X122808500Y-99990000D01*
X122810500Y-99988000D01*
X122812500Y-99987000D01*
X122814500Y-99985000D01*
X122817500Y-99984000D01*
X122819500Y-99983000D01*
X122822500Y-99982000D01*
X122824500Y-99982000D01*
X122827500Y-99981000D01*
X122829500Y-99981000D01*
X122832500Y-99980000D01*
X122834500Y-99980000D01*
X122837500Y-99980000D01*
X123305500Y-99980000D01*
X123307500Y-99980000D01*
X123309500Y-99980000D01*
X123312500Y-99981000D01*
G37*
X124147500Y-99981000D02*
X124149500Y-99981000D01*
X124152500Y-99982000D01*
X124154500Y-99982000D01*
X124157500Y-99983000D01*
X124159500Y-99984000D01*
X124161500Y-99985000D01*
X124163500Y-99986000D01*
X124165500Y-99988000D01*
X124167500Y-99989000D01*
X124169500Y-99991000D01*
X124171500Y-99992000D01*
X124173500Y-99994000D01*
X124175500Y-99996000D01*
X124176500Y-99998000D01*
X124178500Y-100000000D01*
X124179500Y-100002000D01*
X124181500Y-100004000D01*
X124182500Y-100006000D01*
X124183500Y-100008000D01*
X124184500Y-100010000D01*
X124185500Y-100013000D01*
X124185500Y-100015000D01*
X124186500Y-100018000D01*
X124186500Y-100020000D01*
X124187500Y-100023000D01*
X124187500Y-100025000D01*
X124187500Y-100027000D01*
X124187500Y-100290000D01*
X124187500Y-100293000D01*
X124187500Y-100295000D01*
X124186500Y-100298000D01*
X124186500Y-100300000D01*
X124185500Y-100303000D01*
X124185500Y-100305000D01*
X124184500Y-100308000D01*
X124183500Y-100310000D01*
X124182500Y-100313000D01*
X124180500Y-100315000D01*
X124179500Y-100317000D01*
X124177500Y-100319000D01*
X124176500Y-100321000D01*
X124174500Y-100323000D01*
X124172500Y-100325000D01*
X124170500Y-100327000D01*
X124168500Y-100329000D01*
X124166500Y-100330000D01*
X124164500Y-100332000D01*
X124162500Y-100333000D01*
X124160500Y-100335000D01*
X124157500Y-100336000D01*
X124155500Y-100337000D01*
X124152500Y-100338000D01*
X124150500Y-100338000D01*
X124147500Y-100339000D01*
X124145500Y-100339000D01*
X124142500Y-100340000D01*
X124140500Y-100340000D01*
X124137500Y-100340000D01*
X123672500Y-100340000D01*
X123669500Y-100340000D01*
X123667500Y-100340000D01*
X123664500Y-100339000D01*
X123662500Y-100339000D01*
X123659500Y-100338000D01*
X123657500Y-100338000D01*
X123654500Y-100337000D01*
X123652500Y-100336000D01*
X123649500Y-100335000D01*
X123647500Y-100333000D01*
X123645500Y-100332000D01*
X123643500Y-100330000D01*
X123641500Y-100329000D01*
X123639500Y-100327000D01*
X123637500Y-100325000D01*
X123635500Y-100323000D01*
X123633500Y-100321000D01*
X123632500Y-100319000D01*
X123630500Y-100317000D01*
X123629500Y-100315000D01*
X123627500Y-100313000D01*
X123626500Y-100310000D01*
X123625500Y-100308000D01*
X123624500Y-100305000D01*
X123624500Y-100303000D01*
X123623500Y-100300000D01*
X123623500Y-100298000D01*
X123622500Y-100295000D01*
X123622500Y-100293000D01*
X123622500Y-100290000D01*
X123622500Y-100030000D01*
X123622500Y-100027000D01*
X123622500Y-100025000D01*
X123623500Y-100022000D01*
X123623500Y-100020000D01*
X123624500Y-100017000D01*
X123624500Y-100015000D01*
X123625500Y-100012000D01*
X123626500Y-100010000D01*
X123627500Y-100007000D01*
X123629500Y-100005000D01*
X123630500Y-100003000D01*
X123632500Y-100001000D01*
X123633500Y-99999000D01*
X123635500Y-99997000D01*
X123637500Y-99995000D01*
X123639500Y-99993000D01*
X123641500Y-99991000D01*
X123643500Y-99990000D01*
X123645500Y-99988000D01*
X123647500Y-99987000D01*
X123649500Y-99985000D01*
X123652500Y-99984000D01*
X123654500Y-99983000D01*
X123657500Y-99982000D01*
X123659500Y-99982000D01*
X123662500Y-99981000D01*
X123664500Y-99981000D01*
X123667500Y-99980000D01*
X123669500Y-99980000D01*
X123672500Y-99980000D01*
X124139500Y-99980000D01*
X124142500Y-99980000D01*
X124144500Y-99980000D01*
X124147500Y-99981000D01*
G36*
X124147500Y-99981000D02*
G01*
X124149500Y-99981000D01*
X124152500Y-99982000D01*
X124154500Y-99982000D01*
X124157500Y-99983000D01*
X124159500Y-99984000D01*
X124161500Y-99985000D01*
X124163500Y-99986000D01*
X124165500Y-99988000D01*
X124167500Y-99989000D01*
X124169500Y-99991000D01*
X124171500Y-99992000D01*
X124173500Y-99994000D01*
X124175500Y-99996000D01*
X124176500Y-99998000D01*
X124178500Y-100000000D01*
X124179500Y-100002000D01*
X124181500Y-100004000D01*
X124182500Y-100006000D01*
X124183500Y-100008000D01*
X124184500Y-100010000D01*
X124185500Y-100013000D01*
X124185500Y-100015000D01*
X124186500Y-100018000D01*
X124186500Y-100020000D01*
X124187500Y-100023000D01*
X124187500Y-100025000D01*
X124187500Y-100027000D01*
X124187500Y-100290000D01*
X124187500Y-100293000D01*
X124187500Y-100295000D01*
X124186500Y-100298000D01*
X124186500Y-100300000D01*
X124185500Y-100303000D01*
X124185500Y-100305000D01*
X124184500Y-100308000D01*
X124183500Y-100310000D01*
X124182500Y-100313000D01*
X124180500Y-100315000D01*
X124179500Y-100317000D01*
X124177500Y-100319000D01*
X124176500Y-100321000D01*
X124174500Y-100323000D01*
X124172500Y-100325000D01*
X124170500Y-100327000D01*
X124168500Y-100329000D01*
X124166500Y-100330000D01*
X124164500Y-100332000D01*
X124162500Y-100333000D01*
X124160500Y-100335000D01*
X124157500Y-100336000D01*
X124155500Y-100337000D01*
X124152500Y-100338000D01*
X124150500Y-100338000D01*
X124147500Y-100339000D01*
X124145500Y-100339000D01*
X124142500Y-100340000D01*
X124140500Y-100340000D01*
X124137500Y-100340000D01*
X123672500Y-100340000D01*
X123669500Y-100340000D01*
X123667500Y-100340000D01*
X123664500Y-100339000D01*
X123662500Y-100339000D01*
X123659500Y-100338000D01*
X123657500Y-100338000D01*
X123654500Y-100337000D01*
X123652500Y-100336000D01*
X123649500Y-100335000D01*
X123647500Y-100333000D01*
X123645500Y-100332000D01*
X123643500Y-100330000D01*
X123641500Y-100329000D01*
X123639500Y-100327000D01*
X123637500Y-100325000D01*
X123635500Y-100323000D01*
X123633500Y-100321000D01*
X123632500Y-100319000D01*
X123630500Y-100317000D01*
X123629500Y-100315000D01*
X123627500Y-100313000D01*
X123626500Y-100310000D01*
X123625500Y-100308000D01*
X123624500Y-100305000D01*
X123624500Y-100303000D01*
X123623500Y-100300000D01*
X123623500Y-100298000D01*
X123622500Y-100295000D01*
X123622500Y-100293000D01*
X123622500Y-100290000D01*
X123622500Y-100030000D01*
X123622500Y-100027000D01*
X123622500Y-100025000D01*
X123623500Y-100022000D01*
X123623500Y-100020000D01*
X123624500Y-100017000D01*
X123624500Y-100015000D01*
X123625500Y-100012000D01*
X123626500Y-100010000D01*
X123627500Y-100007000D01*
X123629500Y-100005000D01*
X123630500Y-100003000D01*
X123632500Y-100001000D01*
X123633500Y-99999000D01*
X123635500Y-99997000D01*
X123637500Y-99995000D01*
X123639500Y-99993000D01*
X123641500Y-99991000D01*
X123643500Y-99990000D01*
X123645500Y-99988000D01*
X123647500Y-99987000D01*
X123649500Y-99985000D01*
X123652500Y-99984000D01*
X123654500Y-99983000D01*
X123657500Y-99982000D01*
X123659500Y-99982000D01*
X123662500Y-99981000D01*
X123664500Y-99981000D01*
X123667500Y-99980000D01*
X123669500Y-99980000D01*
X123672500Y-99980000D01*
X124139500Y-99980000D01*
X124142500Y-99980000D01*
X124144500Y-99980000D01*
X124147500Y-99981000D01*
G37*
%TD*%
D11*
%TO.C,U1*%
X128925000Y-151350000D03*
X130325000Y-151350000D03*
%TD*%
D12*
%TO.C,C9*%
X69600000Y-79100000D03*
X67525000Y-79100000D03*
%TD*%
D13*
%TO.C,R44*%
X95337500Y-88275000D03*
X93512500Y-88275000D03*
%TD*%
D14*
%TO.C,D5*%
X118426000Y-68851000D03*
X120176000Y-68851000D03*
%TD*%
D15*
%TO.C,C6*%
X80888500Y-84753500D03*
X80888500Y-86828500D03*
%TD*%
D16*
%TO.C,D12*%
X115520000Y-119850001D03*
X115520000Y-119350001D03*
X115520000Y-118350001D03*
X115520000Y-117850001D03*
X114685000Y-117850001D03*
X114685000Y-118350001D03*
X114685000Y-119350001D03*
X114685000Y-119850001D03*
%TD*%
D17*
%TO.C,C16*%
X123025000Y-150087500D03*
X123025000Y-148362500D03*
%TD*%
D13*
%TO.C,R25*%
X116713500Y-68851000D03*
X114888500Y-68851000D03*
%TD*%
D11*
%TO.C,U2*%
X115687500Y-151125250D03*
X117087500Y-151125250D03*
%TD*%
D18*
%TO.C,R4*%
X111100000Y-93662500D03*
X111100000Y-91837500D03*
%TD*%
D13*
%TO.C,R8*%
X124037500Y-146600000D03*
X122212500Y-146600000D03*
%TD*%
D19*
%TO.C,R45*%
X70531000Y-72856000D03*
X72356000Y-72856000D03*
%TD*%
D20*
%TO.C,J5*%
X127115000Y-102610000D03*
X127115000Y-101810000D03*
D21*
X127115000Y-100660000D03*
X127115000Y-99660000D03*
X127115000Y-99160000D03*
X127115000Y-98160000D03*
D20*
X127115000Y-97010000D03*
X127115000Y-96210000D03*
X127115000Y-96210000D03*
X127115000Y-97010000D03*
D21*
X127115000Y-97660000D03*
X127115000Y-98660000D03*
X127115000Y-100160000D03*
X127115000Y-101160000D03*
D20*
X127115000Y-101810000D03*
X127115000Y-102610000D03*
D22*
X127690000Y-103730000D03*
D23*
X131870000Y-103730000D03*
D22*
X127690000Y-95090000D03*
D23*
X131870000Y-95090000D03*
%TD*%
D24*
%TO.C,SW1*%
X88632500Y-155212500D03*
X84132500Y-155212500D03*
X88632500Y-153062500D03*
X84132500Y-153062500D03*
%TD*%
D25*
%TO.C,Y4*%
X121545000Y-81675000D03*
X117445000Y-81675000D03*
%TD*%
D26*
%TO.C,IC3*%
X101928500Y-86651000D03*
X101928500Y-87301000D03*
X101928500Y-87951000D03*
X101928500Y-88601000D03*
X104428500Y-88601000D03*
X104428500Y-87951000D03*
X104428500Y-87301000D03*
X104428500Y-86651000D03*
%TD*%
D27*
%TO.C,D17*%
X118745000Y-138850000D03*
X118745000Y-139350000D03*
X118745000Y-140350000D03*
X118745000Y-140850000D03*
X119580000Y-140850000D03*
X119580000Y-140350000D03*
X119580000Y-139350000D03*
X119580000Y-138850000D03*
%TD*%
D28*
%TO.C,FB1*%
X122950000Y-96270000D03*
X125250000Y-96270000D03*
%TD*%
D29*
%TO.C,D18*%
X127400000Y-146600000D03*
X125650000Y-146600000D03*
%TD*%
D30*
%TO.C,J14*%
X112025000Y-95850000D03*
X112025000Y-96850000D03*
X112025000Y-97850000D03*
X112025000Y-98850000D03*
D31*
X114550000Y-94550000D03*
X114550000Y-100150000D03*
%TD*%
D27*
%TO.C,D19*%
X114290000Y-111850001D03*
X114290000Y-112350001D03*
X114290000Y-113350001D03*
X114290000Y-113850001D03*
X115125000Y-113850001D03*
X115125000Y-113350001D03*
X115125000Y-112350001D03*
X115125000Y-111850001D03*
%TD*%
D13*
%TO.C,R26*%
X127455000Y-151855000D03*
X125630000Y-151855000D03*
%TD*%
D32*
%TO.C,C36*%
X115408500Y-89100000D03*
X117133500Y-89100000D03*
%TD*%
D33*
%TO.C,C10*%
X114062500Y-156943750D03*
X112337500Y-156943750D03*
%TD*%
D13*
%TO.C,R34*%
X117183500Y-87600000D03*
X115358500Y-87600000D03*
%TD*%
D19*
%TO.C,R5*%
X115287500Y-90728999D03*
X117112500Y-90728999D03*
%TD*%
D12*
%TO.C,C19*%
X104216000Y-90526000D03*
X102141000Y-90526000D03*
%TD*%
D13*
%TO.C,R15*%
X96197500Y-68850000D03*
X94372500Y-68850000D03*
%TD*%
D11*
%TO.C,U3*%
X122742500Y-97880000D03*
X124142500Y-97880000D03*
%TD*%
D34*
%TO.C,C23*%
X80232500Y-153299999D03*
X80232500Y-155025001D03*
%TD*%
D35*
%TO.C,U13*%
X128333500Y-82833500D03*
X126433500Y-82833500D03*
X127383500Y-85233500D03*
%TD*%
D33*
%TO.C,C5*%
X78762500Y-83800000D03*
X77037500Y-83800000D03*
%TD*%
D17*
%TO.C,C24*%
X124300000Y-83562500D03*
X124300000Y-81837500D03*
%TD*%
D32*
%TO.C,C37*%
X123437500Y-93100000D03*
X125162500Y-93100000D03*
%TD*%
D19*
%TO.C,R13*%
X106175000Y-88500000D03*
X108000000Y-88500000D03*
%TD*%
D33*
%TO.C,C59*%
X79853500Y-72841000D03*
X78128500Y-72841000D03*
%TD*%
D32*
%TO.C,C56*%
X86298500Y-82681000D03*
X88023500Y-82681000D03*
%TD*%
D17*
%TO.C,C4*%
X116200000Y-108767501D03*
X116200000Y-107042501D03*
%TD*%
D14*
%TO.C,D13*%
X97900000Y-68850000D03*
X99650000Y-68850000D03*
%TD*%
D33*
%TO.C,C60*%
X83576000Y-74891000D03*
X81851000Y-74891000D03*
%TD*%
D34*
%TO.C,C13*%
X109900000Y-152831250D03*
X109900000Y-154556250D03*
%TD*%
D17*
%TO.C,C25*%
X114700000Y-83462500D03*
X114700000Y-81737500D03*
%TD*%
D19*
%TO.C,R1*%
X68637500Y-91200000D03*
X70462500Y-91200000D03*
%TD*%
D33*
%TO.C,C1*%
X125240001Y-94600000D03*
X123514999Y-94600000D03*
%TD*%
D18*
%TO.C,R17*%
X91032500Y-155075000D03*
X91032500Y-153250000D03*
%TD*%
%TO.C,R7*%
X120680000Y-144862500D03*
X120680000Y-143037500D03*
%TD*%
D29*
%TO.C,D2*%
X66950000Y-88250000D03*
X65200000Y-88250000D03*
%TD*%
D13*
%TO.C,R20*%
X85473500Y-68836000D03*
X83648500Y-68836000D03*
%TD*%
D24*
%TO.C,Q3*%
X103738500Y-83963500D03*
X103738500Y-82693500D03*
X103738500Y-81423500D03*
X103738500Y-80153500D03*
D36*
X97978500Y-80153500D03*
X97978500Y-83963500D03*
D37*
X99578500Y-82058500D03*
D38*
X101393500Y-82058500D03*
D39*
X102058500Y-82058500D03*
%TD*%
D18*
%TO.C,R19*%
X71032500Y-155075000D03*
X71032500Y-153250000D03*
%TD*%
D40*
%TO.C,F3*%
X72950000Y-136712500D03*
X72950000Y-139687500D03*
%TD*%
D41*
%TO.C,R30*%
X83688500Y-72791000D03*
X81688500Y-72791000D03*
%TD*%
D42*
%TO.C,IC4*%
X80783500Y-82641000D03*
X82053500Y-82641000D03*
X83323500Y-82641000D03*
X84593500Y-82641000D03*
X84593500Y-77241000D03*
X83323500Y-77241000D03*
X82053500Y-77241000D03*
X80783500Y-77241000D03*
D43*
X82688500Y-79941000D03*
%TD*%
D24*
%TO.C,Q2*%
X106788500Y-80163500D03*
X106788500Y-81433500D03*
X106788500Y-82703500D03*
X106788500Y-83973500D03*
D36*
X112548500Y-83973500D03*
X112548500Y-80163500D03*
D37*
X110948500Y-82068500D03*
D38*
X109133500Y-82068500D03*
D39*
X108468500Y-82068500D03*
%TD*%
D44*
%TO.C,IC8*%
X124625000Y-148275000D03*
X124625000Y-148925000D03*
X124625000Y-149575000D03*
X124625000Y-150225000D03*
X127525000Y-150225000D03*
X127525000Y-149575000D03*
X127525000Y-148925000D03*
X127525000Y-148275000D03*
D45*
X126075000Y-149250000D03*
%TD*%
D46*
%TO.C,FB2*%
X115962500Y-155020750D03*
X115962500Y-152720750D03*
%TD*%
D47*
%TO.C,C14*%
X75960292Y-86480292D03*
X78170000Y-88690000D03*
%TD*%
D29*
%TO.C,D21*%
X114162500Y-150125250D03*
X112412500Y-150125250D03*
%TD*%
D19*
%TO.C,R14*%
X106175000Y-86900000D03*
X108000000Y-86900000D03*
%TD*%
D34*
%TO.C,C7*%
X84743500Y-84728500D03*
X84743500Y-86453500D03*
%TD*%
D48*
%TO.C,R27*%
X111050000Y-100437500D03*
X111050000Y-102262500D03*
%TD*%
D49*
%TO.C,IC1*%
X126408500Y-89583500D03*
X127058500Y-89583500D03*
X127708500Y-89583500D03*
X128358500Y-89583500D03*
X128358500Y-87083500D03*
X127708500Y-87083500D03*
X127058500Y-87083500D03*
X126408500Y-87083500D03*
%TD*%
D48*
%TO.C,R2*%
X131521000Y-87021000D03*
X131521000Y-88846000D03*
%TD*%
D19*
%TO.C,R11*%
X126912500Y-105700000D03*
X128737500Y-105700000D03*
%TD*%
D33*
%TO.C,C15*%
X132987501Y-105700000D03*
X131262499Y-105700000D03*
%TD*%
D13*
%TO.C,R22*%
X114200000Y-148475250D03*
X112375000Y-148475250D03*
%TD*%
D33*
%TO.C,C11*%
X128246000Y-91371000D03*
X126521000Y-91371000D03*
%TD*%
D50*
%TO.C,J7*%
X122995000Y-132500000D03*
X122995000Y-133000000D03*
X122995000Y-133500000D03*
X122995000Y-134000000D03*
X122995000Y-134500000D03*
X122995000Y-135000000D03*
X122995000Y-135500000D03*
X122995000Y-136000000D03*
X122995000Y-136500000D03*
X122995000Y-137000000D03*
X122995000Y-137500000D03*
X122995000Y-138000000D03*
X122995000Y-138500000D03*
X122995000Y-139000000D03*
X122995000Y-139500000D03*
X122995000Y-140000000D03*
X122995000Y-140500000D03*
X122995000Y-141000000D03*
X122995000Y-141500000D03*
%TD*%
D51*
%TO.C,D4*%
X131571000Y-92308500D03*
X131571000Y-90558500D03*
%TD*%
D52*
%TO.C,R32*%
X86980000Y-79310000D03*
X86980000Y-81135000D03*
%TD*%
D53*
%TO.C,U14*%
X124421000Y-85446001D03*
X123771000Y-85446001D03*
X123121000Y-85446001D03*
X122471000Y-85446001D03*
X121821000Y-85446001D03*
X121171000Y-85446001D03*
X120521000Y-85446001D03*
X119871000Y-85446001D03*
X119221000Y-85446001D03*
X118571000Y-85446001D03*
X118571000Y-91171001D03*
X119221000Y-91171001D03*
X119871000Y-91171001D03*
X120521000Y-91171001D03*
X121171000Y-91171001D03*
X121821000Y-91171001D03*
X122471000Y-91171001D03*
X123121000Y-91171001D03*
X123771000Y-91171001D03*
X124421000Y-91171001D03*
%TD*%
D28*
%TO.C,FB4*%
X129075000Y-149400000D03*
X131375000Y-149400000D03*
%TD*%
D54*
%TO.C,Module2*%
X71957500Y-113450000D03*
X75037500Y-113450000D03*
X71957500Y-113850000D03*
X75037500Y-113850000D03*
X71957500Y-114250000D03*
X75037500Y-114250000D03*
X71957500Y-114650000D03*
X75037500Y-114650000D03*
X71957500Y-115050000D03*
X75037500Y-115050000D03*
X71957500Y-115450000D03*
X75037500Y-115450000D03*
X71957500Y-115850000D03*
X75037500Y-115850000D03*
X71957500Y-116250000D03*
X75037500Y-116250000D03*
X71957500Y-116650000D03*
X75037500Y-116650000D03*
X71957500Y-117050000D03*
X75037500Y-117050000D03*
X71957500Y-117450000D03*
X75037500Y-117450000D03*
X71957500Y-117850000D03*
X75037500Y-117850000D03*
X71957500Y-118250000D03*
X75037500Y-118250000D03*
X71957500Y-118650000D03*
X75037500Y-118650000D03*
X71957500Y-119050000D03*
X75037500Y-119050000D03*
X71957500Y-119450000D03*
X75037500Y-119450000D03*
X71957500Y-119850000D03*
X75037500Y-119850000D03*
X71957500Y-120250000D03*
X75037500Y-120250000D03*
X71957500Y-120650000D03*
X75037500Y-120650000D03*
X71957500Y-121050000D03*
X75037500Y-121050000D03*
X71957500Y-121450000D03*
X75037500Y-121450000D03*
X71957500Y-121850000D03*
X75037500Y-121850000D03*
X71957500Y-122250000D03*
X75037500Y-122250000D03*
X71957500Y-122650000D03*
X75037500Y-122650000D03*
X71957500Y-123050000D03*
X75037500Y-123050000D03*
X71957500Y-123450000D03*
X75037500Y-123450000D03*
X71957500Y-123850000D03*
X75037500Y-123850000D03*
X71957500Y-124250000D03*
X75037500Y-124250000D03*
X71957500Y-124650000D03*
X75037500Y-124650000D03*
X71957500Y-125050000D03*
X75037500Y-125050000D03*
X71957500Y-125450000D03*
X75037500Y-125450000D03*
X71957500Y-125850000D03*
X75037500Y-125850000D03*
X71957500Y-126250000D03*
X75037500Y-126250000D03*
X71957500Y-126650000D03*
X75037500Y-126650000D03*
X71957500Y-127050000D03*
X75037500Y-127050000D03*
X71957500Y-127450000D03*
X75037500Y-127450000D03*
X71957500Y-127850000D03*
X75037500Y-127850000D03*
X71957500Y-128250000D03*
X75037500Y-128250000D03*
X71957500Y-128650000D03*
X75037500Y-128650000D03*
X71957500Y-129050000D03*
X75037500Y-129050000D03*
X71957500Y-129450000D03*
X75037500Y-129450000D03*
X71957500Y-129850000D03*
X75037500Y-129850000D03*
X71957500Y-130250000D03*
X75037500Y-130250000D03*
X71957500Y-130650000D03*
X75037500Y-130650000D03*
X71957500Y-131050000D03*
X75037500Y-131050000D03*
X71957500Y-131450000D03*
X75037500Y-131450000D03*
X71957500Y-131850000D03*
X75037500Y-131850000D03*
X71957500Y-132250000D03*
X75037500Y-132250000D03*
X71957500Y-132650000D03*
X75037500Y-132650000D03*
X71957500Y-133050000D03*
X75037500Y-133050000D03*
X105957500Y-113450000D03*
X109037500Y-113450000D03*
X105957500Y-113850000D03*
X109037500Y-113850000D03*
X105957500Y-114250000D03*
X109037500Y-114250000D03*
X105957500Y-114650000D03*
X109037500Y-114650000D03*
X105957500Y-115050000D03*
X109037500Y-115050000D03*
X105957500Y-115450000D03*
X109037500Y-115450000D03*
X105957500Y-115850000D03*
X109037500Y-115850000D03*
X105957500Y-116250000D03*
X109037500Y-116250000D03*
X105957500Y-116650000D03*
X109037500Y-116650000D03*
X105957500Y-117050000D03*
X109037500Y-117050000D03*
X105957500Y-117450000D03*
X109037500Y-117450000D03*
X105957500Y-117850000D03*
X109037500Y-117850000D03*
X105957500Y-118250000D03*
X109037500Y-118250000D03*
X105957500Y-118650000D03*
X109037500Y-118650000D03*
X105957500Y-119050000D03*
X109037500Y-119050000D03*
X105957500Y-119450000D03*
X109037500Y-119450000D03*
X105957500Y-119850000D03*
X109037500Y-119850000D03*
X105957500Y-120250000D03*
X109037500Y-120250000D03*
X105957500Y-120650000D03*
X109037500Y-120650000D03*
X105957500Y-121050000D03*
X109037500Y-121050000D03*
X105957500Y-121450000D03*
X109037500Y-121450000D03*
X105957500Y-121850000D03*
X109037500Y-121850000D03*
X105957500Y-122250000D03*
X109037500Y-122250000D03*
X105957500Y-122650000D03*
X109037500Y-122650000D03*
X105957500Y-123050000D03*
X109037500Y-123050000D03*
X105957500Y-123450000D03*
X109037500Y-123450000D03*
X105957500Y-123850000D03*
X109037500Y-123850000D03*
X105957500Y-124250000D03*
X109037500Y-124250000D03*
X105957500Y-124650000D03*
X109037500Y-124650000D03*
X105957500Y-125050000D03*
X109037500Y-125050000D03*
X105957500Y-125450000D03*
X109037500Y-125450000D03*
X105957500Y-125850000D03*
X109037500Y-125850000D03*
X105957500Y-126250000D03*
X109037500Y-126250000D03*
X105957500Y-126650000D03*
X109037500Y-126650000D03*
X105957500Y-127050000D03*
X109037500Y-127050000D03*
X105957500Y-127450000D03*
X109037500Y-127450000D03*
X105957500Y-127850000D03*
X109037500Y-127850000D03*
X105957500Y-128250000D03*
X109037500Y-128250000D03*
X105957500Y-128650000D03*
X109037500Y-128650000D03*
X105957500Y-129050000D03*
X109037500Y-129050000D03*
X105957500Y-129450000D03*
X109037500Y-129450000D03*
X105957500Y-129850000D03*
X109037500Y-129850000D03*
X105957500Y-130250000D03*
X109037500Y-130250000D03*
X105957500Y-130650000D03*
X109037500Y-130650000D03*
X105957500Y-131050000D03*
X109037500Y-131050000D03*
X105957500Y-131450000D03*
X109037500Y-131450000D03*
X105957500Y-131850000D03*
X109037500Y-131850000D03*
X105957500Y-132250000D03*
X109037500Y-132250000D03*
X105957500Y-132650000D03*
X109037500Y-132650000D03*
X105957500Y-133050000D03*
X109037500Y-133050000D03*
%TD*%
D13*
%TO.C,R9*%
X114125000Y-155356250D03*
X112300000Y-155356250D03*
%TD*%
D55*
%TO.C,C61*%
X69462500Y-77137500D03*
X69462500Y-75062500D03*
%TD*%
D34*
%TO.C,C22*%
X81800000Y-153299999D03*
X81800000Y-155025001D03*
%TD*%
D27*
%TO.C,D10*%
X118745000Y-132750000D03*
X118745000Y-133250000D03*
X118745000Y-134250000D03*
X118745000Y-134750000D03*
X119580000Y-134750000D03*
X119580000Y-134250000D03*
X119580000Y-133250000D03*
X119580000Y-132750000D03*
%TD*%
D56*
%TO.C,L2*%
X77900000Y-79100000D03*
X72300000Y-79100000D03*
%TD*%
D17*
%TO.C,C12*%
X119080000Y-144812500D03*
X119080000Y-143087500D03*
%TD*%
D15*
%TO.C,C27*%
X99991000Y-86801000D03*
X99991000Y-88876000D03*
%TD*%
%TO.C,C58*%
X82943500Y-84753500D03*
X82943500Y-86828500D03*
%TD*%
D48*
%TO.C,R24*%
X129983500Y-82921000D03*
X129983500Y-84746000D03*
%TD*%
D29*
%TO.C,D1*%
X66950000Y-91200000D03*
X65200000Y-91200000D03*
%TD*%
D19*
%TO.C,R42*%
X68662500Y-88250000D03*
X70487500Y-88250000D03*
%TD*%
D29*
%TO.C,D7*%
X75886000Y-72856000D03*
X74136000Y-72856000D03*
%TD*%
D14*
%TO.C,D9*%
X89938500Y-88263500D03*
X91688500Y-88263500D03*
%TD*%
D57*
%TO.C,Z1*%
X105100000Y-76675000D03*
X105100000Y-72675000D03*
%TD*%
D18*
%TO.C,R21*%
X110762500Y-150083250D03*
X110762500Y-148258250D03*
%TD*%
D17*
%TO.C,C3*%
X111200000Y-88462500D03*
X111200000Y-86737500D03*
%TD*%
D13*
%TO.C,R33*%
X73648500Y-68836000D03*
X71823500Y-68836000D03*
%TD*%
D12*
%TO.C,C29*%
X131237500Y-147430000D03*
X129162500Y-147430000D03*
%TD*%
D29*
%TO.C,D15*%
X114137499Y-146870750D03*
X112387501Y-146870750D03*
%TD*%
D19*
%TO.C,R3*%
X116692500Y-94540000D03*
X118517500Y-94540000D03*
%TD*%
D24*
%TO.C,SW2*%
X77882500Y-155225000D03*
X73382500Y-155225000D03*
X77882500Y-153075000D03*
X73382500Y-153075000D03*
%TD*%
D44*
%TO.C,IC5*%
X111337500Y-151781250D03*
X111337500Y-152431250D03*
X111337500Y-153081250D03*
X111337500Y-153731250D03*
X114237500Y-153731250D03*
X114237500Y-153081250D03*
X114237500Y-152431250D03*
X114237500Y-151781250D03*
D45*
X112787500Y-152756250D03*
%TD*%
D48*
%TO.C,R10*%
X109600000Y-86687500D03*
X109600000Y-88512500D03*
%TD*%
D16*
%TO.C,D11*%
X119580000Y-137750000D03*
X119580000Y-137250000D03*
X119580000Y-136250000D03*
X119580000Y-135750000D03*
X118745000Y-135750000D03*
X118745000Y-136250000D03*
X118745000Y-137250000D03*
X118745000Y-137750000D03*
%TD*%
D58*
%TO.C,D6*%
X70600000Y-136500000D03*
X70600000Y-139800000D03*
%TD*%
D18*
%TO.C,R35*%
X129883500Y-88846000D03*
X129883500Y-87021000D03*
%TD*%
D12*
%TO.C,C18*%
X108263500Y-90488500D03*
X106188500Y-90488500D03*
%TD*%
D14*
%TO.C,D14*%
X87141000Y-68836000D03*
X88891000Y-68836000D03*
%TD*%
%TO.C,D16*%
X75341000Y-68836000D03*
X77091000Y-68836000D03*
%TD*%
D47*
%TO.C,C2*%
X74295146Y-88195146D03*
X76504854Y-90404854D03*
%TD*%
D59*
%TO.C,R31*%
X86988500Y-75666000D03*
X86988500Y-77666000D03*
%TD*%
D15*
%TO.C,C8*%
X69462500Y-81062500D03*
X69462500Y-83137500D03*
%TD*%
D29*
%TO.C,D3*%
X121829999Y-94540000D03*
X120080001Y-94540000D03*
%TD*%
D18*
%TO.C,R6*%
X114650000Y-108817501D03*
X114650000Y-106992501D03*
%TD*%
D27*
%TO.C,D8*%
X123070000Y-99160000D03*
X123070000Y-99660000D03*
X123070000Y-100660000D03*
X123070000Y-101160000D03*
X123905000Y-101160000D03*
X123905000Y-100660000D03*
X123905000Y-99660000D03*
X123905000Y-99160000D03*
%TD*%
M02*
